{
classes = (
{
code = "zero one two three four five six seven eight nine A B C D E F G H I J K L M N O P Q R S T U V W X Y Z uni0410 uni0411 uni0412 uni0413 uni0414 uni0415 uni0416 uni0417 uni0418 uni0419 uni041A uni041B uni041C uni041D uni041E uni041F uni0420 uni0421 uni0422 uni0423 uni0424 uni0425 uni0426 uni0427 uni0428 uni0429 uni042A uni042B uni042C uni042D uni042E uni042F uni0401 K_alt W_alt Acircumflex Adieresis Ccedilla Ecircumflex Icircumflex Odieresis Udieresis Abreve Idotaccent Scedilla uni0162 uni0218 uni021A uni04C1";
name = calt1;
},
{
code = "o a c d e g q s u y t acircumflex adieresis ccedilla ecircumflex odieresis udieresis u_alt y_alt s_alt c_alt t_alt t2.alt g_alt a_alt abreve scedilla uni0163 uni0219 uni021B uni0430 uni0431 uni0435 uni0437 uni043E uni0441 uni0444 uni044D uni0451 space zero one three five six seven eight nine f v endash emdash uni00AD hyphen.uc uni00AD.uc endash.uc emdash.uc minus hyphen t0163.alt t021b.alt a2_alt a00E2.alt a00E4.alt a0103.alt";
name = calt2;
},
{
code = "uniE000 uniE001 uniE002 uniE003 uniE004 uniE005 uniE006 uniE007 uniE008 uniE009 uniE010 uniE011 uniE012 uniE013 uniE014 uniE015 uniE016 uniE017 uniE018 uniE019 uniE020 uniE021 uniE022";
name = tnum1;
},
{
code = "zero one two three four five six seven eight nine period comma colon semicolon quotesingle quotedbl quoteright quotedblright quoteleft quotedblleft quotesinglbase quotedblbase colon.uc";
name = pnum1;
}
);
copyright = "Copyright (c) 2021-2022, Dmitri Voloshin, Andrey Kudryavtsev";
designer = "Andrey Kudryavtsev";
designerURL = "https://onest.md";
familyName = Onest;
customParameters = (
{
name = glyphOrder;
value = (
.notdef,
uni0000,
uni000D,
space,
B,
D,
E,
F,
H,
I,
L,
M,
N,
P,
R,
U,
V,
W,
X,
Y,
Z,
b,
d,
h,
i,
l,
m,
n,
p,
q,
u,
v,
w,
x,
z,
period,
comma,
A,
breve,
circumflex,
uni0326,
abreve,
acircumflex,
Abreve,
Acircumflex,
Icircumflex,
exclam,
quotedbl,
quotesingle,
numbersign,
percent,
asterisk,
plus,
slash,
colon,
semicolon,
less,
equal,

glyphs = (
{
color = (153, 255, 194, 255);
glyphname = B;
layers = (
{
layerId = "DD39FC45-FCD0-450F-8BE5-088D761CC1D8";
paths = (
{
closed = 1;
nodes = (
"86 707 LINE",
"334 707 LINE",
"385 707 OFFCURVE",
"468 695 OFFCURVE",
"501 673 QCURVE",
"530 654 OFFCURVE",
"570 584 OFFCURVE",
"570 530 QCURVE",
"570 476 OFFCURVE",
"521 392 OFFCURVE",
"470 372 QCURVE",
"538 360 OFFCURVE",
"606 269 OFFCURVE",
"606 197 QCURVE",
"603 131 OFFCURVE",
"553 57 OFFCURVE",
"475 15 OFFCURVE",
"378 0 OFFCURVE",
"329 0 QCURVE",
"86 0 LINE"
);
},
{
closed = 1;
nodes = (
"173 628 LINE",
"173 397 LINE",
"309 397 LINE",
"337 397 OFFCURVE",
"397 405 OFFCURVE",
"421 418 QCURVE",
"449 432 OFFCURVE",
"484 481 OFFCURVE",
"485 524 QCURVE",
"485 558 OFFCURVE",
"461 599 OFFCURVE",
"419 621 OFFCURVE",
"365 628 OFFCURVE",
"335 628 QCURVE"
);
},
{
closed = 1;
nodes = (
"326 79 LINE",
"358 79 OFFCURVE",
"423 85 OFFCURVE",
"482 110 OFFCURVE",
"518 159 OFFCURVE",
"518 201 QCURVE",
"518 237 OFFCURVE",
"491 283 OFFCURVE",
"446 309 OFFCURVE",
"388 319 OFFCURVE",
"358 319 QCURVE",
"173 319 LINE",
"173 79 LINE"
);
}
);
width = 655;
}
);
leftKerningGroup = _kern1;
unicode = 0042;
},
{
color = (153, 255, 194, 255);
glyphname = D;
layers = (
{
layerId = "DD39FC45-FCD0-450F-8BE5-088D761CC1D8";
paths = (
{
closed = 1;
nodes = (
"87 707 LINE",
"338 707 LINE",
"420 707 OFFCURVE",
"545 656 OFFCURVE",
"629 563 OFFCURVE",
"671 432 OFFCURVE",
"671 353 QCURVE",
"670 274 OFFCURVE",
"628 144 OFFCURVE",
"545 51 OFFCURVE",
"421 0 OFFCURVE",
"338 0 QCURVE",
"87 0 LINE"
);
},
{
closed = 1;
nodes = (
"174 628 LINE",
"174 79 LINE",
"332 79 LINE",
"386 79 OFFCURVE",
"485 112 OFFCURVE",
"520 154 QCURVE",
"552 191 OFFCURVE",
"582 292 OFFCURVE",
"582 353 QCURVE",
"582 416 OFFCURVE",
"552 514 OFFCURVE",
"492 586 OFFCURVE",
"400 628 OFFCURVE",
"337 628 QCURVE"
);
}
);
width = 720;
}
);
leftKerningGroup = _kern1;
rightKerningGroup = _kern4;
unicode = 0044;
},
{
color = (153, 255, 194, 255);
glyphname = E;
layers = (
{
layerId = "DD39FC45-FCD0-450F-8BE5-088D761CC1D8";
paths = (
{
closed = 1;
nodes = (
"87 707 LINE",
"562 707 LINE",
"562 628 LINE",
"174 628 LINE",
"174 390 LINE",
"523 390 LINE",
"523 310 LINE",
"174 310 LINE",
"174 79 LINE",
"562 79 LINE",
"562 0 LINE",
"87 0 LINE"
);
}
);
width = 610;
}
);
leftKerningGroup = _kern1;
unicode = 0045;
},
{
color = (153, 255, 194, 255);
glyphname = F;
layers = (
{
layerId = "DD39FC45-FCD0-450F-8BE5-088D761CC1D8";
paths = (
{
closed = 1;
nodes = (
"87 0 LINE",
"87 707 LINE",
"562 707 LINE",
"562 628 LINE",
"174 628 LINE",
"174 363 LINE",
"513 363 LINE",
"513 283 LINE",
"174 283 LINE",
"174 0 LINE"
);
}
);
width = 599;
}
);
leftKerningGroup = _kern1;
unicode = 0046;
},
{
color = (153, 255, 194, 255);
glyphname = H;
layers = (
{
layerId = "DD39FC45-FCD0-450F-8BE5-088D761CC1D8";
paths = (
{
closed = 1;
nodes = (
"553 387 LINE",
"553 707 LINE",
"640 707 LINE",
"640 0 LINE",
"553 0 LINE",
"553 307 LINE",
"174 307 LINE",
"174 0 LINE",
"87 0 LINE",
"87 707 LINE",
"174 707 LINE",
"174 387 LINE"
);
}
);
width = 727;
}
);
leftKerningGroup = _kern1;
rightKerningGroup = _kern2;
unicode = 0048;
},
{
color = (153, 255, 194, 255);
glyphname = I;
layers = (
{
layerId = "DD39FC45-FCD0-450F-8BE5-088D761CC1D8";
paths = (
{
closed = 1;
nodes = (
"174 0 LINE",
"87 0 LINE",
"87 707 LINE",
"174 707 LINE"
);
}
);
width = 261;
}
);
leftKerningGroup = _kern1;
rightKerningGroup = _kern2;
unicode = 0049;
},
{
color = (153, 255, 194, 255);
glyphname = L;
layers = (
{
layerId = "DD39FC45-FCD0-450F-8BE5-088D761CC1D8";
paths = (
{
closed = 1;
nodes = (
"87 707 LINE",
"174 707 LINE",
"174 79 LINE",
"562 79 LINE",
"562 0 LINE",
"87 0 LINE"
);
}
);
width = 574;
}
);
unicode = 004C;
},
{
color = (153, 255, 194, 255);
glyphname = M;
layers = (
{
layerId = "DD39FC45-FCD0-450F-8BE5-088D761CC1D8";
paths = (
{
closed = 1;
nodes = (
"87 0 LINE",
"87 707 LINE",
"219 707 LINE",
"431 318 LINE",
"640 707 LINE",
"769 707 LINE",
"769 0 LINE",
"682 0 LINE",
"682 615 LINE",
"449 185 LINE",
"409 185 LINE",
"174 615 LINE",
"174 0 LINE"
);
}
);
width = 856;
}
);
leftKerningGroup = _kern1;
rightKerningGroup = _kern2;
unicode = 004D;
},
{
color = (153, 255, 194, 255);
glyphname = N;
layers = (
{
layerId = "DD39FC45-FCD0-450F-8BE5-088D761CC1D8";
paths = (
{
closed = 1;
nodes = (
"87 0 LINE",
"87 707 LINE",
"198 707 LINE",
"567 118 LINE",
"567 707 LINE",
"654 707 LINE",
"654 0 LINE",
"545 0 LINE",
"174 587 LINE",
"174 0 LINE"
);
}
);
width = 741;
}
);
leftKerningGroup = _kern1;
rightKerningGroup = _kern2;
unicode = 004E;
},
{
color = (153, 255, 194, 255);
glyphname = P;
layers = (
{
layerId = "DD39FC45-FCD0-450F-8BE5-088D761CC1D8";
paths = (
{
closed = 1;
nodes = (
"87 707 LINE",
"332 707 LINE",
"449 707 OFFCURVE",
"581 592 OFFCURVE",
"581 472 QCURVE",
"581 411 OFFCURVE",
"538 319 OFFCURVE",
"500 289 QCURVE",
"468 263 OFFCURVE",
"372 233 OFFCURVE",
"314 233 QCURVE",
"174 233 LINE",
"174 0 LINE",
"87 0 LINE"
);
},
{
closed = 1;
nodes = (
"310 312 LINE",
"348 312 OFFCURVE",
"420 331 OFFCURVE",
"443 352 QCURVE",
"466 372 OFFCURVE",
"492 430 OFFCURVE",
"492 476 QCURVE",
"492 628 OFFCURVE",
"328 628 QCURVE",
"174 628 LINE",
"174 312 LINE"
);
}
);
width = 630;
}
);
leftKerningGroup = _kern1;
unicode = 0050;
},
{
color = (153, 255, 194, 255);
glyphname = R;
layers = (
{
layerId = "DD39FC45-FCD0-450F-8BE5-088D761CC1D8";
paths = (
{
closed = 1;
nodes = (
"174 265 LINE",
"174 0 LINE",
"87 0 LINE",
"87 707 LINE",
"352 707 LINE",
"410 707 OFFCURVE",
"504 683 OFFCURVE",
"570 631 OFFCURVE",
"605 546 OFFCURVE",
"605 486 QCURVE",
"605 442 OFFCURVE",
"579 373 OFFCURVE",
"536 322 OFFCURVE",
"478 289 OFFCURVE",
"447 280 QCURVE",
"595 0 LINE",
"500 0 LINE",
"359 265 LINE"
);
},
{
closed = 1;
nodes = (
"324 344 LINE",
"363 344 OFFCURVE",
"432 356 OFFCURVE",
"484 388 OFFCURVE",
"515 443 OFFCURVE",
"516 489 QCURVE",
"516 565 OFFCURVE",
"427 628 OFFCURVE",
"343 628 QCURVE",
"174 628 LINE",
"174 344 LINE"
);
}
);
width = 658;
}
);
leftKerningGroup = _kern1;
unicode = 0052;
},
{
color = (153, 255, 194, 255);
glyphname = U;
layers = (
{
layerId = "DD39FC45-FCD0-450F-8BE5-088D761CC1D8";
paths = (
{
closed = 1;
nodes = (
"644 707 LINE",
"644 305 LINE",
"644 238 OFFCURVE",
"612 124 OFFCURVE",
"543 40 OFFCURVE",
"437 -8 OFFCURVE",
"363 -8 QCURVE",
"289 -8 OFFCURVE",
"182 39 OFFCURVE",
"114 123 OFFCURVE",
"82 237 OFFCURVE",
"82 305 QCURVE",
"82 707 LINE",
"169 707 LINE",
"169 306 LINE",
"169 258 OFFCURVE",
"189 172 OFFCURVE",
"235 108 OFFCURVE",
"310 71 OFFCURVE",
"364 71 QCURVE",
"418 71 OFFCURVE",
"492 108 OFFCURVE",
"537 173 OFFCURVE",
"556 258 OFFCURVE",
"556 306 QCURVE",
"556 707 LINE"
);
}
);
width = 726;
}
);
unicode = 0055;
},
{
color = (153, 255, 194, 255);
glyphname = V;
layers = (
{
layerId = "DD39FC45-FCD0-450F-8BE5-088D761CC1D8";
paths = (
{
closed = 1;
nodes = (
"109 707 LINE",
"342 75 LINE",
"575 707 LINE",
"669 707 LINE",
"405 0 LINE",
"279 0 LINE",
"14 707 LINE"
);
}
);
width = 683;
}
);
unicode = 0056;
},
{
color = (153, 255, 194, 255);
glyphname = W;
layers = (
{
layerId = "DD39FC45-FCD0-450F-8BE5-088D761CC1D8";
paths = (
{
closed = 1;
nodes = (
"560 707 LINE",
"714 75 LINE",
"875 707 LINE",
"969 707 LINE",
"777 0 LINE",
"645 0 LINE",
"491 624 LINE",
"337 0 LINE",
"206 0 LINE",
"14 707 LINE",
"112 707 LINE",
"273 75 LINE",
"427 707 LINE"
);
}
);
width = 983;
}
);
leftKerningGroup = _kern19;
rightKerningGroup = _kern19;
unicode = 0057;
},
{
color = (153, 255, 194, 255);
glyphname = X;
layers = (
{
layerId = "DD39FC45-FCD0-450F-8BE5-088D761CC1D8";
paths = (
{
closed = 1;
nodes = (
"466 707 LINE",
"571 707 LINE",
"351 356 LINE",
"579 0 LINE",
"474 0 LINE",
"296 283 LINE",
"116 0 LINE",
"14 0 LINE",
"241 353 LINE",
"21 707 LINE",
"127 707 LINE",
"297 425 LINE"
);
}
);
width = 593;
}
);
unicode = 0058;
},
{
color = (153, 255, 194, 255);
glyphname = Y;
layers = (
{
layerId = "DD39FC45-FCD0-450F-8BE5-088D761CC1D8";
paths = (
{
closed = 1;
nodes = (
"501 707 LINE",
"600 707 LINE",
"351 266 LINE",
"351 0 LINE",
"264 0 LINE",
"264 265 LINE",
"14 707 LINE",
"115 707 LINE",
"309 353 LINE"
);
}
);
width = 614;
}
);
leftKerningGroup = _kern31;
rightKerningGroup = _kern31;
unicode = 0059;
},
{
color = (153, 255, 194, 255);
glyphname = Z;
layers = (
{
layerId = "DD39FC45-FCD0-450F-8BE5-088D761CC1D8";
paths = (
{
closed = 1;
nodes = (
"57 628 LINE",
"57 707 LINE",
"553 707 LINE",
"553 639 LINE",
"156 79 LINE",
"546 79 LINE",
"546 0 LINE",
"44 0 LINE",
"44 69 LINE",
"436 628 LINE"
);
}
);
width = 597;
}
);
unicode = 005A;
},
{
color = (153, 255, 194, 255);
glyphname = b;
layers = (
{
layerId = "DD39FC45-FCD0-450F-8BE5-088D761CC1D8";
paths = (
{
closed = 1;
nodes = (
"67 0 LINE",
"67 707 LINE",
"152 707 LINE",
"152 449 LINE",
"178 489 OFFCURVE",
"275 534 OFFCURVE",
"326 533 QCURVE",
"386 533 OFFCURVE",
"473 491 OFFCURVE",
"530 419 OFFCURVE",
"557 320 OFFCURVE",
"557 263 QCURVE",
"557 206 OFFCURVE",
"530 109 OFFCURVE",
"472 37 OFFCURVE",
"383 -5 OFFCURVE",
"322 -6 QCURVE",
"311 -6 LINE",
"257 -6 OFFCURVE",
"178 32 OFFCURVE",
"152 64 QCURVE",
"148 0 LINE"
);
},
{
closed = 1;
nodes = (
"358 69 OFFCURVE",
"417 100 OFFCURVE",
"454 153 OFFCURVE",
"471 223 OFFCURVE",
"472 263 QCURVE",
"472 303 OFFCURVE",
"455 374 OFFCURVE",
"417 426 OFFCURVE",
"356 457 OFFCURVE",
"313 457 QCURVE",
"289 457 OFFCURVE",
"243 441 OFFCURVE",
"207 414 OFFCURVE",
"180 380 OFFCURVE",
"171 361 QCURVE",
"160 338 OFFCURVE",
"150 286 OFFCURVE",
"150 262 QCURVE",
"150 236 OFFCURVE",
"157 181 OFFCURVE",
"169 158 QCURVE",
"187 120 OFFCURVE",
"261 69 OFFCURVE",
"315 69 QCURVE"
);
}
);
width = 604;
}
);
rightKerningGroup = _kern6;
unicode = 0062;
},
{
color = (153, 255, 194, 255);
glyphname = d;
layers = (
{
layerId = "DD39FC45-FCD0-450F-8BE5-088D761CC1D8";
paths = (
{
closed = 1;
nodes = (
"537 0 LINE",
"456 0 LINE",
"452 79 LINE",
"425 34 OFFCURVE",
"330 -6 OFFCURVE",
"278 -6 QCURVE",
"218 -5 OFFCURVE",
"130 36 OFFCURVE",
"74 108 OFFCURVE",
"47 205 OFFCURVE",
"47 262 QCURVE",
"47 319 OFFCURVE",
"75 418 OFFCURVE",
"133 491 OFFCURVE",
"221 533 OFFCURVE",
"282 533 QCURVE",
"328 533 OFFCURVE",
"422 499 OFFCURVE",
"452 461 QCURVE",
"452 707 LINE",
"537 707 LINE"
);
},
{
closed = 1;
nodes = (
"246 457 OFFCURVE",
"186 426 OFFCURVE",
"149 374 OFFCURVE",
"132 303 OFFCURVE",
"132 261 QCURVE",
"132 219 OFFCURVE",
"148 152 OFFCURVE",
"186 100 OFFCURVE",
"246 69 OFFCURVE",
"290 69 QCURVE",
"341 69 OFFCURVE",
"407 117 OFFCURVE",
"427 153 QCURVE",
"441 178 OFFCURVE",
"453 237 OFFCURVE",
"453 266 QCURVE",
"453 302 OFFCURVE",
"440 362 OFFCURVE",
"423 388 QCURVE",
"403 417 OFFCURVE",
"337 457 OFFCURVE",
"289 457 QCURVE"
);
}
);
width = 604;
}
);
leftKerningGroup = _kern5;
unicode = 0064;
},
{
color = (153, 255, 194, 255);
glyphname = h;
layers = (
{
layerId = "DD39FC45-FCD0-450F-8BE5-088D761CC1D8";
paths = (
{
closed = 1;
nodes = (
"67 0 LINE",
"67 707 LINE",
"152 707 LINE",
"152 446 LINE",
"165 466 OFFCURVE",
"205 500 OFFCURVE",
"249 522 OFFCURVE",
"302 533 OFFCURVE",
"327 533 QCURVE",
"384 533 OFFCURVE",
"461 496 OFFCURVE",
"508 431 OFFCURVE",
"527 342 OFFCURVE",
"527 290 QCURVE",
"527 0 LINE",
"442 0 LINE",
"442 264 LINE",
"442 300 OFFCURVE",
"434 369 OFFCURVE",
"406 423 OFFCURVE",
"354 458 OFFCURVE",
"309 458 QCURVE",
"272 458 OFFCURVE",
"209 421 OFFCURVE",
"190 393 QCURVE",
"167 362 OFFCURVE",
"152 286 OFFCURVE",
"152 246 QCURVE",
"152 0 LINE"
);
}
);
width = 591;
}
);
unicode = 0068;
},
{
color = (153, 255, 194, 255);
glyphname = i;
layers = (
{
layerId = "DD39FC45-FCD0-450F-8BE5-088D761CC1D8";
paths = (
{
closed = 1;
nodes = (
"140 720 OFFCURVE",
"174 689 OFFCURVE",
"174 664 QCURVE",
"174 639 OFFCURVE",
"140 607 OFFCURVE",
"116 607 QCURVE",
"91 607 OFFCURVE",
"59 639 OFFCURVE",
"59 664 QCURVE",
"59 689 OFFCURVE",
"91 720 OFFCURVE",
"116 720 QCURVE"
);
},
{
closed = 1;
nodes = (
"74 0 LINE",
"74 527 LINE",
"159 527 LINE",
"159 0 LINE"
);
}
);
width = 233;
}
);
unicode = 0069;
},
{
color = (153, 255, 194, 255);
glyphname = l;
layers = (
{
layerId = "DD39FC45-FCD0-450F-8BE5-088D761CC1D8";
paths = (
{
closed = 1;
nodes = (
"67 0 LINE",
"67 707 LINE",
"152 707 LINE",
"152 0 LINE"
);
}
);
width = 219;
}
);
unicode = 006C;
},
{
color = (153, 255, 194, 255);
glyphname = m;
layers = (
{
layerId = "DD39FC45-FCD0-450F-8BE5-088D761CC1D8";
paths = (
{
closed = 1;
nodes = (
"153 464 LINE",
"178 499 OFFCURVE",
"251 533 OFFCURVE",
"296 533 QCURVE",
"351 532 OFFCURVE",
"419 486 OFFCURVE",
"436 448 QCURVE",
"463 488 OFFCURVE",
"542 533 OFFCURVE",
"596 533 QCURVE",
"639 533 OFFCURVE",
"701 504 OFFCURVE",
"739 453 OFFCURVE",
"757 385 OFFCURVE",
"757 345 QCURVE",
"757 0 LINE",
"672 0 LINE",
"672 302 LINE",
"672 328 OFFCURVE",
"667 383 OFFCURVE",
"647 428 OFFCURVE",
"607 458 OFFCURVE",
"573 458 QCURVE",
"542 458 OFFCURVE",
"494 426 OFFCURVE",
"467 376 OFFCURVE",
"455 316 OFFCURVE",
"455 287 QCURVE",
"455 0 LINE",
"370 0 LINE",
"370 303 LINE",
"370 328 OFFCURVE",
"366 383 OFFCURVE",
"347 428 OFFCURVE",
"309 458 OFFCURVE",
"275 458 QCURVE",
"239 458 OFFCURVE",
"192 425 OFFCURVE",
"163 375 OFFCURVE",
"152 314 OFFCURVE",
"152 286 QCURVE",
"152 0 LINE",
"67 0 LINE",
"67 527 LINE",
"149 527 LINE"
);
}
);
width = 819;
}
);
unicode = 006D;
},
{
color = (153, 255, 194, 255);
glyphname = n;
layers = (
{
layerId = "DD39FC45-FCD0-450F-8BE5-088D761CC1D8";
paths = (
{
closed = 1;
nodes = (
"67 0 LINE",
"67 527 LINE",
"149 527 LINE",
"153 447 LINE",
"166 469 OFFCURVE",
"205 501 OFFCURVE",
"251 523 OFFCURVE",
"302 533 OFFCURVE",
"326 533 QCURVE",
"383 533 OFFCURVE",
"461 496 OFFCURVE",
"507 431 OFFCURVE",
"527 342 OFFCURVE",
"527 291 QCURVE",
"527 0 LINE",
"442 0 LINE",
"442 268 LINE",
"442 305 OFFCURVE",
"433 373 OFFCURVE",
"406 426 OFFCURVE",
"356 458 OFFCURVE",
"314 458 QCURVE",
"274 458 OFFCURVE",
"210 419 OFFCURVE",
"191 393 QCURVE",
"168 360 OFFCURVE",
"152 281 OFFCURVE",
"152 241 QCURVE",
"152 0 LINE"
);
}
);
width = 591;
}
);
unicode = 006E;
},
{
color = (153, 255, 194, 255);
glyphname = p;
layers = (
{
layerId = "DD39FC45-FCD0-450F-8BE5-088D761CC1D8";
paths = (
{
closed = 1;
nodes = (
"67 -190 LINE",
"67 527 LINE",
"148 527 LINE",
"152 448 LINE",
"179 489 OFFCURVE",
"272 532 OFFCURVE",
"326 533 QCURVE",
"387 533 OFFCURVE",
"472 492 OFFCURVE",
"529 419 OFFCURVE",
"557 320 OFFCURVE",
"557 263 QCURVE",
"557 205 OFFCURVE",
"529 107 OFFCURVE",
"471 35 OFFCURVE",
"383 -6 OFFCURVE",
"322 -6 QCURVE",
"262 -6 OFFCURVE",
"178 32 OFFCURVE",
"152 66 QCURVE",
"152 -190 LINE"
);
},
{
closed = 1;
nodes = (
"358 69 OFFCURVE",
"417 100 OFFCURVE",
"454 153 OFFCURVE",
"471 223 OFFCURVE",
"472 263 QCURVE",
"472 303 OFFCURVE",
"455 374 OFFCURVE",
"417 426 OFFCURVE",
"356 457 OFFCURVE",
"313 457 QCURVE",
"262 457 OFFCURVE",
"188 402 OFFCURVE",
"169 360 QCURVE",
"158 337 OFFCURVE",
"150 288 OFFCURVE",
"150 262 QCURVE",
"150 232 OFFCURVE",
"158 181 OFFCURVE",
"169 158 QCURVE",
"188 120 OFFCURVE",
"261 69 OFFCURVE",
"315 69 QCURVE"
);
}
);
width = 604;
}
);
rightKerningGroup = _kern6;
unicode = 0070;
},
{
color = (153, 255, 194, 255);
glyphname = q;
layers = (
{
layerId = "DD39FC45-FCD0-450F-8BE5-088D761CC1D8";
paths = (
{
closed = 1;
nodes = (
"537 -190 LINE",
"452 -190 LINE",
"452 79 LINE",
"426 33 OFFCURVE",
"330 -6 OFFCURVE",
"278 -6 QCURVE",
"218 -5 OFFCURVE",
"130 36 OFFCURVE",
"74 108 OFFCURVE",
"47 205 OFFCURVE",
"47 262 QCURVE",
"47 319 OFFCURVE",
"75 418 OFFCURVE",
"133 491 OFFCURVE",
"221 533 OFFCURVE",
"282 533 QCURVE",
"328 533 OFFCURVE",
"422 499 OFFCURVE",
"452 461 QCURVE",
"456 527 LINE",
"537 527 LINE"
);
},
{
closed = 1;
nodes = (
"246 457 OFFCURVE",
"186 426 OFFCURVE",
"149 374 OFFCURVE",
"132 303 OFFCURVE",
"132 263 QCURVE",
"132 219 OFFCURVE",
"148 152 OFFCURVE",
"186 100 OFFCURVE",
"246 69 OFFCURVE",
"290 69 QCURVE",
"341 69 OFFCURVE",
"407 117 OFFCURVE",
"427 153 QCURVE",
"441 178 OFFCURVE",
"453 236 OFFCURVE",
"453 266 QCURVE",
"453 302 OFFCURVE",
"440 362 OFFCURVE",
"423 388 QCURVE",
"403 417 OFFCURVE",
"337 457 OFFCURVE",
"289 457 QCURVE"
);
}
);
width = 604;
}
);
leftKerningGroup = _kern5;
unicode = 0071;
},
{
color = (153, 255, 194, 255);
glyphname = u;
layers = (
{
layerId = "DD39FC45-FCD0-450F-8BE5-088D761CC1D8";
paths = (
{
closed = 1;
nodes = (
"359 69 OFFCURVE",
"426 156 OFFCURVE",
"426 234 QCURVE",
"426 527 LINE",
"511 527 LINE",
"511 230 LINE",
"511 110 OFFCURVE",
"396 -6 OFFCURVE",
"287 -6 QCURVE",
"178 -6 OFFCURVE",
"65 110 OFFCURVE",
"65 230 QCURVE",
"65 527 LINE",
"150 527 LINE",
"150 234 LINE",
"150 156 OFFCURVE",
"218 69 OFFCURVE",
"287 69 QCURVE"
);
}
);
width = 576;
}
);
unicode = 0075;
},
{
color = (153, 255, 194, 255);
glyphname = v;
layers = (
{
layerId = "DD39FC45-FCD0-450F-8BE5-088D761CC1D8";
paths = (
{
closed = 1;
nodes = (
"7 527 LINE",
"103 527 LINE",
"269 82 LINE",
"432 527 LINE",
"529 527 LINE",
"326 0 LINE",
"210 0 LINE"
);
}
);
width = 536;
}
);
unicode = 0076;
},
{
color = (153, 255, 194, 255);
glyphname = w;
layers = (
{
layerId = "DD39FC45-FCD0-450F-8BE5-088D761CC1D8";
paths = (
{
closed = 1;
nodes = (
"12 527 LINE",
"108 527 LINE",
"234 82 LINE",
"364 527 LINE",
"479 527 LINE",
"610 82 LINE",
"734 527 LINE",
"831 527 LINE",
"667 0 LINE",
"551 0 LINE",
"421 427 LINE",
"291 0 LINE",
"176 0 LINE"
);
}
);
width = 843;
}
);
leftKerningGroup = _kern20;
rightKerningGroup = _kern20;
unicode = 0077;
},
{
color = (153, 255, 194, 255);
glyphname = x;
layers = (
{
layerId = "DD39FC45-FCD0-450F-8BE5-088D761CC1D8";
paths = (
{
closed = 1;
nodes = (
"254 201 LINE",
"110 0 LINE",
"14 0 LINE",
"202 269 LINE",
"23 527 LINE",
"125 527 LINE",
"259 327 LINE",
"389 527 LINE",
"488 527 LINE",
"310 266 LINE",
"501 0 LINE",
"400 0 LINE"
);
}
);
width = 515;
}
);
unicode = 0078;
},
{
color = (153, 255, 194, 255);
glyphname = z;
layers = (
{
layerId = "DD39FC45-FCD0-450F-8BE5-088D761CC1D8";
paths = (
{
closed = 1;
nodes = (
"471 456 LINE",
"153 74 LINE",
"471 74 LINE",
"471 0 LINE",
"47 0 LINE",
"47 72 LINE",
"362 452 LINE",
"47 452 LINE",
"47 527 LINE",
"471 527 LINE"
);
}
);
width = 518;
}
);
unicode = 007A;
},
{
color = (153, 255, 194, 255);
glyphname = period;
layers = (
{
layerId = "DD39FC45-FCD0-450F-8BE5-088D761CC1D8";
paths = (
{
closed = 1;
nodes = (
"153 112 OFFCURVE",
"187 78 OFFCURVE",
"187 52 QCURVE",
"187 26 OFFCURVE",
"153 -8 OFFCURVE",
"127 -8 QCURVE",
"101 -8 OFFCURVE",
"67 26 OFFCURVE",
"67 52 QCURVE",
"67 78 OFFCURVE",
"101 112 OFFCURVE",
"127 112 QCURVE"
);
}
);
width = 254;
}
);
leftKerningGroup = _kern14;
rightKerningGroup = _kern14;
unicode = 002E;
},
{
color = (153, 255, 194, 255);
glyphname = comma;
layers = (
{
layerId = "DD39FC45-FCD0-450F-8BE5-088D761CC1D8";
paths = (
{
closed = 1;
nodes = (
"102 0 OFFCURVE",
"70 30 OFFCURVE",
"70 55 QCURVE",
"71 81 OFFCURVE",
"106 112 OFFCURVE",
"129 112 QCURVE",
"158 112 OFFCURVE",
"193 70 OFFCURVE",
"193 32 QCURVE",
"193 11 OFFCURVE",
"176 -40 OFFCURVE",
"148 -82 OFFCURVE",
"111 -114 OFFCURVE",
"91 -121 QCURVE",
"67 -88 LINE",
"87 -74 OFFCURVE",
"122 -26 OFFCURVE",
"128 -2 QCURVE"
);
}
);
width = 261;
}
);
leftKerningGroup = _kern14;
rightKerningGroup = _kern14;
unicode = 002C;
},
{
color = (153, 255, 194, 255);
glyphname = A;
layers = (
{
layerId = "DD39FC45-FCD0-450F-8BE5-088D761CC1D8";
paths = (
{
closed = 1;
nodes = (
"566 0 LINE",
"510 152 LINE",
"160 152 LINE",
"104 0 LINE",
"10 0 LINE",
"273 707 LINE",
"398 707 LINE",
"660 0 LINE"
);
},
{
closed = 1;
nodes = (
"335 631 LINE",
"189 231 LINE",
"481 231 LINE"
);
}
);
width = 670;
}
);
leftKerningGroup = _kern30;
rightKerningGroup = _kern30;
unicode = 0041;
},
{
color = (153, 255, 194, 255);
glyphname = breve;
layers = (
{
layerId = "DD39FC45-FCD0-450F-8BE5-088D761CC1D8";
paths = (
{
closed = 1;
nodes = (
"326 667 OFFCURVE",
"375 699 OFFCURVE",
"377 734 QCURVE",
"455 734 LINE",
"453 669 OFFCURVE",
"362 601 OFFCURVE",
"283 601 QCURVE",
"204 601 OFFCURVE",
"115 669 OFFCURVE",
"113 734 QCURVE",
"191 734 LINE",
"193 699 OFFCURVE",
"242 667 OFFCURVE",
"284 667 QCURVE"
);
}
);
width = 569;
}
);
unicode = 02D8;
},
{
color = (153, 255, 194, 255);
glyphname = circumflex;
layers = (
{
layerId = "DD39FC45-FCD0-450F-8BE5-088D761CC1D8";
paths = (
{
closed = 1;
nodes = (
"309 769 LINE",
"443 606 LINE",
"357 606 LINE",
"279 702 LINE",
"201 606 LINE",
"116 606 LINE",
"249 769 LINE"
);
}
);
width = 559;
}
);
unicode = 02C6;
},
{
color = (153, 255, 194, 255);
glyphname = uni0326;
layers = (
{
layerId = "DD39FC45-FCD0-450F-8BE5-088D761CC1D8";
paths = (
{
closed = 1;
nodes = (
"-325 -213 OFFCURVE",
"-357 -183 OFFCURVE",
"-357 -158 QCURVE",
"-357 -130 OFFCURVE",
"-321 -100 OFFCURVE",
"-297 -100 QCURVE",
"-264 -100 OFFCURVE",
"-232 -148 OFFCURVE",
"-234 -179 QCURVE",
"-234 -206 OFFCURVE",
"-251 -253 OFFCURVE",
"-279 -295 OFFCURVE",
"-316 -327 OFFCURVE",
"-336 -334 QCURVE",
"-360 -301 LINE",
"-340 -287 OFFCURVE",
"-305 -239 OFFCURVE",
"-299 -215 QCURVE"
);
}
);
width = 0;
}
);
unicode = 0326;
},
{
color = (153, 255, 194, 255);
glyphname = abreve;
layers = (
{
layerId = "DD39FC45-FCD0-450F-8BE5-088D761CC1D8";
paths = (
{
closed = 1;
nodes = (
"327 667 OFFCURVE",
"374 698 OFFCURVE",
"376 740 QCURVE",
"454 740 LINE",
"454 737 LINE",
"454 669 OFFCURVE",
"363 604 OFFCURVE",
"289 604 QCURVE",
"207 604 OFFCURVE",
"118 667 OFFCURVE",
"118 740 QCURVE",
"196 740 LINE",
"196 698 OFFCURVE",
"244 667 OFFCURVE",
"287 667 QCURVE"
);
},
{
closed = 1;
nodes = (
"414 67 LINE",
"397 44 OFFCURVE",
"355 16 OFFCURVE",
"308 0 OFFCURVE",
"259 -6 OFFCURVE",
"236 -6 QCURVE",
"199 -6 OFFCURVE",
"132 13 OFFCURVE",
"80 52 OFFCURVE",
"49 112 OFFCURVE",
"49 150 QCURVE",
"49 195 OFFCURVE",
"82 256 OFFCURVE",
"138 294 OFFCURVE",
"211 309 OFFCURVE",
"252 309 QCURVE",
"407 309 LINE",
"407 376 OFFCURVE",
"349 455 OFFCURVE",
"280 457 QCURVE",
"238 457 OFFCURVE",
"174 429 OFFCURVE",
"162 397 QCURVE",
"71 397 LINE",
"78 433 OFFCURVE",
"120 484 OFFCURVE",
"178 517 OFFCURVE",
"246 533 OFFCURVE",
"280 533 QCURVE",
"339 533 OFFCURVE",
"420 494 OFFCURVE",
"470 431 OFFCURVE",
"490 341 OFFCURVE",
"490 285 QCURVE",
"490 0 LINE",
"419 0 LINE"
);
},
{
closed = 1;
nodes = (
"314 238 LINE",
"290 238 OFFCURVE",
"227 237 OFFCURVE",
"169 225 OFFCURVE",
"134 187 OFFCURVE",
"134 156 QCURVE",
"134 133 OFFCURVE",
"152 101 OFFCURVE",
"183 79 OFFCURVE",
"223 69 OFFCURVE",
"244 69 QCURVE",
"319 69 OFFCURVE",
"406 142 OFFCURVE",
"407 212 QCURVE",
"407 238 LINE"
);
}
);
width = 555;
}
);
leftKerningGroup = _kern27;
rightKerningGroup = _kern27;
unicode = 0103;
},
{
color = (153, 255, 194, 255);
glyphname = acircumflex;
layers = (
{
layerId = "DD39FC45-FCD0-450F-8BE5-088D761CC1D8";
paths = (
{
closed = 1;
nodes = (
"414 67 LINE",
"397 44 OFFCURVE",
"355 16 OFFCURVE",
"308 0 OFFCURVE",
"259 -6 OFFCURVE",
"236 -6 QCURVE",
"199 -6 OFFCURVE",
"132 13 OFFCURVE",
"80 52 OFFCURVE",
"49 112 OFFCURVE",
"49 150 QCURVE",
"49 195 OFFCURVE",
"82 256 OFFCURVE",
"138 294 OFFCURVE",
"211 309 OFFCURVE",
"252 309 QCURVE",
"407 309 LINE",
"407 376 OFFCURVE",
"349 455 OFFCURVE",
"280 457 QCURVE",
"238 457 OFFCURVE",
"174 429 OFFCURVE",
"162 397 QCURVE",
"71 397 LINE",
"78 433 OFFCURVE",
"120 484 OFFCURVE",
"178 517 OFFCURVE",
"246 533 OFFCURVE",
"280 533 QCURVE",
"339 533 OFFCURVE",
"420 494 OFFCURVE",
"470 431 OFFCURVE",
"490 341 OFFCURVE",
"490 285 QCURVE",
"490 0 LINE",
"419 0 LINE"
);
},
{
closed = 1;
nodes = (
"314 238 LINE",
"290 238 OFFCURVE",
"227 237 OFFCURVE",
"169 225 OFFCURVE",
"134 187 OFFCURVE",
"134 156 QCURVE",
"134 133 OFFCURVE",
"152 101 OFFCURVE",
"183 79 OFFCURVE",
"223 69 OFFCURVE",
"244 69 QCURVE",
"319 69 OFFCURVE",
"406 142 OFFCURVE",
"407 212 QCURVE",
"407 238 LINE"
);
},
{
closed = 1;
nodes = (
"313 769 LINE",
"447 606 LINE",
"361 606 LINE",
"283 702 LINE",
"205 606 LINE",
"120 606 LINE",
"253 769 LINE"
);
}
);
width = 555;
}
);
leftKerningGroup = _kern27;
rightKerningGroup = _kern27;
unicode = 00E2;
},
{
color = (153, 255, 194, 255);
glyphname = Abreve;
layers = (
{
layerId = "DD39FC45-FCD0-450F-8BE5-088D761CC1D8";
paths = (
{
closed = 1;
nodes = (
"660 0 LINE",
"566 0 LINE",
"510 152 LINE",
"160 152 LINE",
"104 0 LINE",
"10 0 LINE",
"273 707 LINE",
"398 707 LINE"
);
},
{
closed = 1;
nodes = (
"481 231 LINE",
"335 631 LINE",
"189 231 LINE"
);
},
{
closed = 1;
nodes = (
"379 860 OFFCURVE",
"428 892 OFFCURVE",
"430 927 QCURVE",
"508 927 LINE",
"506 862 OFFCURVE",
"415 794 OFFCURVE",
"336 794 QCURVE",
"257 794 OFFCURVE",
"168 862 OFFCURVE",
"166 927 QCURVE",
"244 927 LINE",
"246 892 OFFCURVE",
"295 860 OFFCURVE",
"337 860 QCURVE"
);
}
);
width = 670;
}
);
unicode = 0102;
},
{
color = (248, 153, 255, 255);
glyphname = Acircumflex;
layers = (
{
layerId = "DD39FC45-FCD0-450F-8BE5-088D761CC1D8";
paths = (
{
closed = 1;
nodes = (
"660 0 LINE",
"566 0 LINE",
"510 152 LINE",
"160 152 LINE",
"104 0 LINE",
"10 0 LINE",
"273 707 LINE",
"398 707 LINE"
);
},
{
closed = 1;
nodes = (
"481 231 LINE",
"335 631 LINE",
"189 231 LINE"
);
},
{
closed = 1;
nodes = (
"369 949 LINE",
"503 786 LINE",
"417 786 LINE",
"339 883 LINE",
"261 786 LINE",
"176 786 LINE",
"309 949 LINE"
);
}
);
width = 670;
}
);
leftKerningGroup = _kern30;
rightKerningGroup = _kern30;
unicode = 00C2;
},
{
color = (153, 255, 194, 255);
glyphname = Icircumflex;
layers = (
{
layerId = "DD39FC45-FCD0-450F-8BE5-088D761CC1D8";
paths = (
{
closed = 1;
nodes = (
"133 982 LINE",
"276 792 LINE",
"190 792 LINE",
"103 914 LINE",
"16 792 LINE",
"-69 792 LINE",
"73 982 LINE"
);
},
{
closed = 1;
nodes = (
"147 0 LINE",
"60 0 LINE",
"60 707 LINE",
"147 707 LINE"
);
}
);
width = 207;
}
);
leftKerningGroup = _kern1;
rightKerningGroup = _kern2;
unicode = 00CE;
},
{
color = (153, 255, 194, 255);
glyphname = exclam;
layers = (
{
layerId = "DD39FC45-FCD0-450F-8BE5-088D761CC1D8";
paths = (
{
closed = 1;
nodes = (
"99 220 LINE",
"87 707 LINE",
"184 707 LINE",
"172 220 LINE"
);
},
{
closed = 1;
nodes = (
"161 112 OFFCURVE",
"196 78 OFFCURVE",
"196 52 QCURVE",
"196 26 OFFCURVE",
"161 -8 OFFCURVE",
"136 -8 QCURVE",
"110 -8 OFFCURVE",
"77 26 OFFCURVE",
"77 52 QCURVE",
"77 78 OFFCURVE",
"110 112 OFFCURVE",
"136 112 QCURVE"
);
}
);
width = 273;
}
);
unicode = 0021;
},
{
color = (153, 255, 194, 255);
glyphname = quotedbl;
layers = (
{
layerId = "DD39FC45-FCD0-450F-8BE5-088D761CC1D8";
paths = (
{
closed = 1;
nodes = (
"134 471 LINE",
"72 471 LINE",
"59 707 LINE",
"147 707 LINE"
);
},
{
closed = 1;
nodes = (
"287 471 LINE",
"225 471 LINE",
"212 707 LINE",
"300 707 LINE"
);
}
);
width = 359;
}
);
unicode = 0022;
},
{
color = (153, 255, 194, 255);
glyphname = quotesingle;
layers = (
{
layerId = "DD39FC45-FCD0-450F-8BE5-088D761CC1D8";
paths = (
{
closed = 1;
nodes = (
"142 471 LINE",
"80 471 LINE",
"67 707 LINE",
"155 707 LINE"
);
}
);
width = 222;
}
);
unicode = 0027;
},
{
color = (153, 255, 194, 255);
glyphname = numbersign;
layers = (
{
layerId = "DD39FC45-FCD0-450F-8BE5-088D761CC1D8";
paths = (
{
closed = 1;
nodes = (
"193 527 LINE",
"211 707 LINE",
"296 707 LINE",
"277 527 LINE",
"413 527 LINE",
"433 707 LINE",
"517 707 LINE",
"498 527 LINE",
"594 527 LINE",
"594 448 LINE",
"489 448 LINE",
"469 259 LINE",
"565 259 LINE",
"565 179 LINE",
"460 179 LINE",
"441 0 LINE",
"357 0 LINE",
"376 179 LINE",
"239 179 LINE",
"220 0 LINE",
"135 0 LINE",
"155 179 LINE",
"59 179 LINE",
"59 259 LINE",
"163 259 LINE",
"184 448 LINE",
"88 448 LINE",
"88 527 LINE"
);
},
{
closed = 1;
nodes = (
"247 259 LINE",
"384 259 LINE",
"405 448 LINE",
"268 448 LINE"
);
}
);
width = 653;
}
);
unicode = 0023;
},
{
color = (153, 255, 194, 255);
glyphname = percent;
layers = (
{
layerId = "DD39FC45-FCD0-450F-8BE5-088D761CC1D8";
paths = (
{
closed = 1;
nodes = (
"169 402 OFFCURVE",
"114 426 OFFCURVE",
"78 469 OFFCURVE",
"59 526 OFFCURVE",
"59 559 QCURVE",
"59 593 OFFCURVE",
"78 650 OFFCURVE",
"115 692 OFFCURVE",
"169 715 OFFCURVE",
"205 715 QCURVE",
"275 715 OFFCURVE",
"349 628 OFFCURVE",
"349 559 QCURVE",
"349 526 OFFCURVE",
"330 469 OFFCURVE",
"294 426 OFFCURVE",
"240 402 OFFCURVE",
"205 402 QCURVE"
);
},
{
closed = 1;
nodes = (
"139 0 LINE",
"574 707 LINE",
"662 707 LINE",
"228 0 LINE"
);
},
{
closed = 1;
nodes = (
"165 644 OFFCURVE",
"131 592 OFFCURVE",
"131 559 QCURVE",
"131 524 OFFCURVE",
"165 473 OFFCURVE",
"205 473 QCURVE",
"243 473 OFFCURVE",
"275 525 OFFCURVE",
"275 559 QCURVE",
"275 592 OFFCURVE",
"243 644 OFFCURVE",
"205 644 QCURVE"
);
},
{
closed = 1;
nodes = (
"565 -6 OFFCURVE",
"510 18 OFFCURVE",
"473 61 OFFCURVE",
"454 118 OFFCURVE",
"454 151 QCURVE",
"454 185 OFFCURVE",
"473 242 OFFCURVE",
"511 284 OFFCURVE",
"565 307 OFFCURVE",
"601 307 QCURVE",
"635 307 OFFCURVE",
"689 284 OFFCURVE",
"726 242 OFFCURVE",
"745 185 OFFCURVE",
"745 151 QCURVE",
"745 118 OFFCURVE",
"726 61 OFFCURVE",
"689 18 OFFCURVE",
"635 -6 OFFCURVE",
"601 -6 QCURVE"
);
},
{
closed = 1;
nodes = (
"560 236 OFFCURVE",
"527 184 OFFCURVE",
"527 151 QCURVE",
"527 116 OFFCURVE",
"561 65 OFFCURVE",
"600 65 QCURVE",
"639 65 OFFCURVE",
"670 117 OFFCURVE",
"670 151 QCURVE",
"670 184 OFFCURVE",
"639 236 OFFCURVE",
"600 236 QCURVE"
);
}
);
width = 804;
}
);
unicode = 0025;
},
{
color = (153, 255, 194, 255);
glyphname = asterisk;
layers = (
{
layerId = "DD39FC45-FCD0-450F-8BE5-088D761CC1D8";
paths = (
{
closed = 1;
nodes = (
"236 730 LINE",
"236 633 LINE",
"327 663 LINE",
"345 609 LINE",
"253 579 LINE",
"310 501 LINE",
"264 467 LINE",
"207 545 LINE",
"150 467 LINE",
"104 501 LINE",
"161 579 LINE",
"69 609 LINE",
"86 663 LINE",
"178 633 LINE",
"178 730 LINE"
);
}
);
width = 414;
}
);
unicode = 002A;
},
{
color = (153, 255, 194, 255);
glyphname = plus;
layers = (
{
layerId = "DD39FC45-FCD0-450F-8BE5-088D761CC1D8";
paths = (
{
closed = 1;
nodes = (
"74 392 LINE",
"221 392 LINE",
"221 547 LINE",
"299 547 LINE",
"299 392 LINE",
"447 392 LINE",
"447 315 LINE",
"299 315 LINE",
"299 160 LINE",
"221 160 LINE",
"221 315 LINE",
"74 315 LINE"
);
}
);
width = 521;
}
);
unicode = 002B;
},
{
color = (153, 255, 194, 255);
glyphname = slash;
layers = (
{
layerId = "DD39FC45-FCD0-450F-8BE5-088D761CC1D8";
paths = (
{
closed = 1;
nodes = (
"348 801 LINE",
"438 801 LINE",
"129 -168 LINE",
"39 -168 LINE"
);
}
);
width = 477;
}
);
unicode = 002F;
},
{
color = (153, 255, 194, 255);
glyphname = colon;
layers = (
{
layerId = "DD39FC45-FCD0-450F-8BE5-088D761CC1D8";
paths = (
{
closed = 1;
nodes = (
"153 468 OFFCURVE",
"186 434 OFFCURVE",
"186 408 QCURVE",
"186 381 OFFCURVE",
"151 348 OFFCURVE",
"126 348 QCURVE",
"100 348 OFFCURVE",
"67 382 OFFCURVE",
"67 408 QCURVE",
"67 434 OFFCURVE",
"100 468 OFFCURVE",
"126 468 QCURVE"
);
},
{
closed = 1;
nodes = (
"153 112 OFFCURVE",
"186 78 OFFCURVE",
"186 52 QCURVE",
"186 26 OFFCURVE",
"151 -8 OFFCURVE",
"126 -8 QCURVE",
"100 -8 OFFCURVE",
"67 26 OFFCURVE",
"67 52 QCURVE",
"67 78 OFFCURVE",
"100 112 OFFCURVE",
"126 112 QCURVE"
);
}
);
width = 253;
}
);
leftKerningGroup = _kern15;
unicode = 003A;
},
{
color = (153, 255, 194, 255);
glyphname = semicolon;
layers = (
{
layerId = "DD39FC45-FCD0-450F-8BE5-088D761CC1D8";
paths = (
{
closed = 1;
nodes = (
"159 468 OFFCURVE",
"193 434 OFFCURVE",
"193 408 QCURVE",
"193 381 OFFCURVE",
"159 348 OFFCURVE",
"133 348 QCURVE",
"107 348 OFFCURVE",
"74 382 OFFCURVE",
"74 408 QCURVE",
"74 434 OFFCURVE",
"107 468 OFFCURVE",
"133 468 QCURVE"
);
},
{
closed = 1;
nodes = (
"102 -1 OFFCURVE",
"70 29 OFFCURVE",
"70 54 QCURVE",
"70 82 OFFCURVE",
"106 113 OFFCURVE",
"132 112 QCURVE",
"164 110 OFFCURVE",
"194 61 OFFCURVE",
"193 29 QCURVE",
"193 6 OFFCURVE",
"176 -41 OFFCURVE",
"148 -83 OFFCURVE",
"111 -115 OFFCURVE",
"91 -122 QCURVE",
"67 -89 LINE",
"87 -75 OFFCURVE",
"122 -27 OFFCURVE",
"128 -3 QCURVE"
);
}
);
width = 261;
}
);
leftKerningGroup = _kern15;
unicode = 003B;
},
{
color = (153, 255, 194, 255);
glyphname = less;
layers = (
{
layerId = "DD39FC45-FCD0-450F-8BE5-088D761CC1D8";
paths = (
{
closed = 1;
nodes = (
"39 372 LINE",
"377 602 LINE",
"377 509 LINE",
"136 351 LINE",
"377 192 LINE",
"377 99 LINE",
"39 329 LINE"
);
}
);
width = 446;
}
);
unicode = 003C;
},
{
color = (153, 255, 194, 255);
glyphname = equal;
layers = (
{
layerId = "DD39FC45-FCD0-450F-8BE5-088D761CC1D8";
paths = (
{
closed = 1;
nodes = (
"69 522 LINE",
"473 522 LINE",
"473 444 LINE",
"69 444 LINE"
);
},
{
closed = 1;
nodes = (
"69 263 LINE",
"473 263 LINE",
"473 185 LINE",
"69 185 LINE"
);
}
);
width = 542;
}
);
unicode = 003D;
},
{
color = (153, 255, 194, 255);
glyphname = greater;
layers = (
{
layerId = "DD39FC45-FCD0-450F-8BE5-088D761CC1D8";
paths = (
{
closed = 1;
nodes = (
"407 329 LINE",
"69 99 LINE",
"69 192 LINE",
"310 351 LINE",
"69 509 LINE",
"69 602 LINE",
"407 372 LINE"
);
}
);
width = 446;
}
);
unicode = 003E;
},
{
color = (153, 255, 194, 255);
glyphname = at;
layers = (
{
layerId = "DD39FC45-FCD0-450F-8BE5-088D761CC1D8";
paths = (
{
closed = 1;
nodes = (
"600 95 OFFCURVE",
"564 64 OFFCURVE",
"524 45 OFFCURVE",
"482 38 OFFCURVE",
"458 38 QCURVE",
"411 39 OFFCURVE",
"346 76 OFFCURVE",
"306 133 OFFCURVE",
"288 204 OFFCURVE",
"288 239 QCURVE",
"288 294 OFFCURVE",
"318 381 OFFCURVE",
"371 447 OFFCURVE",
"448 486 OFFCURVE",
"498 486 QCURVE",
"538 485 OFFCURVE",
"606 453 OFFCURVE",
"623 414 QCURVE",
"650 466 LINE",
"705 460 LINE",
"696 405 OFFCURVE",
"682 294 OFFCURVE",
"677 239 QCURVE",
"675 216 OFFCURVE",
"675 170 OFFCURVE",
"686 131 OFFCURVE",
"713 106 OFFCURVE",
"738 105 QCURVE",
"771 105 OFFCURVE",
"807 148 OFFCURVE",
"826 208 OFFCURVE",
"833 272 OFFCURVE",
"833 294 QCURVE",
"833 364 OFFCURVE",
"794 488 OFFCURVE",
"716 581 OFFCURVE",
"600 634 OFFCURVE",
"522 634 QCURVE",
"432 634 OFFCURVE",
"297 572 OFFCURVE",
"206 465 OFFCURVE",
"160 321 OFFCURVE",
"160 240 QCURVE",
"160 167 OFFCURVE",
"205 43 OFFCURVE",
"290 -48 OFFCURVE",
"414 -99 OFFCURVE",
"492 -99 QCURVE",
"510 -99 OFFCURVE",
"535 -98 OFFCURVE",
"558 -95 OFFCURVE",
"581 -92 OFFCURVE",
"597 -89 QCURVE",
"604 -173 LINE",
"586 -177 OFFCURVE",
"558 -181 OFFCURVE",
"530 -184 OFFCURVE",
"500 -186 OFFCURVE",
"482 -186 QCURVE",
"384 -186 OFFCURVE",
"231 -121 OFFCURVE",
"125 -8 OFFCURVE",
"70 144 OFFCURVE",
"70 232 QCURVE",
"70 339 OFFCURVE",
"129 513 OFFCURVE",
"243 642 OFFCURVE",
"412 715 OFFCURVE",
"522 715 QCURVE",
"616 715 OFFCURVE",
"762 651 OFFCURVE",
"862 540 OFFCURVE",
"914 390 OFFCURVE",
"914 304 QCURVE",
"914 263 OFFCURVE",
"902 169 OFFCURVE",
"863 87 OFFCURVE",
"792 33 OFFCURVE",
"733 33 QCURVE",
"685 33 OFFCURVE",
"625 81 OFFCURVE",
"615 119 QCURVE"
);
},
{
closed = 1;
nodes = (
"370 224 OFFCURVE",
"377 180 OFFCURVE",
"399 140 OFFCURVE",
"440 111 OFFCURVE",
"473 110 QCURVE",
"506 110 OFFCURVE",
"550 138 OFFCURVE",
"581 182 OFFCURVE",
"600 235 OFFCURVE",
"604 268 OFFCURVE",
"604 278 OFFCURVE",
"604 298 OFFCURVE",
"596 341 OFFCURVE",
"573 381 OFFCURVE",
"531 410 OFFCURVE",
"497 410 QCURVE",
"465 410 OFFCURVE",
"419 383 OFFCURVE",
"389 341 OFFCURVE",
"370 275 OFFCURVE",
"370 241 QCURVE"
);
}
);
width = 983;
}
);
unicode = 0040;
},
{
color = (153, 255, 194, 255);
glyphname = bracketleft;
layers = (
{
layerId = "DD39FC45-FCD0-450F-8BE5-088D761CC1D8";
paths = (
{
closed = 1;
nodes = (
"87 -186 LINE",
"87 791 LINE",
"286 791 LINE",
"286 719 LINE",
"170 719 LINE",
"170 -114 LINE",
"286 -114 LINE",
"286 -186 LINE"
);
}
);
width = 321;
}
);
unicode = 005B;
},
{
color = (153, 255, 194, 255);
glyphname = bracketright;
layers = (
{
layerId = "DD39FC45-FCD0-450F-8BE5-088D761CC1D8";
paths = (
{
closed = 1;
nodes = (
"234 791 LINE",
"234 -186 LINE",
"35 -186 LINE",
"35 -114 LINE",
"151 -114 LINE",
"151 719 LINE",
"35 719 LINE",
"35 791 LINE"
);
}
);
width = 321;
}
);
unicode = 005D;
},
{
color = (153, 255, 194, 255);
glyphname = backslash;
layers = (
{
layerId = "DD39FC45-FCD0-450F-8BE5-088D761CC1D8";
paths = (
{
closed = 1;
nodes = (
"348 -168 LINE",
"39 801 LINE",
"129 801 LINE",
"438 -168 LINE"
);
}
);
width = 477;
}
);
unicode = 005C;
},
{
color = (153, 255, 194, 255);
glyphname = asciicircum;
layers = (
{
layerId = "DD39FC45-FCD0-450F-8BE5-088D761CC1D8";
paths = (
{
closed = 1;
nodes = (
"261 715 LINE",
"404 512 LINE",
"318 512 LINE",
"231 643 LINE",
"144 512 LINE",
"59 512 LINE",
"201 715 LINE"
);
}
);
width = 463;
}
);
unicode = 005E;
},
{
color = (153, 255, 194, 255);
glyphname = underscore;
layers = (
{
layerId = "DD39FC45-FCD0-450F-8BE5-088D761CC1D8";
paths = (
{
closed = 1;
nodes = (
"-3 -97 LINE",
"466 -97 LINE",
"466 -174 LINE",
"-3 -174 LINE"
);
}
);
width = 463;
}
);
unicode = 005F;
},
{
color = (153, 255, 194, 255);
glyphname = braceleft;
layers = (
{
layerId = "DD39FC45-FCD0-450F-8BE5-088D761CC1D8";
paths = (
{
closed = 1;
nodes = (
"218 437 LINE",
"218 389 OFFCURVE",
"190 321 OFFCURVE",
"150 302 QCURVE",
"190 284 OFFCURVE",
"218 214 OFFCURVE",
"218 168 QCURVE",
"218 -38 LINE",
"218 -55 OFFCURVE",
"219 -83 OFFCURVE",
"226 -103 OFFCURVE",
"244 -114 OFFCURVE",
"261 -114 QCURVE",
"330 -114 LINE",
"330 -186 LINE",
"252 -186 LINE",
"225 -186 OFFCURVE",
"182 -176 OFFCURVE",
"152 -151 OFFCURVE",
"135 -110 OFFCURVE",
"135 -79 QCURVE",
"135 140 LINE",
"135 166 OFFCURVE",
"128 213 OFFCURVE",
"107 249 OFFCURVE",
"68 270 OFFCURVE",
"37 270 QCURVE",
"37 335 LINE",
"68 335 OFFCURVE",
"107 356 OFFCURVE",
"128 391 OFFCURVE",
"135 438 OFFCURVE",
"135 465 QCURVE",
"135 684 LINE",
"135 715 OFFCURVE",
"152 756 OFFCURVE",
"182 781 OFFCURVE",
"225 791 OFFCURVE",
"252 791 QCURVE",
"330 791 LINE",
"330 719 LINE",
"261 719 LINE",
"244 719 OFFCURVE",
"226 708 OFFCURVE",
"219 688 OFFCURVE",
"218 660 OFFCURVE",
"218 643 QCURVE"
);
}
);
width = 389;
}
);
unicode = 007B;
},
{
color = (153, 255, 194, 255);
glyphname = bar;
layers = (
{
layerId = "DD39FC45-FCD0-450F-8BE5-088D761CC1D8";
paths = (
{
closed = 1;
nodes = (
"87 -168 LINE",
"87 801 LINE",
"174 801 LINE",
"174 -168 LINE"
);
}
);
width = 261;
}
);
unicode = 007C;
},
{
color = (153, 255, 194, 255);
glyphname = braceright;
layers = (
{
layerId = "DD39FC45-FCD0-450F-8BE5-088D761CC1D8";
paths = (
{
closed = 1;
nodes = (
"171 643 LINE",
"171 660 OFFCURVE",
"170 688 OFFCURVE",
"163 708 OFFCURVE",
"145 719 OFFCURVE",
"128 719 QCURVE",
"59 719 LINE",
"59 791 LINE",
"137 791 LINE",
"164 791 OFFCURVE",
"207 781 OFFCURVE",
"237 756 OFFCURVE",
"254 715 OFFCURVE",
"254 684 QCURVE",
"254 465 LINE",
"254 438 OFFCURVE",
"261 391 OFFCURVE",
"282 356 OFFCURVE",
"320 335 OFFCURVE",
"352 335 QCURVE",
"352 270 LINE",
"320 270 OFFCURVE",
"282 249 OFFCURVE",
"261 213 OFFCURVE",
"254 166 OFFCURVE",
"254 140 QCURVE",
"254 -79 LINE",
"254 -110 OFFCURVE",
"237 -151 OFFCURVE",
"207 -176 OFFCURVE",
"164 -186 OFFCURVE",
"137 -186 QCURVE",
"59 -186 LINE",
"59 -114 LINE",
"128 -114 LINE",
"145 -114 OFFCURVE",
"163 -103 OFFCURVE",
"170 -83 OFFCURVE",
"171 -55 OFFCURVE",
"171 -38 QCURVE",
"171 168 LINE",
"171 214 OFFCURVE",
"199 284 OFFCURVE",
"238 302 QCURVE",
"199 321 OFFCURVE",
"171 389 OFFCURVE",
"171 437 QCURVE"
);
}
);
width = 389;
}
);
unicode = 007D;
},
{
color = (153, 255, 194, 255);
glyphname = Euro;
layers = (
{
layerId = "DD39FC45-FCD0-450F-8BE5-088D761CC1D8";
paths = (
{
closed = 1;
nodes = (
"320 -8 OFFCURVE",
"177 113 OFFCURVE",
"151 225 QCURVE",
"49 225 LINE",
"62 303 LINE",
"145 303 LINE",
"144 314 OFFCURVE",
"143 334 OFFCURVE",
"143 344 QCURVE",
"143 349 OFFCURVE",
"144 378 OFFCURVE",
"146 405 QCURVE",
"49 405 LINE",
"62 483 LINE",
"156 483 LINE",
"182 592 OFFCURVE",
"318 715 OFFCURVE",
"432 715 QCURVE",
"492 715 OFFCURVE",
"585 683 OFFCURVE",
"623 646 QCURVE",
"579 583 LINE",
"547 611 OFFCURVE",
"477 636 OFFCURVE",
"431 636 QCURVE",
"390 635 OFFCURVE",
"324 610 OFFCURVE",
"277 567 OFFCURVE",
"249 512 OFFCURVE",
"242 483 QCURVE",
"514 483 LINE",
"501 405 LINE",
"229 405 LINE",
"226 382 OFFCURVE",
"225 350 OFFCURVE",
"225 347 QCURVE",
"225 335 OFFCURVE",
"227 313 OFFCURVE",
"229 303 QCURVE",
"483 303 LINE",
"470 225 LINE",
"241 225 LINE",
"258 156 OFFCURVE",
"359 69 OFFCURVE",
"440 69 QCURVE",
"486 69 OFFCURVE",
"554 90 OFFCURVE",
"588 121 QCURVE",
"630 65 LINE",
"557 -8 OFFCURVE",
"435 -8 QCURVE"
);
}
);
width = 679;
}
);
unicode = 20AC;
},
{
color = (153, 255, 194, 255);
glyphname = quotedblbase;
layers = (
{
layerId = "DD39FC45-FCD0-450F-8BE5-088D761CC1D8";
paths = (
{
closed = 1;
nodes = (
"102 -1 OFFCURVE",
"70 29 OFFCURVE",
"70 54 QCURVE",
"70 82 OFFCURVE",
"105 112 OFFCURVE",
"132 112 QCURVE",
"163 111 OFFCURVE",
"193 62 OFFCURVE",
"193 33 QCURVE",
"193 6 OFFCURVE",
"176 -41 OFFCURVE",
"148 -83 OFFCURVE",
"111 -115 OFFCURVE",
"91 -122 QCURVE",
"67 -89 LINE",
"87 -75 OFFCURVE",
"122 -27 OFFCURVE",
"128 -3 QCURVE"
);
},
{
closed = 1;
nodes = (
"291 -1 OFFCURVE",
"259 29 OFFCURVE",
"259 54 QCURVE",
"259 82 OFFCURVE",
"294 112 OFFCURVE",
"321 112 QCURVE",
"352 111 OFFCURVE",
"382 62 OFFCURVE",
"382 33 QCURVE",
"382 6 OFFCURVE",
"365 -41 OFFCURVE",
"337 -83 OFFCURVE",
"300 -115 OFFCURVE",
"280 -122 QCURVE",
"256 -89 LINE",
"276 -75 OFFCURVE",
"311 -27 OFFCURVE",
"317 -3 QCURVE"
);
}
);
width = 450;
}
);
leftKerningGroup = _kern14;
rightKerningGroup = _kern14;
unicode = 201E;
},
{
color = (153, 255, 194, 255);
glyphname = quotesinglbase;
layers = (
{
layerId = "DD39FC45-FCD0-450F-8BE5-088D761CC1D8";
paths = (
{
closed = 1;
nodes = (
"102 -1 OFFCURVE",
"70 29 OFFCURVE",
"70 54 QCURVE",
"70 82 OFFCURVE",
"105 112 OFFCURVE",
"132 112 QCURVE",
"164 110 OFFCURVE",
"193 63 OFFCURVE",
"193 36 QCURVE",
"193 6 OFFCURVE",
"176 -41 OFFCURVE",
"148 -83 OFFCURVE",
"111 -115 OFFCURVE",
"91 -122 QCURVE",
"67 -89 LINE",
"87 -75 OFFCURVE",
"122 -27 OFFCURVE",
"128 -3 QCURVE"
);
}
);
width = 261;
}
);
unicode = 201A;
},
{
color = (153, 255, 194, 255);
glyphname = quotedblright;
layers = (
{
layerId = "DD39FC45-FCD0-450F-8BE5-088D761CC1D8";
paths = (
{
closed = 1;
nodes = (
"102 619 OFFCURVE",
"70 649 OFFCURVE",
"70 674 QCURVE",
"70 702 OFFCURVE",
"106 732 OFFCURVE",
"133 732 QCURVE",
"166 730 OFFCURVE",
"193 682 OFFCURVE",
"193 653 QCURVE",
"193 626 OFFCURVE",
"176 579 OFFCURVE",
"148 537 OFFCURVE",
"111 505 OFFCURVE",
"91 498 QCURVE",
"67 531 LINE",
"87 545 OFFCURVE",
"122 593 OFFCURVE",
"128 617 QCURVE"
);
},
{
closed = 1;
nodes = (
"291 619 OFFCURVE",
"259 649 OFFCURVE",
"259 674 QCURVE",
"259 702 OFFCURVE",
"295 732 OFFCURVE",
"322 732 QCURVE",
"355 730 OFFCURVE",
"382 682 OFFCURVE",
"382 653 QCURVE",
"382 626 OFFCURVE",
"365 579 OFFCURVE",
"337 537 OFFCURVE",
"300 505 OFFCURVE",
"280 498 QCURVE",
"256 531 LINE",
"276 545 OFFCURVE",
"311 593 OFFCURVE",
"317 617 QCURVE"
);
}
);
width = 450;
}
);
unicode = 201D;
},
{
color = (153, 255, 194, 255);
glyphname = quoteright;
layers = (
{
layerId = "DD39FC45-FCD0-450F-8BE5-088D761CC1D8";
paths = (
{
closed = 1;
nodes = (
"102 619 OFFCURVE",
"70 649 OFFCURVE",
"70 674 QCURVE",
"70 702 OFFCURVE",
"105 732 OFFCURVE",
"132 732 QCURVE",
"163 732 OFFCURVE",
"180 706 QCURVE",
"193 682 OFFCURVE",
"193 653 QCURVE",
"193 626 OFFCURVE",
"176 579 OFFCURVE",
"148 537 OFFCURVE",
"111 505 OFFCURVE",
"91 498 QCURVE",
"67 531 LINE",
"87 545 OFFCURVE",
"122 593 OFFCURVE",
"128 617 QCURVE"
);
}
);
width = 261;
}
);
unicode = 2019;
},
{
color = (153, 255, 194, 255);
glyphname = quotedblleft;
layers = (
{
layerId = "DD39FC45-FCD0-450F-8BE5-088D761CC1D8";
paths = (
{
closed = 1;
nodes = (
"348 624 OFFCURVE",
"380 594 OFFCURVE",
"380 569 QCURVE",
"380 541 OFFCURVE",
"346 511 OFFCURVE",
"321 511 QCURVE",
"287 513 OFFCURVE",
"257 559 OFFCURVE",
"257 588 QCURVE",
"257 616 OFFCURVE",
"274 664 OFFCURVE",
"302 706 OFFCURVE",
"339 738 OFFCURVE",
"359 745 QCURVE",
"383 712 LINE",
"363 698 OFFCURVE",
"328 650 OFFCURVE",
"322 626 QCURVE"
);
},
{
closed = 1;
nodes = (
"159 624 OFFCURVE",
"191 594 OFFCURVE",
"191 569 QCURVE",
"191 541 OFFCURVE",
"156 511 OFFCURVE",
"133 511 QCURVE",
"98 512 OFFCURVE",
"68 559 OFFCURVE",
"68 588 QCURVE",
"68 616 OFFCURVE",
"85 664 OFFCURVE",
"113 706 OFFCURVE",
"150 738 OFFCURVE",
"170 745 QCURVE",
"194 712 LINE",
"174 698 OFFCURVE",
"139 650 OFFCURVE",
"133 626 QCURVE"
);
}
);
width = 450;
}
);
unicode = 201C;
},
{
color = (153, 255, 194, 255);
glyphname = quoteleft;
layers = (
{
layerId = "DD39FC45-FCD0-450F-8BE5-088D761CC1D8";
paths = (
{
closed = 1;
nodes = (
"159 624 OFFCURVE",
"191 594 OFFCURVE",
"191 569 QCURVE",
"191 541 OFFCURVE",
"155 511 OFFCURVE",
"133 511 QCURVE",
"98 512 OFFCURVE",
"81 539 QCURVE",
"68 561 OFFCURVE",
"68 590 QCURVE",
"68 616 OFFCURVE",
"85 664 OFFCURVE",
"113 706 OFFCURVE",
"150 738 OFFCURVE",
"170 745 QCURVE",
"194 712 LINE",
"174 698 OFFCURVE",
"139 650 OFFCURVE",
"133 626 QCURVE"
);
}
);
width = 261;
}
);
unicode = 2018;
},
{
color = (153, 255, 194, 255);
glyphname = minus;
layers = (
{
layerId = "DD39FC45-FCD0-450F-8BE5-088D761CC1D8";
paths = (
{
closed = 1;
nodes = (
"74 392 LINE",
"430 392 LINE",
"430 315 LINE",
"74 315 LINE"
);
}
);
width = 504;
}
);
unicode = 2212;
},
{
color = (153, 255, 194, 255);
glyphname = hyphen;
layers = (
{
layerId = "DD39FC45-FCD0-450F-8BE5-088D761CC1D8";
paths = (
{
closed = 1;
nodes = (
"74 321 LINE",
"384 321 LINE",
"384 243 LINE",
"74 243 LINE"
);
}
);
width = 458;
}
);
unicode = 002D;
},
{
color = (153, 255, 194, 255);
glyphname = endash;
layers = (
{
layerId = "DD39FC45-FCD0-450F-8BE5-088D761CC1D8";
paths = (
{
closed = 1;
nodes = (
"74 321 LINE",
"504 321 LINE",
"504 243 LINE",
"74 243 LINE"
);
}
);
width = 578;
}
);
unicode = 2013;
},
{
color = (153, 255, 194, 255);
glyphname = emdash;
layers = (
{
layerId = "DD39FC45-FCD0-450F-8BE5-088D761CC1D8";
paths = (
{
closed = 1;
nodes = (
"74 321 LINE",
"685 321 LINE",
"685 243 LINE",
"74 243 LINE"
);
}
);
width = 759;
}
);
unicode = 2014;
},
{
color = (153, 255, 194, 255);
glyphname = grave;
layers = (
{
layerId = "DD39FC45-FCD0-450F-8BE5-088D761CC1D8";
paths = (
{
closed = 1;
nodes = (
"149 628 LINE",
"49 769 LINE",
"141 769 LINE",
"226 628 LINE"
);
}
);
width = 335;
}
);
unicode = 0060;
},
{
color = (153, 255, 194, 255);
glyphname = acute;
layers = (
{
layerId = "DD39FC45-FCD0-450F-8BE5-088D761CC1D8";
paths = (
{
closed = 1;
nodes = (
"194 769 LINE",
"286 769 LINE",
"186 628 LINE",
"109 628 LINE"
);
}
);
width = 335;
}
);
unicode = 00B4;
},
{
color = (153, 255, 194, 255);
glyphname = guillemotright;
layers = (
{
layerId = "DD39FC45-FCD0-450F-8BE5-088D761CC1D8";
paths = (
{
closed = 1;
nodes = (
"233 438 LINE",
"324 438 LINE",
"437 264 LINE",
"324 90 LINE",
"233 90 LINE",
"351 264 LINE"
);
},
{
closed = 1;
nodes = (
"59 438 LINE",
"149 438 LINE",
"262 264 LINE",
"149 90 LINE",
"59 90 LINE",
"174 264 LINE"
);
}
);
width = 476;
}
);
unicode = 00BB;
},
{
color = (153, 255, 194, 255);
glyphname = guilsinglright;
layers = (
{
layerId = "DD39FC45-FCD0-450F-8BE5-088D761CC1D8";
paths = (
{
closed = 1;
nodes = (
"59 438 LINE",
"149 438 LINE",
"262 264 LINE",
"149 90 LINE",
"59 90 LINE",
"174 264 LINE"
);
}
);
width = 301;
}
);
unicode = 203A;
},
{
color = (153, 255, 194, 255);
glyphname = guillemotleft;
layers = (
{
layerId = "DD39FC45-FCD0-450F-8BE5-088D761CC1D8";
paths = (
{
closed = 1;
nodes = (
"243 90 LINE",
"152 90 LINE",
"39 264 LINE",
"152 438 LINE",
"243 438 LINE",
"125 264 LINE"
);
},
{
closed = 1;
nodes = (
"417 90 LINE",
"327 90 LINE",
"214 264 LINE",
"327 438 LINE",
"417 438 LINE",
"302 264 LINE"
);
}
);
width = 476;
}
);
unicode = 00AB;
},
{
color = (153, 255, 194, 255);
glyphname = guilsinglleft;
layers = (
{
layerId = "DD39FC45-FCD0-450F-8BE5-088D761CC1D8";
paths = (
{
closed = 1;
nodes = (
"242 90 LINE",
"152 90 LINE",
"39 264 LINE",
"152 438 LINE",
"242 438 LINE",
"127 264 LINE"
);
}
);
width = 301;
}
);
unicode = 2039;
},
{
color = (153, 255, 194, 255);
glyphname = uni00AD;
layers = (
{
layerId = "DD39FC45-FCD0-450F-8BE5-088D761CC1D8";
paths = (
{
closed = 1;
nodes = (
"74 321 LINE",
"379 321 LINE",
"379 243 LINE",
"74 243 LINE"
);
}
);
width = 453;
}
);
unicode = 00AD;
},
{
color = (153, 255, 194, 255);
glyphname = ellipsis;
layers = (
{
layerId = "DD39FC45-FCD0-450F-8BE5-088D761CC1D8";
paths = (
{
closed = 1;
nodes = (
"141 112 OFFCURVE",
"176 78 OFFCURVE",
"176 52 QCURVE",
"176 26 OFFCURVE",
"141 -8 OFFCURVE",
"116 -8 QCURVE",
"90 -8 OFFCURVE",
"57 26 OFFCURVE",
"57 52 QCURVE",
"57 78 OFFCURVE",
"90 112 OFFCURVE",
"116 112 QCURVE"
);
},
{
closed = 1;
nodes = (
"375 112 OFFCURVE",
"410 78 OFFCURVE",
"410 52 QCURVE",
"410 26 OFFCURVE",
"375 -8 OFFCURVE",
"350 -8 QCURVE",
"324 -8 OFFCURVE",
"291 26 OFFCURVE",
"291 52 QCURVE",
"291 78 OFFCURVE",
"324 112 OFFCURVE",
"350 112 QCURVE"
);
},
{
closed = 1;
nodes = (
"605 112 OFFCURVE",
"640 78 OFFCURVE",
"640 52 QCURVE",
"640 26 OFFCURVE",
"605 -8 OFFCURVE",
"580 -8 QCURVE",
"554 -8 OFFCURVE",
"521 26 OFFCURVE",
"521 52 QCURVE",
"521 78 OFFCURVE",
"554 112 OFFCURVE",
"580 112 QCURVE"
);
}
);
width = 697;
}
);
unicode = 2026;
},
{
color = (153, 255, 194, 255);
glyphname = uni0445;
layers = (
{
layerId = "DD39FC45-FCD0-450F-8BE5-088D761CC1D8";
paths = (
{
closed = 1;
nodes = (
"254 201 LINE",
"110 0 LINE",
"14 0 LINE",
"202 269 LINE",
"23 527 LINE",
"125 527 LINE",
"259 327 LINE",
"389 527 LINE",
"488 527 LINE",
"310 266 LINE",
"501 0 LINE",
"400 0 LINE"
);
}
);
width = 515;
}
);
unicode = 0445;
},
{
color = (153, 255, 194, 255);
glyphname = uni0431;
layers = (
{
layerId = "DD39FC45-FCD0-450F-8BE5-088D761CC1D8";
paths = (
{
closed = 1;
nodes = (
"146 429 OFFCURVE",
"186 458 OFFCURVE",
"233 478 OFFCURVE",
"282 487 OFFCURVE",
"305 487 QCURVE",
"359 487 OFFCURVE",
"442 453 OFFCURVE",
"499 390 OFFCURVE",
"529 302 OFFCURVE",
"529 248 QCURVE",
"529 194 OFFCURVE",
"497 101 OFFCURVE",
"436 33 OFFCURVE",
"347 -6 OFFCURVE",
"289 -6 QCURVE",
"223 -6 OFFCURVE",
"133 41 OFFCURVE",
"78 120 OFFCURVE",
"52 230 OFFCURVE",
"51 283 QCURVE",
"49 299 OFFCURVE",
"50 396 OFFCURVE",
"54 435 QCURVE",
"58 475 OFFCURVE",
"77 550 OFFCURVE",
"94 579 QCURVE",
"121 627 OFFCURVE",
"204 673 OFFCURVE",
"258 682 QCURVE",
"275 685 OFFCURVE",
"394 702 OFFCURVE",
"416 705 QCURVE",
"435 707 OFFCURVE",
"480 714 OFFCURVE",
"502 718 QCURVE",
"502 640 LINE",
"487 635 OFFCURVE",
"443 628 OFFCURVE",
"415 625 QCURVE",
"395 622 OFFCURVE",
"352 617 OFFCURVE",
"307 612 OFFCURVE",
"261 605 QCURVE",
"227 600 OFFCURVE",
"184 572 OFFCURVE",
"168 549 QCURVE",
"149 521 OFFCURVE",
"132 442 OFFCURVE",
"131 408 QCURVE"
);
},
{
closed = 1;
nodes = (
"328 69 OFFCURVE",
"385 97 OFFCURVE",
"424 145 OFFCURVE",
"444 209 OFFCURVE",
"444 245 QCURVE",
"444 280 OFFCURVE",
"423 341 OFFCURVE",
"385 386 OFFCURVE",
"331 411 OFFCURVE",
"292 411 QCURVE",
"256 410 OFFCURVE",
"200 384 OFFCURVE",
"160 337 OFFCURVE",
"140 276 OFFCURVE",
"139 243 QCURVE",
"139 208 OFFCURVE",
"158 145 OFFCURVE",
"196 97 OFFCURVE",
"253 69 OFFCURVE",
"291 69 QCURVE"
);
}
);
width = 576;
}
);
rightKerningGroup = _kern10;
unicode = 0431;
},
{
color = (153, 255, 194, 255);
glyphname = uni0432;
layers = (
{
layerId = "DD39FC45-FCD0-450F-8BE5-088D761CC1D8";
paths = (
{
closed = 1;
nodes = (
"67 527 LINE",
"271 527 LINE",
"322 527 OFFCURVE",
"395 513 OFFCURVE",
"420 495 QCURVE",
"442 480 OFFCURVE",
"467 430 OFFCURVE",
"467 396 QCURVE",
"467 317 OFFCURVE",
"396 283 QCURVE",
"450 271 OFFCURVE",
"498 201 OFFCURVE",
"498 156 QCURVE",
"497 114 OFFCURVE",
"471 61 OFFCURVE",
"424 22 OFFCURVE",
"356 0 OFFCURVE",
"313 0 QCURVE",
"67 0 LINE"
);
},
{
closed = 1;
nodes = (
"154 452 LINE",
"154 302 LINE",
"227 302 LINE",
"252 302 OFFCURVE",
"304 305 OFFCURVE",
"324 312 QCURVE",
"349 320 OFFCURVE",
"383 356 OFFCURVE",
"384 381 QCURVE",
"384 410 OFFCURVE",
"359 437 OFFCURVE",
"323 450 OFFCURVE",
"281 452 OFFCURVE",
"263 452 QCURVE"
);
},
{
closed = 1;
nodes = (
"154 74 LINE",
"293 74 LINE",
"316 74 OFFCURVE",
"359 80 OFFCURVE",
"391 97 OFFCURVE",
"411 127 OFFCURVE",
"412 150 QCURVE",
"412 180 OFFCURVE",
"384 215 OFFCURVE",
"360 223 QCURVE",
"340 229 OFFCURVE",
"290 231 OFFCURVE",
"263 231 QCURVE",
"154 230 LINE"
);
}
);
width = 547;
}
);
leftKerningGroup = _kern11;
unicode = 0432;
},
{
color = (153, 255, 194, 255);
glyphname = uni0433;
layers = (
{
layerId = "DD39FC45-FCD0-450F-8BE5-088D761CC1D8";
paths = (
{
closed = 1;
nodes = (
"67 0 LINE",
"67 527 LINE",
"431 527 LINE",
"431 452 LINE",
"152 452 LINE",
"152 0 LINE"
);
}
);
width = 454;
}
);
leftKerningGroup = _kern11;
rightKerningGroup = _kern24;
unicode = 0433;
},
{
color = (153, 255, 194, 255);
glyphname = uni0434;
layers = (
{
layerId = "DD39FC45-FCD0-450F-8BE5-088D761CC1D8";
paths = (
{
closed = 1;
nodes = (
"128 440 OFFCURVE",
"128 498 OFFCURVE",
"128 527 QCURVE",
"502 527 LINE",
"502 74 LINE",
"571 74 LINE",
"571 -162 LINE",
"489 -162 LINE",
"489 0 LINE",
"104 0 LINE",
"104 -162 LINE",
"22 -162 LINE",
"22 74 LINE",
"62 74 OFFCURVE",
"85 110 QCURVE",
"99 130 OFFCURVE",
"115 205 OFFCURVE",
"119 247 QCURVE",
"124 293 OFFCURVE",
"127 384 OFFCURVE",
"127 411 QCURVE"
);
},
{
closed = 1;
nodes = (
"417 452 LINE",
"209 452 LINE",
"208 410 OFFCURVE",
"206 306 OFFCURVE",
"203 261 QCURVE",
"202 241 OFFCURVE",
"198 194 OFFCURVE",
"189 145 OFFCURVE",
"172 95 OFFCURVE",
"157 74 QCURVE",
"417 74 LINE"
);
}
);
width = 593;
}
);
rightKerningGroup = _kern13;
unicode = 0434;
},
{
color = (153, 255, 194, 255);
glyphname = uni0436;
layers = (
{
layerId = "DD39FC45-FCD0-450F-8BE5-088D761CC1D8";
paths = (
{
closed = 1;
nodes = (
"338 0 LINE",
"338 227 LINE",
"250 227 LINE",
"113 0 LINE",
"14 0 LINE",
"185 276 LINE",
"29 527 LINE",
"120 527 LINE",
"259 299 LINE",
"338 299 LINE",
"338 527 LINE",
"423 527 LINE",
"423 299 LINE",
"502 299 LINE",
"641 527 LINE",
"732 527 LINE",
"576 276 LINE",
"747 0 LINE",
"648 0 LINE",
"511 227 LINE",
"423 227 LINE",
"423 0 LINE"
);
}
);
width = 761;
}
);
unicode = 0436;
},
{
color = (153, 255, 194, 255);
glyphname = uni043A;
layers = (
{
layerId = "DD39FC45-FCD0-450F-8BE5-088D761CC1D8";
paths = (
{
closed = 1;
nodes = (
"67 0 LINE",
"67 527 LINE",
"152 527 LINE",
"152 300 LINE",
"244 300 LINE",
"400 527 LINE",
"497 527 LINE",
"321 276 LINE",
"512 0 LINE",
"412 0 LINE",
"254 226 LINE",
"152 226 LINE",
"152 0 LINE"
);
}
);
width = 519;
}
);
leftKerningGroup = _kern11;
unicode = 043A;
},
{
color = (153, 255, 194, 255);
glyphname = uni0438;
layers = (
{
layerId = "DD39FC45-FCD0-450F-8BE5-088D761CC1D8";
paths = (
{
closed = 1;
nodes = (
"150 0 LINE",
"67 0 LINE",
"67 527 LINE",
"152 527 LINE",
"152 123 LINE",
"159 137 OFFCURVE",
"183 170 OFFCURVE",
"190 179 QCURVE",
"445 527 LINE",
"529 527 LINE",
"529 0 LINE",
"444 0 LINE",
"444 404 LINE",
"436 389 OFFCURVE",
"417 362 OFFCURVE",
"409 352 QCURVE"
);
}
);
width = 596;
}
);
leftKerningGroup = _kern11;
unicode = 0438;
},
{
color = (153, 255, 194, 255);
glyphname = uni0439;
layers = (
{
layerId = "DD39FC45-FCD0-450F-8BE5-088D761CC1D8";
paths = (
{
closed = 1;
nodes = (
"348 662 OFFCURVE",
"399 694 OFFCURVE",
"399 734 QCURVE",
"477 734 LINE",
"475 662 OFFCURVE",
"384 596 OFFCURVE",
"305 596 QCURVE",
"226 596 OFFCURVE",
"137 662 OFFCURVE",
"135 734 QCURVE",
"213 734 LINE",
"214 694 OFFCURVE",
"264 662 OFFCURVE",
"306 662 QCURVE"
);
},
{
closed = 1;
nodes = (
"150 0 LINE",
"67 0 LINE",
"67 527 LINE",
"152 527 LINE",
"152 123 LINE",
"159 137 OFFCURVE",
"183 170 OFFCURVE",
"190 179 QCURVE",
"445 527 LINE",
"529 527 LINE",
"529 0 LINE",
"444 0 LINE",
"444 404 LINE",
"436 389 OFFCURVE",
"417 362 OFFCURVE",
"409 352 QCURVE"
);
}
);
width = 596;
}
);
unicode = 0439;
},
{
color = (153, 255, 194, 255);
glyphname = uni043B;
layers = (
{
layerId = "DD39FC45-FCD0-450F-8BE5-088D761CC1D8";
paths = (
{
closed = 1;
nodes = (
"121 319 OFFCURVE",
"126 455 OFFCURVE",
"127 527 QCURVE",
"493 527 LINE",
"493 0 LINE",
"408 0 LINE",
"408 452 LINE",
"210 452 LINE",
"201 245 LINE",
"199 205 OFFCURVE",
"185 105 OFFCURVE",
"163 64 QCURVE",
"146 35 OFFCURVE",
"88 -1 OFFCURVE",
"50 -1 QCURVE",
"19 -1 LINE",
"19 74 LINE",
"59 74 OFFCURVE",
"83 108 QCURVE",
"97 128 OFFCURVE",
"113 204 OFFCURVE",
"116 247 QCURVE"
);
}
);
width = 560;
}
);
unicode = 043B;
},
{
color = (153, 255, 194, 255);
glyphname = uni043C;
layers = (
{
layerId = "DD39FC45-FCD0-450F-8BE5-088D761CC1D8";
paths = (
{
closed = 1;
nodes = (
"67 527 LINE",
"181 527 LINE",
"352 263 LINE",
"520 527 LINE",
"632 527 LINE",
"632 0 LINE",
"548 0 LINE",
"548 433 LINE",
"362 135 LINE",
"338 135 LINE",
"151 433 LINE",
"151 0 LINE",
"67 0 LINE"
);
}
);
width = 699;
}
);
leftKerningGroup = _kern11;
unicode = 043C;
},
{
color = (153, 255, 194, 255);
glyphname = uni043D;
layers = (
{
layerId = "DD39FC45-FCD0-450F-8BE5-088D761CC1D8";
paths = (
{
closed = 1;
nodes = (
"67 0 LINE",
"67 527 LINE",
"152 527 LINE",
"152 296 LINE",
"416 296 LINE",
"416 527 LINE",
"501 527 LINE",
"501 0 LINE",
"416 0 LINE",
"416 221 LINE",
"152 221 LINE",
"152 0 LINE"
);
}
);
width = 568;
}
);
leftKerningGroup = _kern11;
unicode = 043D;
},
{
color = (153, 255, 194, 255);
glyphname = uni043F;
layers = (
{
layerId = "DD39FC45-FCD0-450F-8BE5-088D761CC1D8";
paths = (
{
closed = 1;
nodes = (
"67 0 LINE",
"67 527 LINE",
"504 527 LINE",
"504 0 LINE",
"419 0 LINE",
"419 452 LINE",
"152 452 LINE",
"152 0 LINE"
);
}
);
width = 571;
}
);
leftKerningGroup = _kern11;
unicode = 043F;
},
{
color = (153, 255, 194, 255);
glyphname = uni0442;
layers = (
{
layerId = "DD39FC45-FCD0-450F-8BE5-088D761CC1D8";
paths = (
{
closed = 1;
nodes = (
"456 527 LINE",
"456 452 LINE",
"275 452 LINE",
"275 0 LINE",
"190 0 LINE",
"190 452 LINE",
"9 452 LINE",
"9 527 LINE"
);
}
);
width = 465;
}
);
unicode = 0442;
},
{
color = (153, 255, 194, 255);
glyphname = uni0444;
layers = (
{
layerId = "DD39FC45-FCD0-450F-8BE5-088D761CC1D8";
paths = (
{
closed = 1;
nodes = (
"318 694 LINE",
"403 694 LINE",
"403 532 LINE",
"532 530 OFFCURVE",
"679 392 OFFCURVE",
"679 259 QCURVE",
"679 192 OFFCURVE",
"639 94 OFFCURVE",
"566 29 OFFCURVE",
"464 -4 OFFCURVE",
"403 -6 QCURVE",
"403 -180 LINE",
"318 -180 LINE",
"318 -6 LINE",
"257 -4 OFFCURVE",
"156 29 OFFCURVE",
"83 94 OFFCURVE",
"43 192 OFFCURVE",
"43 259 QCURVE",
"43 393 OFFCURVE",
"189 530 OFFCURVE",
"318 532 QCURVE"
);
},
{
closed = 1;
nodes = (
"403 65 LINE",
"500 66 OFFCURVE",
"594 165 OFFCURVE",
"594 262 QCURVE",
"594 359 OFFCURVE",
"497 459 OFFCURVE",
"403 459 QCURVE"
);
},
{
closed = 1;
nodes = (
"318 459 LINE",
"224 459 OFFCURVE",
"128 359 OFFCURVE",
"128 262 QCURVE",
"128 165 OFFCURVE",
"222 66 OFFCURVE",
"318 65 QCURVE"
);
}
);
width = 722;
}
);
leftKerningGroup = _kern9;
rightKerningGroup = _kern10;
unicode = 0444;
},
{
color = (153, 255, 194, 255);
glyphname = uni0446;
layers = (
{
layerId = "DD39FC45-FCD0-450F-8BE5-088D761CC1D8";
paths = (
{
closed = 1;
nodes = (
"407 74 LINE",
"407 527 LINE",
"493 527 LINE",
"493 74 LINE",
"562 74 LINE",
"562 -162 LINE",
"479 -162 LINE",
"479 0 LINE",
"67 0 LINE",
"67 527 LINE",
"152 527 LINE",
"152 74 LINE"
);
}
);
width = 584;
}
);
leftKerningGroup = _kern11;
rightKerningGroup = _kern13;
unicode = 0446;
},
{
color = (153, 255, 194, 255);
glyphname = uni0447;
layers = (
{
layerId = "DD39FC45-FCD0-450F-8BE5-088D761CC1D8";
paths = (
{
closed = 1;
nodes = (
"44 527 LINE",
"129 527 LINE",
"129 409 LINE",
"129 374 OFFCURVE",
"138 321 OFFCURVE",
"164 285 OFFCURVE",
"212 266 OFFCURVE",
"251 266 QCURVE",
"281 266 OFFCURVE",
"348 272 OFFCURVE",
"377 278 QCURVE",
"377 527 LINE",
"462 527 LINE",
"462 0 LINE",
"377 0 LINE",
"377 203 LINE",
"339 196 OFFCURVE",
"268 191 OFFCURVE",
"240 191 QCURVE",
"184 191 OFFCURVE",
"109 217 OFFCURVE",
"63 270 OFFCURVE",
"44 349 OFFCURVE",
"44 403 QCURVE"
);
}
);
width = 529;
}
);
leftKerningGroup = _kern11;
unicode = 0447;
},
{
color = (153, 255, 194, 255);
glyphname = uni0448;
layers = (
{
layerId = "DD39FC45-FCD0-450F-8BE5-088D761CC1D8";
paths = (
{
closed = 1;
nodes = (
"67 527 LINE",
"152 527 LINE",
"152 74 LINE",
"350 74 LINE",
"350 527 LINE",
"435 527 LINE",
"435 74 LINE",
"635 74 LINE",
"635 527 LINE",
"720 527 LINE",
"720 0 LINE",
"67 0 LINE"
);
}
);
width = 787;
}
);
leftKerningGroup = _kern11;
unicode = 0448;
},
{
color = (153, 255, 194, 255);
glyphname = uni0449;
layers = (
{
layerId = "DD39FC45-FCD0-450F-8BE5-088D761CC1D8";
paths = (
{
closed = 1;
nodes = (
"67 527 LINE",
"152 527 LINE",
"152 74 LINE",
"350 74 LINE",
"350 527 LINE",
"435 527 LINE",
"435 74 LINE",
"635 74 LINE",
"635 527 LINE",
"720 527 LINE",
"720 74 LINE",
"789 74 LINE",
"789 -162 LINE",
"707 -162 LINE",
"707 0 LINE",
"67 0 LINE"
);
}
);
width = 811;
}
);
leftKerningGroup = _kern11;
rightKerningGroup = _kern13;
unicode = 0449;
},
{
color = (153, 255, 194, 255);
glyphname = uni044A;
layers = (
{
layerId = "DD39FC45-FCD0-450F-8BE5-088D761CC1D8";
paths = (
{
closed = 1;
nodes = (
"142 452 LINE",
"14 452 LINE",
"14 527 LINE",
"229 527 LINE",
"229 326 LINE",
"346 326 LINE",
"391 326 OFFCURVE",
"466 313 OFFCURVE",
"495 293 QCURVE",
"521 273 OFFCURVE",
"550 214 OFFCURVE",
"550 172 QCURVE",
"549 122 OFFCURVE",
"519 63 OFFCURVE",
"496 43 QCURVE",
"469 20 OFFCURVE",
"389 0 OFFCURVE",
"347 0 QCURVE",
"142 0 LINE"
);
},
{
closed = 1;
nodes = (
"279 74 LINE",
"317 74 OFFCURVE",
"394 77 OFFCURVE",
"422 91 QCURVE",
"441 99 OFFCURVE",
"464 138 OFFCURVE",
"464 169 QCURVE",
"464 198 OFFCURVE",
"440 231 OFFCURVE",
"401 248 OFFCURVE",
"353 252 OFFCURVE",
"330 252 QCURVE",
"229 252 LINE",
"229 74 LINE"
);
}
);
width = 590;
}
);
unicode = 044A;
},
{
color = (153, 255, 194, 255);
glyphname = uni044B;
layers = (
{
layerId = "DD39FC45-FCD0-450F-8BE5-088D761CC1D8";
paths = (
{
closed = 1;
nodes = (
"67 527 LINE",
"154 527 LINE",
"154 326 LINE",
"249 326 LINE",
"294 326 OFFCURVE",
"369 313 OFFCURVE",
"398 293 QCURVE",
"425 273 OFFCURVE",
"454 212 OFFCURVE",
"454 167 QCURVE",
"452 122 OFFCURVE",
"423 63 OFFCURVE",
"400 43 QCURVE",
"372 20 OFFCURVE",
"292 0 OFFCURVE",
"250 0 QCURVE",
"67 0 LINE"
);
},
{
closed = 1;
nodes = (
"527 0 LINE",
"527 527 LINE",
"612 527 LINE",
"612 0 LINE"
);
},
{
closed = 1;
nodes = (
"182 74 LINE",
"220 74 OFFCURVE",
"297 77 OFFCURVE",
"325 91 QCURVE",
"344 99 OFFCURVE",
"367 138 OFFCURVE",
"368 164 QCURVE",
"368 195 OFFCURVE",
"343 231 OFFCURVE",
"304 248 OFFCURVE",
"256 252 OFFCURVE",
"233 252 QCURVE",
"154 252 LINE",
"154 74 LINE"
);
}
);
width = 679;
}
);
leftKerningGroup = _kern11;
unicode = 044B;
},
{
color = (153, 255, 194, 255);
glyphname = uni044C;
layers = (
{
layerId = "DD39FC45-FCD0-450F-8BE5-088D761CC1D8";
paths = (
{
closed = 1;
nodes = (
"67 527 LINE",
"154 527 LINE",
"154 326 LINE",
"270 326 LINE",
"315 326 OFFCURVE",
"391 313 OFFCURVE",
"419 293 QCURVE",
"446 273 OFFCURVE",
"475 212 OFFCURVE",
"475 167 QCURVE",
"474 122 OFFCURVE",
"444 63 OFFCURVE",
"421 43 QCURVE",
"394 20 OFFCURVE",
"313 0 OFFCURVE",
"271 0 QCURVE",
"67 0 LINE"
);
},
{
closed = 1;
nodes = (
"204 74 LINE",
"242 74 OFFCURVE",
"318 77 OFFCURVE",
"346 91 QCURVE",
"365 99 OFFCURVE",
"388 138 OFFCURVE",
"389 164 QCURVE",
"389 195 OFFCURVE",
"364 231 OFFCURVE",
"325 248 OFFCURVE",
"277 252 OFFCURVE",
"254 252 QCURVE",
"154 252 LINE",
"154 74 LINE"
);
}
);
width = 519;
}
);
leftKerningGroup = _kern11;
unicode = 044C;
},
{
color = (153, 255, 194, 255);
glyphname = uni044E;
layers = (
{
layerId = "DD39FC45-FCD0-450F-8BE5-088D761CC1D8";
paths = (
{
closed = 1;
nodes = (
"557 533 OFFCURVE",
"650 493 OFFCURVE",
"711 421 OFFCURVE",
"742 322 OFFCURVE",
"742 263 QCURVE",
"742 204 OFFCURVE",
"711 105 OFFCURVE",
"650 34 OFFCURVE",
"557 -6 OFFCURVE",
"494 -6 QCURVE",
"436 -6 OFFCURVE",
"349 28 OFFCURVE",
"289 89 OFFCURVE",
"256 174 OFFCURVE",
"252 226 QCURVE",
"152 226 LINE",
"152 0 LINE",
"67 0 LINE",
"67 527 LINE",
"152 527 LINE",
"152 300 LINE",
"252 300 LINE",
"256 352 OFFCURVE",
"289 437 OFFCURVE",
"349 499 OFFCURVE",
"436 533 OFFCURVE",
"494 533 QCURVE"
);
},
{
closed = 1;
nodes = (
"537 69 OFFCURVE",
"599 99 OFFCURVE",
"638 152 OFFCURVE",
"657 222 OFFCURVE",
"657 263 QCURVE",
"657 303 OFFCURVE",
"638 374 OFFCURVE",
"599 427 OFFCURVE",
"537 457 OFFCURVE",
"494 457 QCURVE",
"451 457 OFFCURVE",
"390 427 OFFCURVE",
"352 374 OFFCURVE",
"334 303 OFFCURVE",
"334 263 QCURVE",
"334 222 OFFCURVE",
"352 152 OFFCURVE",
"390 99 OFFCURVE",
"451 69 OFFCURVE",
"494 69 QCURVE"
);
}
);
width = 785;
}
);
leftKerningGroup = _kern11;
rightKerningGroup = _kern10;
unicode = 044E;
},
{
color = (153, 255, 194, 255);
glyphname = uni044F;
layers = (
{
layerId = "DD39FC45-FCD0-450F-8BE5-088D761CC1D8";
paths = (
{
closed = 1;
nodes = (
"467 0 LINE",
"382 0 LINE",
"382 195 LINE",
"261 195 LINE",
"133 0 LINE",
"34 0 LINE",
"171 208 LINE",
"114 224 OFFCURVE",
"50 297 OFFCURVE",
"48 358 QCURVE",
"47 411 OFFCURVE",
"82 476 OFFCURVE",
"111 496 QCURVE",
"139 516 OFFCURVE",
"213 527 OFFCURVE",
"255 527 QCURVE",
"467 527 LINE"
);
},
{
closed = 1;
nodes = (
"382 452 LINE",
"269 453 LINE",
"244 453 OFFCURVE",
"193 449 OFFCURVE",
"173 438 QCURVE",
"156 428 OFFCURVE",
"135 391 OFFCURVE",
"134 362 QCURVE",
"135 335 OFFCURVE",
"159 298 OFFCURVE",
"181 287 QCURVE",
"210 273 OFFCURVE",
"281 269 OFFCURVE",
"319 269 QCURVE",
"382 269 LINE"
);
}
);
width = 534;
}
);
leftKerningGroup = _kern11;
unicode = 044F;
},
{
color = (153, 255, 194, 255);
glyphname = uni0410;
layers = (
{
layerId = "DD39FC45-FCD0-450F-8BE5-088D761CC1D8";
paths = (
{
closed = 1;
nodes = (
"660 0 LINE",
"566 0 LINE",
"510 152 LINE",
"160 152 LINE",
"104 0 LINE",
"10 0 LINE",
"273 707 LINE",
"398 707 LINE"
);
},
{
closed = 1;
nodes = (
"481 231 LINE",
"335 631 LINE",
"189 231 LINE"
);
}
);
width = 670;
}
);
leftKerningGroup = _kern30;
rightKerningGroup = _kern30;
unicode = 0410;
},
{
color = (153, 255, 194, 255);
glyphname = uni0415;
layers = (
{
layerId = "DD39FC45-FCD0-450F-8BE5-088D761CC1D8";
paths = (
{
closed = 1;
nodes = (
"87 0 LINE",
"87 707 LINE",
"562 707 LINE",
"562 628 LINE",
"174 628 LINE",
"174 390 LINE",
"523 390 LINE",
"523 310 LINE",
"174 310 LINE",
"174 79 LINE",
"562 79 LINE",
"562 0 LINE"
);
}
);
width = 610;
}
);
unicode = 0415;
},
{
color = (153, 255, 194, 255);
glyphname = uni041C;
layers = (
{
layerId = "DD39FC45-FCD0-450F-8BE5-088D761CC1D8";
paths = (
{
closed = 1;
nodes = (
"87 0 LINE",
"87 707 LINE",
"217 707 LINE",
"433 318 LINE",
"646 707 LINE",
"773 707 LINE",
"773 0 LINE",
"686 0 LINE",
"686 619 LINE",
"451 184 LINE",
"411 184 LINE",
"174 619 LINE",
"174 0 LINE"
);
}
);
width = 860;
}
);
unicode = 041C;
},
{
color = (153, 255, 194, 255);
glyphname = uni041D;
layers = (
{
layerId = "DD39FC45-FCD0-450F-8BE5-088D761CC1D8";
paths = (
{
closed = 1;
nodes = (
"174 387 LINE",
"553 387 LINE",
"553 707 LINE",
"640 707 LINE",
"640 0 LINE",
"553 0 LINE",
"553 307 LINE",
"174 307 LINE",
"174 0 LINE",
"87 0 LINE",
"87 707 LINE",
"174 707 LINE"
);
}
);
width = 727;
}
);
unicode = 041D;
},
{
color = (153, 255, 194, 255);
glyphname = uni0420;
layers = (
{
layerId = "DD39FC45-FCD0-450F-8BE5-088D761CC1D8";
paths = (
{
closed = 1;
nodes = (
"87 0 LINE",
"87 707 LINE",
"332 707 LINE",
"449 707 OFFCURVE",
"581 592 OFFCURVE",
"581 472 QCURVE",
"581 411 OFFCURVE",
"538 319 OFFCURVE",
"500 289 QCURVE",
"468 263 OFFCURVE",
"372 233 OFFCURVE",
"314 233 QCURVE",
"174 233 LINE",
"174 0 LINE"
);
},
{
closed = 1;
nodes = (
"174 312 LINE",
"310 312 LINE",
"348 312 OFFCURVE",
"420 331 OFFCURVE",
"443 352 QCURVE",
"466 372 OFFCURVE",
"492 430 OFFCURVE",
"492 476 QCURVE",
"492 628 OFFCURVE",
"328 628 QCURVE",
"174 628 LINE"
);
}
);
width = 625;
}
);
unicode = 0420;
},
{
color = (153, 255, 194, 255);
glyphname = uni0422;
layers = (
{
layerId = "DD39FC45-FCD0-450F-8BE5-088D761CC1D8";
paths = (
{
closed = 1;
nodes = (
"328 0 LINE",
"241 0 LINE",
"241 628 LINE",
"14 628 LINE",
"14 707 LINE",
"555 707 LINE",
"555 628 LINE",
"328 628 LINE"
);
}
);
width = 569;
}
);
leftKerningGroup = _kern28;
rightKerningGroup = _kern28;
unicode = 0422;
},
{
color = (153, 255, 194, 255);
glyphname = uni0425;
layers = (
{
layerId = "DD39FC45-FCD0-450F-8BE5-088D761CC1D8";
paths = (
{
closed = 1;
nodes = (
"466 707 LINE",
"571 707 LINE",
"351 356 LINE",
"579 0 LINE",
"474 0 LINE",
"296 283 LINE",
"116 0 LINE",
"14 0 LINE",
"241 353 LINE",
"21 707 LINE",
"127 707 LINE",
"297 425 LINE"
);
}
);
width = 593;
}
);
unicode = 0425;
},
{
color = (153, 255, 194, 255);
glyphname = T;
layers = (
{
layerId = "DD39FC45-FCD0-450F-8BE5-088D761CC1D8";
paths = (
{
closed = 1;
nodes = (
"241 0 LINE",
"241 628 LINE",
"14 628 LINE",
"14 707 LINE",
"555 707 LINE",
"555 628 LINE",
"328 628 LINE",
"328 0 LINE"
);
}
);
width = 569;
}
);
leftKerningGroup = _kern28;
rightKerningGroup = _kern28;
unicode = 0054;
},
{
color = (153, 255, 194, 255);
glyphname = uni0412;
layers = (
{
layerId = "DD39FC45-FCD0-450F-8BE5-088D761CC1D8";
paths = (
{
closed = 1;
nodes = (
"86 707 LINE",
"334 707 LINE",
"385 707 OFFCURVE",
"468 695 OFFCURVE",
"501 673 QCURVE",
"530 654 OFFCURVE",
"570 584 OFFCURVE",
"570 530 QCURVE",
"570 476 OFFCURVE",
"521 392 OFFCURVE",
"470 372 QCURVE",
"538 360 OFFCURVE",
"606 269 OFFCURVE",
"606 197 QCURVE",
"603 131 OFFCURVE",
"553 57 OFFCURVE",
"475 15 OFFCURVE",
"378 0 OFFCURVE",
"329 0 QCURVE",
"86 0 LINE"
);
},
{
closed = 1;
nodes = (
"173 628 LINE",
"173 397 LINE",
"309 397 LINE",
"337 397 OFFCURVE",
"397 405 OFFCURVE",
"421 418 QCURVE",
"449 432 OFFCURVE",
"484 481 OFFCURVE",
"485 524 QCURVE",
"485 558 OFFCURVE",
"461 599 OFFCURVE",
"419 621 OFFCURVE",
"365 628 OFFCURVE",
"335 628 QCURVE"
);
},
{
closed = 1;
nodes = (
"326 79 LINE",
"358 79 OFFCURVE",
"423 85 OFFCURVE",
"482 110 OFFCURVE",
"518 159 OFFCURVE",
"518 201 QCURVE",
"518 237 OFFCURVE",
"491 283 OFFCURVE",
"446 309 OFFCURVE",
"388 319 OFFCURVE",
"358 319 QCURVE",
"173 319 LINE",
"173 79 LINE"
);
}
);
width = 655;
}
);
unicode = 0412;
},
{
color = (153, 255, 194, 255);
glyphname = uni041F;
layers = (
{
layerId = "DD39FC45-FCD0-450F-8BE5-088D761CC1D8";
paths = (
{
closed = 1;
nodes = (
"643 0 LINE",
"556 0 LINE",
"556 628 LINE",
"174 628 LINE",
"174 0 LINE",
"87 0 LINE",
"87 707 LINE",
"643 707 LINE"
);
}
);
width = 730;
}
);
unicode = 041F;
},
{
color = (153, 255, 194, 255);
glyphname = uni0413;
layers = (
{
layerId = "DD39FC45-FCD0-450F-8BE5-088D761CC1D8";
paths = (
{
closed = 1;
nodes = (
"87 0 LINE",
"87 707 LINE",
"542 707 LINE",
"542 628 LINE",
"174 628 LINE",
"174 0 LINE"
);
}
);
width = 571;
}
);
leftKerningGroup = _kern23;
rightKerningGroup = _kern23;
unicode = 0413;
},
{
color = (153, 255, 194, 255);
glyphname = uni041B;
layers = (
{
layerId = "DD39FC45-FCD0-450F-8BE5-088D761CC1D8";
paths = (
{
closed = 1;
nodes = (
"519 0 LINE",
"519 628 LINE",
"222 628 LINE",
"220 574 OFFCURVE",
"217 462 OFFCURVE",
"216 408 QCURVE",
"216 378 OFFCURVE",
"213 295 OFFCURVE",
"209 209 OFFCURVE",
"199 131 OFFCURVE",
"190 106 QCURVE",
"173 55 OFFCURVE",
"91 -5 OFFCURVE",
"14 -7 QCURVE",
"14 79 LINE",
"51 79 OFFCURVE",
"102 126 OFFCURVE",
"110 161 QCURVE",
"121 197 OFFCURVE",
"126 304 OFFCURVE",
"128 352 QCURVE",
"130 440 OFFCURVE",
"135 619 OFFCURVE",
"135 707 QCURVE",
"606 707 LINE",
"606 0 LINE"
);
}
);
width = 693;
}
);
unicode = 041B;
},
{
color = (153, 255, 194, 255);
glyphname = uni0414;
layers = (
{
layerId = "DD39FC45-FCD0-450F-8BE5-088D761CC1D8";
paths = (
{
closed = 1;
nodes = (
"22 -195 LINE",
"22 79 LINE",
"58 79 OFFCURVE",
"95 106 OFFCURVE",
"105 129 QCURVE",
"117 159 OFFCURVE",
"132 256 OFFCURVE",
"136 307 QCURVE",
"143 407 OFFCURVE",
"149 607 OFFCURVE",
"150 707 QCURVE",
"602 707 LINE",
"602 79 LINE",
"687 79 LINE",
"687 -195 LINE",
"600 -195 LINE",
"600 0 LINE",
"109 0 LINE",
"109 -195 LINE"
);
},
{
closed = 1;
nodes = (
"515 79 LINE",
"515 628 LINE",
"235 628 LINE",
"226 353 LINE",
"225 329 OFFCURVE",
"222 263 OFFCURVE",
"213 190 OFFCURVE",
"197 114 OFFCURVE",
"183 79 QCURVE"
);
}
);
width = 709;
}
);
rightKerningGroup = _kern12;
unicode = 0414;
},
{
color = (153, 255, 194, 255);
glyphname = uni0411;
layers = (
{
layerId = "DD39FC45-FCD0-450F-8BE5-088D761CC1D8";
paths = (
{
closed = 1;
nodes = (
"87 707 LINE",
"568 707 LINE",
"568 628 LINE",
"174 628 LINE",
"174 415 LINE",
"335 415 LINE",
"387 415 OFFCURVE",
"482 400 OFFCURVE",
"555 357 OFFCURVE",
"599 280 OFFCURVE",
"599 218 QCURVE",
"599 153 OFFCURVE",
"557 72 OFFCURVE",
"484 22 OFFCURVE",
"386 0 OFFCURVE",
"331 0 QCURVE",
"87 0 LINE"
);
},
{
closed = 1;
nodes = (
"174 79 LINE",
"320 79 LINE",
"356 79 OFFCURVE",
"425 88 OFFCURVE",
"479 117 OFFCURVE",
"511 169 OFFCURVE",
"511 212 QCURVE",
"511 255 OFFCURVE",
"479 304 OFFCURVE",
"427 329 OFFCURVE",
"360 336 OFFCURVE",
"325 336 QCURVE",
"174 336 LINE"
);
}
);
width = 654;
}
);
unicode = 0411;
},
{
color = (153, 255, 194, 255);
glyphname = uni0416;
layers = (
{
layerId = "DD39FC45-FCD0-450F-8BE5-088D761CC1D8";
paths = (
{
closed = 1;
nodes = (
"386 0 LINE",
"386 307 LINE",
"278 307 LINE",
"115 0 LINE",
"14 0 LINE",
"206 357 LINE",
"15 707 LINE",
"111 707 LINE",
"280 386 LINE",
"386 386 LINE",
"386 707 LINE",
"473 707 LINE",
"473 386 LINE",
"581 386 LINE",
"750 707 LINE",
"844 707 LINE",
"653 357 LINE",
"846 0 LINE",
"744 0 LINE",
"581 307 LINE",
"473 307 LINE",
"473 0 LINE"
);
}
);
width = 860;
}
);
unicode = 0416;
},
{
color = (153, 255, 194, 255);
glyphname = uni0417;
layers = (
{
layerId = "DD39FC45-FCD0-450F-8BE5-088D761CC1D8";
paths = (
{
closed = 1;
nodes = (
"78 75 OFFCURVE",
"45 142 OFFCURVE",
"44 182 QCURVE",
"131 182 LINE",
"133 151 OFFCURVE",
"157 122 QCURVE",
"172 105 OFFCURVE",
"212 85 OFFCURVE",
"255 74 OFFCURVE",
"297 71 OFFCURVE",
"313 71 QCURVE",
"338 71 OFFCURVE",
"399 79 OFFCURVE",
"452 105 OFFCURVE",
"488 156 OFFCURVE",
"488 198 QCURVE",
"488 240 OFFCURVE",
"453 291 OFFCURVE",
"428 303 QCURVE",
"402 316 OFFCURVE",
"336 320 OFFCURVE",
"310 320 QCURVE",
"224 320 LINE",
"224 398 LINE",
"275 398 LINE",
"304 398 OFFCURVE",
"367 405 OFFCURVE",
"394 419 QCURVE",
"422 433 OFFCURVE",
"460 483 OFFCURVE",
"461 519 QCURVE",
"461 555 OFFCURVE",
"434 601 OFFCURVE",
"388 627 OFFCURVE",
"335 636 OFFCURVE",
"309 636 QCURVE",
"275 636 OFFCURVE",
"211 620 OFFCURVE",
"188 602 QCURVE",
"171 588 OFFCURVE",
"150 552 OFFCURVE",
"150 529 QCURVE",
"63 529 LINE",
"63 537 LINE",
"63 559 OFFCURVE",
"83 611 OFFCURVE",
"98 632 QCURVE",
"135 677 OFFCURVE",
"249 715 OFFCURVE",
"315 715 QCURVE",
"360 715 OFFCURVE",
"443 696 OFFCURVE",
"507 653 OFFCURVE",
"546 583 OFFCURVE",
"546 533 QCURVE",
"546 514 OFFCURVE",
"539 472 OFFCURVE",
"517 430 OFFCURVE",
"476 390 OFFCURVE",
"442 374 QCURVE",
"473 368 OFFCURVE",
"524 336 OFFCURVE",
"558 290 OFFCURVE",
"577 234 OFFCURVE",
"577 203 QCURVE",
"577 197 LINE",
"576 141 OFFCURVE",
"530 63 OFFCURVE",
"457 14 OFFCURVE",
"363 -8 OFFCURVE",
"313 -8 QCURVE",
"254 -8 OFFCURVE",
"147 18 OFFCURVE",
"108 50 QCURVE"
);
}
);
width = 626;
}
);
leftKerningGroup = _kern7;
rightKerningGroup = _kern8;
unicode = 0417;
},
{
color = (153, 255, 194, 255);
glyphname = uni0418;
layers = (
{
layerId = "DD39FC45-FCD0-450F-8BE5-088D761CC1D8";
paths = (
{
closed = 1;
nodes = (
"87 0 LINE",
"87 707 LINE",
"174 707 LINE",
"174 136 LINE",
"553 707 LINE",
"645 707 LINE",
"645 0 LINE",
"558 0 LINE",
"558 566 LINE",
"178 0 LINE"
);
}
);
width = 732;
}
);
unicode = 0418;
},
{
color = (153, 255, 194, 255);
glyphname = uni0419;
layers = (
{
layerId = "DD39FC45-FCD0-450F-8BE5-088D761CC1D8";
paths = (
{
closed = 1;
nodes = (
"411 839 OFFCURVE",
"465 880 OFFCURVE",
"467 918 QCURVE",
"550 918 LINE",
"548 846 OFFCURVE",
"453 767 OFFCURVE",
"366 767 QCURVE",
"279 767 OFFCURVE",
"184 846 OFFCURVE",
"182 918 QCURVE",
"265 918 LINE",
"267 880 OFFCURVE",
"321 839 OFFCURVE",
"366 839 QCURVE"
);
},
{
closed = 1;
nodes = (
"87 0 LINE",
"87 707 LINE",
"174 707 LINE",
"174 136 LINE",
"553 707 LINE",
"645 707 LINE",
"645 0 LINE",
"558 0 LINE",
"558 566 LINE",
"178 0 LINE"
);
}
);
width = 732;
}
);
unicode = 0419;
},
{
color = (153, 255, 194, 255);
glyphname = uni041A;
layers = (
{
layerId = "DD39FC45-FCD0-450F-8BE5-088D761CC1D8";
paths = (
{
closed = 1;
nodes = (
"174 0 LINE",
"87 0 LINE",
"87 707 LINE",
"174 707 LINE",
"174 381 LINE",
"279 381 LINE",
"509 707 LINE",
"609 707 LINE",
"355 356 LINE",
"611 0 LINE",
"508 0 LINE",
"286 302 LINE",
"174 302 LINE"
);
}
);
width = 625;
}
);
unicode = 041A;
},
{
color = (153, 255, 194, 255);
glyphname = uni0423;
layers = (
{
layerId = "DD39FC45-FCD0-450F-8BE5-088D761CC1D8";
paths = (
{
closed = 1;
nodes = (
"116 81 LINE",
"147 81 OFFCURVE",
"197 88 OFFCURVE",
"239 109 OFFCURVE",
"276 147 OFFCURVE",
"293 179 QCURVE",
"15 707 LINE",
"118 707 LINE",
"343 269 LINE",
"521 707 LINE",
"615 707 LINE",
"583 635 OFFCURVE",
"520 484 OFFCURVE",
"488 408 QCURVE",
"464 351 OFFCURVE",
"413 234 OFFCURVE",
"385 179 QCURVE",
"366 141 OFFCURVE",
"323 75 OFFCURVE",
"299 53 QCURVE",
"262 20 OFFCURVE",
"174 -1 OFFCURVE",
"116 -1 QCURVE"
);
}
);
width = 614;
}
);
unicode = 0423;
},
{
color = (153, 255, 194, 255);
glyphname = uni0424;
layers = (
{
layerId = "DD39FC45-FCD0-450F-8BE5-088D761CC1D8";
paths = (
{
closed = 1;
nodes = (
"375 -9 LINE",
"375 106 LINE",
"295 106 LINE",
"235 107 OFFCURVE",
"143 150 OFFCURVE",
"80 223 OFFCURVE",
"48 323 OFFCURVE",
"48 382 QCURVE",
"49 443 OFFCURVE",
"89 541 OFFCURVE",
"158 609 OFFCURVE",
"253 646 OFFCURVE",
"310 646 QCURVE",
"375 646 LINE",
"375 746 LINE",
"462 746 LINE",
"462 646 LINE",
"526 646 LINE",
"583 646 OFFCURVE",
"678 609 OFFCURVE",
"748 541 OFFCURVE",
"788 443 OFFCURVE",
"789 382 QCURVE",
"789 323 OFFCURVE",
"755 223 OFFCURVE",
"691 150 OFFCURVE",
"597 107 OFFCURVE",
"537 106 QCURVE",
"462 106 LINE",
"462 -9 LINE"
);
},
{
closed = 1;
nodes = (
"317 571 LINE",
"275 571 OFFCURVE",
"208 543 OFFCURVE",
"161 494 OFFCURVE",
"136 425 OFFCURVE",
"136 384 QCURVE",
"136 340 OFFCURVE",
"156 266 OFFCURVE",
"199 212 OFFCURVE",
"266 181 OFFCURVE",
"313 181 QCURVE",
"375 181 LINE",
"375 571 LINE"
);
},
{
closed = 1;
nodes = (
"462 181 LINE",
"524 181 LINE",
"571 181 OFFCURVE",
"638 212 OFFCURVE",
"681 266 OFFCURVE",
"701 340 OFFCURVE",
"701 384 QCURVE",
"701 425 OFFCURVE",
"676 494 OFFCURVE",
"629 543 OFFCURVE",
"562 571 OFFCURVE",
"520 571 QCURVE",
"462 571 LINE"
);
}
);
width = 837;
}
);
leftKerningGroup = _kern7;
rightKerningGroup = _kern8;
unicode = 0424;
},
{
color = (153, 255, 194, 255);
glyphname = uni0426;
layers = (
{
layerId = "DD39FC45-FCD0-450F-8BE5-088D761CC1D8";
paths = (
{
closed = 1;
nodes = (
"87 0 LINE",
"87 707 LINE",
"174 707 LINE",
"174 79 LINE",
"533 79 LINE",
"533 707 LINE",
"620 707 LINE",
"620 79 LINE",
"705 79 LINE",
"705 -195 LINE",
"618 -195 LINE",
"618 0 LINE"
);
}
);
width = 724;
}
);
rightKerningGroup = _kern12;
unicode = 0426;
},
{
color = (153, 255, 194, 255);
glyphname = uni0427;
layers = (
{
layerId = "DD39FC45-FCD0-450F-8BE5-088D761CC1D8";
paths = (
{
closed = 1;
nodes = (
"397 328 OFFCURVE",
"458 332 OFFCURVE",
"487 336 QCURVE",
"487 707 LINE",
"574 707 LINE",
"574 0 LINE",
"487 0 LINE",
"487 258 LINE",
"468 256 OFFCURVE",
"376 249 OFFCURVE",
"336 249 OFFCURVE",
"318 249 QCURVE",
"258 250 OFFCURVE",
"164 271 OFFCURVE",
"99 322 OFFCURVE",
"64 408 OFFCURVE",
"64 475 QCURVE",
"64 707 LINE",
"151 707 LINE",
"151 499 LINE",
"151 445 OFFCURVE",
"173 379 OFFCURVE",
"218 343 OFFCURVE",
"286 329 OFFCURVE",
"333 328 QCURVE"
);
}
);
width = 661;
}
);
unicode = 0427;
},
{
color = (153, 255, 194, 255);
glyphname = uni0428;
layers = (
{
layerId = "DD39FC45-FCD0-450F-8BE5-088D761CC1D8";
paths = (
{
closed = 1;
nodes = (
"87 707 LINE",
"174 707 LINE",
"174 79 LINE",
"439 79 LINE",
"439 707 LINE",
"526 707 LINE",
"526 79 LINE",
"791 79 LINE",
"791 707 LINE",
"878 707 LINE",
"878 0 LINE",
"87 0 LINE"
);
}
);
width = 965;
}
);
unicode = 0428;
},
{
color = (153, 255, 194, 255);
glyphname = uni0429;
layers = (
{
layerId = "DD39FC45-FCD0-450F-8BE5-088D761CC1D8";
paths = (
{
closed = 1;
nodes = (
"87 707 LINE",
"174 707 LINE",
"174 79 LINE",
"439 79 LINE",
"439 707 LINE",
"526 707 LINE",
"526 79 LINE",
"791 79 LINE",
"791 707 LINE",
"878 707 LINE",
"878 79 LINE",
"963 79 LINE",
"963 -195 LINE",
"876 -195 LINE",
"876 0 LINE",
"87 0 LINE"
);
}
);
width = 982;
}
);
rightKerningGroup = _kern12;
unicode = 0429;
},
{
color = (153, 255, 194, 255);
glyphname = uni042A;
layers = (
{
layerId = "DD39FC45-FCD0-450F-8BE5-088D761CC1D8";
paths = (
{
closed = 1;
nodes = (
"184 628 LINE",
"14 628 LINE",
"14 707 LINE",
"271 707 LINE",
"271 415 LINE",
"417 415 LINE",
"469 415 OFFCURVE",
"564 400 OFFCURVE",
"637 357 OFFCURVE",
"681 280 OFFCURVE",
"681 218 QCURVE",
"681 153 OFFCURVE",
"638 72 OFFCURVE",
"564 22 OFFCURVE",
"466 0 OFFCURVE",
"411 0 QCURVE",
"184 0 LINE"
);
},
{
closed = 1;
nodes = (
"271 79 LINE",
"402 79 LINE",
"438 79 OFFCURVE",
"507 88 OFFCURVE",
"561 117 OFFCURVE",
"593 169 OFFCURVE",
"593 212 QCURVE",
"593 255 OFFCURVE",
"561 304 OFFCURVE",
"509 329 OFFCURVE",
"442 336 OFFCURVE",
"407 336 QCURVE",
"271 336 LINE"
);
}
);
width = 731;
}
);
unicode = 042A;
},
{
color = (153, 255, 194, 255);
glyphname = uni042B;
layers = (
{
layerId = "DD39FC45-FCD0-450F-8BE5-088D761CC1D8";
paths = (
{
closed = 1;
nodes = (
"87 707 LINE",
"174 707 LINE",
"174 415 LINE",
"299 415 LINE",
"351 415 OFFCURVE",
"446 400 OFFCURVE",
"519 357 OFFCURVE",
"563 280 OFFCURVE",
"563 218 QCURVE",
"563 153 OFFCURVE",
"521 72 OFFCURVE",
"448 22 OFFCURVE",
"350 0 OFFCURVE",
"295 0 QCURVE",
"87 0 LINE"
);
},
{
closed = 1;
nodes = (
"667 0 LINE",
"667 707 LINE",
"754 707 LINE",
"754 0 LINE"
);
},
{
closed = 1;
nodes = (
"174 79 LINE",
"284 79 LINE",
"320 79 OFFCURVE",
"389 88 OFFCURVE",
"443 117 OFFCURVE",
"475 169 OFFCURVE",
"475 212 QCURVE",
"475 255 OFFCURVE",
"443 304 OFFCURVE",
"391 329 OFFCURVE",
"324 336 OFFCURVE",
"289 336 QCURVE",
"174 336 LINE"
);
}
);
width = 841;
}
);
unicode = 042B;
},
{
color = (153, 255, 194, 255);
glyphname = uni042C;
layers = (
{
layerId = "DD39FC45-FCD0-450F-8BE5-088D761CC1D8";
paths = (
{
closed = 1;
nodes = (
"86 707 LINE",
"173 707 LINE",
"173 415 LINE",
"318 415 LINE",
"371 415 OFFCURVE",
"466 400 OFFCURVE",
"538 357 OFFCURVE",
"582 280 OFFCURVE",
"583 218 QCURVE",
"583 155 OFFCURVE",
"540 72 OFFCURVE",
"466 21 OFFCURVE",
"367 0 OFFCURVE",
"312 0 QCURVE",
"86 0 LINE"
);
},
{
closed = 1;
nodes = (
"173 79 LINE",
"304 79 LINE",
"341 79 OFFCURVE",
"409 89 OFFCURVE",
"462 117 OFFCURVE",
"494 167 OFFCURVE",
"494 212 QCURVE",
"494 255 OFFCURVE",
"462 304 OFFCURVE",
"410 329 OFFCURVE",
"343 336 OFFCURVE",
"308 336 QCURVE",
"173 336 LINE"
);
}
);
width = 633;
}
);
unicode = 042C;
},
{
color = (153, 255, 194, 255);
glyphname = uni042D;
layers = (
{
layerId = "DD39FC45-FCD0-450F-8BE5-088D761CC1D8";
paths = (
{
closed = 1;
nodes = (
"263 636 OFFCURVE",
"161 574 OFFCURVE",
"146 522 QCURVE",
"58 522 LINE",
"70 573 OFFCURVE",
"125 646 OFFCURVE",
"200 693 OFFCURVE",
"292 715 OFFCURVE",
"342 715 QCURVE",
"425 714 OFFCURVE",
"545 657 OFFCURVE",
"623 558 OFFCURVE",
"660 425 OFFCURVE",
"660 348 QCURVE",
"660 270 OFFCURVE",
"619 139 OFFCURVE",
"538 45 OFFCURVE",
"415 -8 OFFCURVE",
"333 -8 QCURVE",
"216 -8 OFFCURVE",
"71 97 OFFCURVE",
"48 185 QCURVE",
"143 185 LINE",
"158 133 OFFCURVE",
"261 71 OFFCURVE",
"336 71 QCURVE",
"393 71 OFFCURVE",
"478 108 OFFCURVE",
"536 174 OFFCURVE",
"567 263 OFFCURVE",
"569 314 QCURVE",
"243 314 LINE",
"243 393 LINE",
"569 393 LINE",
"566 442 OFFCURVE",
"535 530 OFFCURVE",
"478 597 OFFCURVE",
"394 636 OFFCURVE",
"338 636 QCURVE"
);
}
);
width = 708;
}
);
leftKerningGroup = _kern7;
rightKerningGroup = _kern8;
unicode = 042D;
},
{
color = (153, 255, 194, 255);
glyphname = uni042E;
layers = (
{
layerId = "DD39FC45-FCD0-450F-8BE5-088D761CC1D8";
paths = (
{
closed = 1;
nodes = (
"87 0 LINE",
"87 707 LINE",
"174 707 LINE",
"174 393 LINE",
"289 393 LINE",
"293 463 OFFCURVE",
"337 581 OFFCURVE",
"417 667 OFFCURVE",
"533 715 OFFCURVE",
"610 715 QCURVE",
"692 715 OFFCURVE",
"817 660 OFFCURVE",
"901 564 OFFCURVE",
"943 431 OFFCURVE",
"943 353 QCURVE",
"943 275 OFFCURVE",
"901 143 OFFCURVE",
"817 47 OFFCURVE",
"692 -8 OFFCURVE",
"610 -8 QCURVE",
"533 -8 OFFCURVE",
"417 40 OFFCURVE",
"337 126 OFFCURVE",
"293 244 OFFCURVE",
"289 314 QCURVE",
"174 314 LINE",
"174 0 LINE"
);
},
{
closed = 1;
nodes = (
"548 636 OFFCURVE",
"459 591 OFFCURVE",
"402 513 OFFCURVE",
"376 410 OFFCURVE",
"376 353 QCURVE",
"376 296 OFFCURVE",
"402 194 OFFCURVE",
"458 116 OFFCURVE",
"547 71 OFFCURVE",
"610 71 QCURVE",
"673 71 OFFCURVE",
"765 116 OFFCURVE",
"824 193 OFFCURVE",
"853 295 OFFCURVE",
"853 353 QCURVE",
"853 411 OFFCURVE",
"824 514 OFFCURVE",
"764 591 OFFCURVE",
"673 636 OFFCURVE",
"610 636 QCURVE"
);
}
);
width = 991;
}
);
rightKerningGroup = _kern8;
unicode = 042E;
},
{
color = (153, 255, 194, 255);
glyphname = uni042F;
layers = (
{
layerId = "DD39FC45-FCD0-450F-8BE5-088D761CC1D8";
paths = (
{
closed = 1;
nodes = (
"157 0 LINE",
"60 0 LINE",
"211 281 LINE",
"178 289 OFFCURVE",
"121 321 OFFCURVE",
"79 371 OFFCURVE",
"55 440 OFFCURVE",
"55 484 QCURVE",
"55 544 OFFCURVE",
"91 628 OFFCURVE",
"158 682 OFFCURVE",
"253 707 OFFCURVE",
"311 707 QCURVE",
"573 707 LINE",
"573 0 LINE",
"486 0 LINE",
"486 265 LINE",
"298 265 LINE"
);
},
{
closed = 1;
nodes = (
"486 344 LINE",
"486 628 LINE",
"310 628 LINE",
"225 628 OFFCURVE",
"143 558 OFFCURVE",
"143 487 QCURVE",
"143 442 OFFCURVE",
"174 388 OFFCURVE",
"229 356 OFFCURVE",
"298 344 OFFCURVE",
"337 344 QCURVE"
);
}
);
width = 660;
}
);
unicode = 042F;
},
{
color = (153, 255, 194, 255);
glyphname = uni0440;
layers = (
{
layerId = "DD39FC45-FCD0-450F-8BE5-088D761CC1D8";
paths = (
{
closed = 1;
nodes = (
"152 -190 LINE",
"67 -190 LINE",
"67 527 LINE",
"148 527 LINE",
"152 446 LINE",
"179 489 OFFCURVE",
"272 532 OFFCURVE",
"326 533 QCURVE",
"387 533 OFFCURVE",
"472 492 OFFCURVE",
"529 419 OFFCURVE",
"557 320 OFFCURVE",
"557 263 QCURVE",
"557 205 OFFCURVE",
"529 107 OFFCURVE",
"471 35 OFFCURVE",
"383 -6 OFFCURVE",
"322 -6 QCURVE",
"262 -6 OFFCURVE",
"178 32 OFFCURVE",
"152 63 QCURVE"
);
},
{
closed = 1;
nodes = (
"358 69 OFFCURVE",
"417 100 OFFCURVE",
"454 153 OFFCURVE",
"471 223 OFFCURVE",
"472 263 QCURVE",
"472 303 OFFCURVE",
"455 374 OFFCURVE",
"417 426 OFFCURVE",
"356 457 OFFCURVE",
"313 457 QCURVE",
"262 457 OFFCURVE",
"188 402 OFFCURVE",
"169 360 QCURVE",
"158 337 OFFCURVE",
"150 288 OFFCURVE",
"150 262 QCURVE",
"150 232 OFFCURVE",
"158 181 OFFCURVE",
"169 158 QCURVE",
"188 120 OFFCURVE",
"261 69 OFFCURVE",
"315 69 QCURVE"
);
}
);
width = 600;
}
);
leftKerningGroup = _kern11;
rightKerningGroup = _kern10;
unicode = 0440;
},
{
color = (153, 255, 194, 255);
glyphname = O;
layers = (
{
layerId = "DD39FC45-FCD0-450F-8BE5-088D761CC1D8";
paths = (
{
closed = 1;
nodes = (
"298 -8 OFFCURVE",
"174 47 OFFCURVE",
"90 143 OFFCURVE",
"48 275 OFFCURVE",
"48 353 QCURVE",
"48 431 OFFCURVE",
"90 564 OFFCURVE",
"174 660 OFFCURVE",
"298 715 OFFCURVE",
"381 715 QCURVE",
"463 715 OFFCURVE",
"587 660 OFFCURVE",
"671 564 OFFCURVE",
"713 431 OFFCURVE",
"713 353 QCURVE",
"713 275 OFFCURVE",
"671 143 OFFCURVE",
"587 47 OFFCURVE",
"463 -8 OFFCURVE",
"381 -8 QCURVE"
);
},
{
closed = 1;
nodes = (
"318 636 OFFCURVE",
"226 591 OFFCURVE",
"166 513 OFFCURVE",
"136 410 OFFCURVE",
"136 353 QCURVE",
"136 296 OFFCURVE",
"165 194 OFFCURVE",
"225 116 OFFCURVE",
"318 71 OFFCURVE",
"381 71 QCURVE",
"444 71 OFFCURVE",
"536 116 OFFCURVE",
"595 193 OFFCURVE",
"624 295 OFFCURVE",
"624 353 QCURVE",
"624 411 OFFCURVE",
"595 514 OFFCURVE",
"535 591 OFFCURVE",
"443 636 OFFCURVE",
"381 636 QCURVE"
);
}
);
width = 761;
}
);
leftKerningGroup = _kern3;
rightKerningGroup = _kern4;
unicode = 004F;
},
{
color = (153, 255, 194, 255);
glyphname = a;
layers = (
{
layerId = "DD39FC45-FCD0-450F-8BE5-088D761CC1D8";
paths = (
{
closed = 1;
nodes = (
"414 67 LINE",
"397 44 OFFCURVE",
"353 16 OFFCURVE",
"306 0 OFFCURVE",
"259 -6 OFFCURVE",
"236 -6 QCURVE",
"199 -6 OFFCURVE",
"133 12 OFFCURVE",
"80 52 OFFCURVE",
"49 112 OFFCURVE",
"49 150 QCURVE",
"49 195 OFFCURVE",
"82 256 OFFCURVE",
"138 294 OFFCURVE",
"211 309 OFFCURVE",
"252 309 QCURVE",
"407 309 LINE",
"407 376 OFFCURVE",
"349 455 OFFCURVE",
"280 457 QCURVE",
"238 457 OFFCURVE",
"174 429 OFFCURVE",
"162 397 QCURVE",
"71 397 LINE",
"78 433 OFFCURVE",
"120 484 OFFCURVE",
"178 517 OFFCURVE",
"246 533 OFFCURVE",
"280 533 QCURVE",
"339 533 OFFCURVE",
"420 494 OFFCURVE",
"470 431 OFFCURVE",
"490 341 OFFCURVE",
"490 285 QCURVE",
"490 0 LINE",
"419 0 LINE"
);
},
{
closed = 1;
nodes = (
"314 238 LINE",
"290 238 OFFCURVE",
"227 238 OFFCURVE",
"169 225 OFFCURVE",
"134 187 OFFCURVE",
"134 156 QCURVE",
"134 133 OFFCURVE",
"152 101 OFFCURVE",
"183 79 OFFCURVE",
"223 69 OFFCURVE",
"244 69 QCURVE",
"319 69 OFFCURVE",
"406 142 OFFCURVE",
"407 212 QCURVE",
"407 238 LINE"
);
}
);
width = 555;
}
);
leftKerningGroup = _kern27;
rightKerningGroup = _kern27;
unicode = 0061;
},
{
color = (153, 255, 194, 255);
glyphname = c;
layers = (
{
layerId = "DD39FC45-FCD0-450F-8BE5-088D761CC1D8";
paths = (
{
closed = 1;
nodes = (
"229 -6 OFFCURVE",
"137 34 OFFCURVE",
"77 106 OFFCURVE",
"47 204 OFFCURVE",
"47 262 QCURVE",
"47 318 OFFCURVE",
"79 417 OFFCURVE",
"141 490 OFFCURVE",
"235 533 OFFCURVE",
"302 533 QCURVE",
"342 533 OFFCURVE",
"404 516 OFFCURVE",
"459 479 OFFCURVE",
"499 419 OFFCURVE",
"508 376 QCURVE",
"421 376 LINE",
"406 420 OFFCURVE",
"341 458 OFFCURVE",
"297 457 QCURVE",
"254 457 OFFCURVE",
"189 424 OFFCURVE",
"150 370 OFFCURVE",
"132 299 OFFCURVE",
"132 262 QCURVE",
"132 223 OFFCURVE",
"151 153 OFFCURVE",
"190 100 OFFCURVE",
"252 69 OFFCURVE",
"295 69 QCURVE",
"316 69 OFFCURVE",
"357 77 OFFCURVE",
"392 96 OFFCURVE",
"418 128 OFFCURVE",
"424 151 QCURVE",
"512 151 LINE",
"504 110 OFFCURVE",
"463 51 OFFCURVE",
"403 12 OFFCURVE",
"331 -6 OFFCURVE",
"292 -6 QCURVE"
);
}
);
width = 553;
}
);
leftKerningGroup = _kern5;
rightKerningGroup = _kern6;
unicode = 0063;
},
{
color = (153, 255, 194, 255);
glyphname = e;
layers = (
{
layerId = "DD39FC45-FCD0-450F-8BE5-088D761CC1D8";
paths = (
{
closed = 1;
nodes = (
"133 232 LINE",
"136 197 OFFCURVE",
"159 138 OFFCURVE",
"199 94 OFFCURVE",
"258 69 OFFCURVE",
"297 69 QCURVE",
"316 69 OFFCURVE",
"357 76 OFFCURVE",
"393 93 OFFCURVE",
"421 121 OFFCURVE",
"428 141 QCURVE",
"515 141 LINE",
"506 103 OFFCURVE",
"463 47 OFFCURVE",
"404 11 OFFCURVE",
"332 -6 OFFCURVE",
"295 -6 QCURVE",
"232 -6 OFFCURVE",
"139 34 OFFCURVE",
"77 105 OFFCURVE",
"47 204 OFFCURVE",
"47 263 QCURVE",
"47 322 OFFCURVE",
"80 421 OFFCURVE",
"142 493 OFFCURVE",
"232 533 OFFCURVE",
"294 533 QCURVE",
"357 533 OFFCURVE",
"449 483 OFFCURVE",
"505 402 OFFCURVE",
"528 308 OFFCURVE",
"526 268 QCURVE",
"526 259 OFFCURVE",
"525 241 OFFCURVE",
"524 232 QCURVE"
);
},
{
closed = 1;
nodes = (
"440 306 LINE",
"438 373 OFFCURVE",
"358 457 OFFCURVE",
"291 457 QCURVE",
"254 457 OFFCURVE",
"198 433 OFFCURVE",
"160 391 OFFCURVE",
"138 336 OFFCURVE",
"135 306 QCURVE"
);
}
);
width = 573;
}
);
leftKerningGroup = _kern5;
rightKerningGroup = _kern6;
unicode = 0065;
},
{
color = (153, 255, 194, 255);
glyphname = f;
layers = (
{
layerId = "DD39FC45-FCD0-450F-8BE5-088D761CC1D8";
paths = (
{
closed = 1;
nodes = (
"118 0 LINE",
"118 452 LINE",
"32 452 LINE",
"32 527 LINE",
"118 527 LINE",
"118 583 LINE",
"118 671 OFFCURVE",
"194 753 OFFCURVE",
"284 753 QCURVE",
"344 753 LINE",
"344 678 LINE",
"293 678 LINE",
"239 678 OFFCURVE",
"203 624 OFFCURVE",
"203 573 QCURVE",
"203 527 LINE",
"344 527 LINE",
"344 452 LINE",
"203 452 LINE",
"203 0 LINE"
);
}
);
width = 366;
}
);
unicode = 0066;
},
{
color = (153, 255, 194, 255);
glyphname = g;
layers = (
{
layerId = "DD39FC45-FCD0-450F-8BE5-088D761CC1D8";
paths = (
{
closed = 1;
nodes = (
"537 4 LINE",
"537 -108 OFFCURVE",
"417 -236 OFFCURVE",
"296 -236 QCURVE",
"256 -236 OFFCURVE",
"183 -218 OFFCURVE",
"124 -179 OFFCURVE",
"83 -120 OFFCURVE",
"75 -79 QCURVE",
"163 -79 LINE",
"169 -102 OFFCURVE",
"198 -133 OFFCURVE",
"236 -152 OFFCURVE",
"280 -160 OFFCURVE",
"301 -160 QCURVE",
"341 -160 OFFCURVE",
"399 -135 OFFCURVE",
"435 -91 OFFCURVE",
"452 -30 OFFCURVE",
"452 6 QCURVE",
"452 79 LINE",
"426 33 OFFCURVE",
"330 -6 OFFCURVE",
"278 -6 QCURVE",
"218 -5 OFFCURVE",
"130 36 OFFCURVE",
"74 108 OFFCURVE",
"47 205 OFFCURVE",
"47 262 QCURVE",
"47 319 OFFCURVE",
"75 418 OFFCURVE",
"133 491 OFFCURVE",
"221 533 OFFCURVE",
"282 533 QCURVE",
"328 533 OFFCURVE",
"422 499 OFFCURVE",
"452 461 QCURVE",
"456 527 LINE",
"537 527 LINE"
);
},
{
closed = 1;
nodes = (
"246 457 OFFCURVE",
"186 426 OFFCURVE",
"149 374 OFFCURVE",
"132 303 OFFCURVE",
"132 263 QCURVE",
"132 219 OFFCURVE",
"148 152 OFFCURVE",
"186 100 OFFCURVE",
"246 69 OFFCURVE",
"290 69 QCURVE",
"341 69 OFFCURVE",
"407 117 OFFCURVE",
"427 153 QCURVE",
"441 178 OFFCURVE",
"453 237 OFFCURVE",
"453 266 QCURVE",
"453 302 OFFCURVE",
"440 362 OFFCURVE",
"423 388 QCURVE",
"403 417 OFFCURVE",
"337 457 OFFCURVE",
"289 457 QCURVE"
);
}
);
width = 604;
}
);
leftKerningGroup = _kern5;
unicode = 0067;
},
{
color = (153, 255, 194, 255);
glyphname = j;
layers = (
{
layerId = "DD39FC45-FCD0-450F-8BE5-088D761CC1D8";
paths = (
{
closed = 1;
nodes = (
"161 720 OFFCURVE",
"195 689 OFFCURVE",
"195 664 QCURVE",
"195 639 OFFCURVE",
"161 607 OFFCURVE",
"137 607 QCURVE",
"112 607 OFFCURVE",
"80 639 OFFCURVE",
"80 664 QCURVE",
"80 689 OFFCURVE",
"112 720 OFFCURVE",
"137 720 QCURVE"
);
},
{
closed = 1;
nodes = (
"180 527 LINE",
"180 -10 LINE",
"180 -98 OFFCURVE",
"104 -180 OFFCURVE",
"15 -180 QCURVE",
"-31 -180 LINE",
"-31 -106 LINE",
"5 -106 LINE",
"59 -106 OFFCURVE",
"95 -52 OFFCURVE",
"95 -1 QCURVE",
"95 527 LINE"
);
}
);
width = 254;
}
);
unicode = 006A;
},
{
color = (153, 255, 194, 255);
glyphname = o;
layers = (
{
layerId = "DD39FC45-FCD0-450F-8BE5-088D761CC1D8";
paths = (
{
closed = 1;
nodes = (
"362 533 OFFCURVE",
"454 493 OFFCURVE",
"517 421 OFFCURVE",
"548 322 OFFCURVE",
"548 263 QCURVE",
"548 204 OFFCURVE",
"517 105 OFFCURVE",
"454 34 OFFCURVE",
"360 -6 OFFCURVE",
"297 -6 QCURVE",
"234 -6 OFFCURVE",
"141 34 OFFCURVE",
"78 105 OFFCURVE",
"47 204 OFFCURVE",
"47 263 QCURVE",
"47 322 OFFCURVE",
"78 421 OFFCURVE",
"141 493 OFFCURVE",
"237 533 OFFCURVE",
"299 533 QCURVE"
);
},
{
closed = 1;
nodes = (
"340 69 OFFCURVE",
"403 99 OFFCURVE",
"444 152 OFFCURVE",
"463 222 OFFCURVE",
"463 263 QCURVE",
"463 303 OFFCURVE",
"444 374 OFFCURVE",
"403 427 OFFCURVE",
"340 457 OFFCURVE",
"297 457 QCURVE",
"254 457 OFFCURVE",
"192 427 OFFCURVE",
"151 374 OFFCURVE",
"132 303 OFFCURVE",
"132 263 QCURVE",
"132 222 OFFCURVE",
"151 152 OFFCURVE",
"192 99 OFFCURVE",
"254 69 OFFCURVE",
"297 69 QCURVE"
);
}
);
width = 595;
}
);
leftKerningGroup = _kern5;
rightKerningGroup = _kern6;
unicode = 006F;
},
{
color = (153, 255, 194, 255);
glyphname = r;
layers = (
{
layerId = "DD39FC45-FCD0-450F-8BE5-088D761CC1D8";
paths = (
{
closed = 1;
nodes = (
"67 0 LINE",
"67 527 LINE",
"149 527 LINE",
"153 445 LINE",
"182 491 OFFCURVE",
"272 533 OFFCURVE",
"329 533 QCURVE",
"356 533 LINE",
"356 453 LINE",
"325 453 LINE",
"278 453 OFFCURVE",
"212 422 OFFCURVE",
"171 369 OFFCURVE",
"152 297 OFFCURVE",
"152 257 QCURVE",
"152 0 LINE"
);
}
);
width = 373;
}
);
leftKerningGroup = _kern29;
rightKerningGroup = _kern29;
unicode = 0072;
},
{
color = (153, 255, 194, 255);
glyphname = t;
layers = (
{
layerId = "DD39FC45-FCD0-450F-8BE5-088D761CC1D8";
paths = (
{
closed = 1;
nodes = (
"200 527 LINE",
"341 527 LINE",
"341 452 LINE",
"200 452 LINE",
"200 179 LINE",
"200 125 OFFCURVE",
"239 74 OFFCURVE",
"299 74 QCURVE",
"338 74 LINE",
"338 0 LINE",
"281 0 LINE",
"191 0 OFFCURVE",
"115 82 OFFCURVE",
"115 170 QCURVE",
"115 452 LINE",
"29 452 LINE",
"29 527 LINE",
"115 527 LINE",
"115 684 LINE",
"200 684 LINE"
);
}
);
width = 370;
}
);
leftKerningGroup = _kern21;
rightKerningGroup = _kern21;
unicode = 0074;
},
{
color = (153, 255, 194, 255);
glyphname = y2_alt;
layers = (
{
layerId = "DD39FC45-FCD0-450F-8BE5-088D761CC1D8";
paths = (
{
closed = 1;
nodes = (
"441 527 LINE",
"537 527 LINE",
"388 112 LINE",
"377 80 OFFCURVE",
"348 -1 OFFCURVE",
"316 -82 OFFCURVE",
"275 -154 OFFCURVE",
"250 -176 QCURVE",
"213 -209 OFFCURVE",
"145 -226 OFFCURVE",
"102 -226 QCURVE",
"84 -226 LINE",
"84 -145 LINE",
"120 -145 OFFCURVE",
"170 -130 OFFCURVE",
"207 -98 OFFCURVE",
"234 -50 OFFCURVE",
"248 -17 QCURVE",
"17 527 LINE",
"117 527 LINE",
"295 84 LINE"
);
}
);
width = 549;
}
);
},
{
color = (153, 255, 194, 255);
glyphname = uni0443;
layers = (
{
layerId = "DD39FC45-FCD0-450F-8BE5-088D761CC1D8";
paths = (
{
closed = 1;
nodes = (
"441 527 LINE",
"537 527 LINE",
"388 112 LINE",
"376 80 OFFCURVE",
"349 -1 OFFCURVE",
"316 -82 OFFCURVE",
"275 -154 OFFCURVE",
"250 -176 QCURVE",
"213 -209 OFFCURVE",
"145 -226 OFFCURVE",
"102 -226 QCURVE",
"84 -226 LINE",
"84 -145 LINE",
"120 -145 OFFCURVE",
"170 -130 OFFCURVE",
"207 -98 OFFCURVE",
"234 -50 OFFCURVE",
"248 -17 QCURVE",
"17 527 LINE",
"117 527 LINE",
"295 83 LINE"
);
}
);
width = 549;
}
);
unicode = 0443;
},
{
color = (153, 255, 194, 255);
glyphname = uni0451;
layers = (
{
layerId = "DD39FC45-FCD0-450F-8BE5-088D761CC1D8";
paths = (
{
closed = 1;
nodes = (
"207 707 OFFCURVE",
"240 676 OFFCURVE",
"240 651 QCURVE",
"240 626 OFFCURVE",
"207 595 OFFCURVE",
"182 595 QCURVE",
"158 595 OFFCURVE",
"125 626 OFFCURVE",
"125 651 QCURVE",
"125 676 OFFCURVE",
"158 707 OFFCURVE",
"182 707 QCURVE"
);
},
{
closed = 1;
nodes = (
"432 707 OFFCURVE",
"465 676 OFFCURVE",
"465 651 QCURVE",
"465 626 OFFCURVE",
"432 595 OFFCURVE",
"407 595 QCURVE",
"383 595 OFFCURVE",
"351 626 OFFCURVE",
"351 651 QCURVE",
"351 676 OFFCURVE",
"383 707 OFFCURVE",
"407 707 QCURVE"
);
},
{
closed = 1;
nodes = (
"133 232 LINE",
"136 197 OFFCURVE",
"159 138 OFFCURVE",
"199 94 OFFCURVE",
"258 69 OFFCURVE",
"297 69 QCURVE",
"316 69 OFFCURVE",
"357 76 OFFCURVE",
"393 93 OFFCURVE",
"421 121 OFFCURVE",
"428 141 QCURVE",
"515 141 LINE",
"506 103 OFFCURVE",
"463 47 OFFCURVE",
"404 11 OFFCURVE",
"332 -6 OFFCURVE",
"295 -6 QCURVE",
"232 -6 OFFCURVE",
"139 34 OFFCURVE",
"77 105 OFFCURVE",
"47 204 OFFCURVE",
"47 263 QCURVE",
"47 322 OFFCURVE",
"80 421 OFFCURVE",
"142 493 OFFCURVE",
"232 533 OFFCURVE",
"294 533 QCURVE",
"357 533 OFFCURVE",
"449 483 OFFCURVE",
"505 402 OFFCURVE",
"528 308 OFFCURVE",
"526 268 QCURVE",
"526 259 OFFCURVE",
"525 241 OFFCURVE",
"524 232 QCURVE"
);
},
{
closed = 1;
nodes = (
"440 306 LINE",
"438 373 OFFCURVE",
"358 457 OFFCURVE",
"291 457 QCURVE",
"254 457 OFFCURVE",
"198 433 OFFCURVE",
"160 391 OFFCURVE",
"138 336 OFFCURVE",
"135 306 QCURVE"
);
}
);
width = 573;
}
);
leftKerningGroup = _kern9;
rightKerningGroup = _kern10;
unicode = 0451;
},
{
color = (153, 255, 194, 255);
glyphname = uni0437;
layers = (
{
layerId = "DD39FC45-FCD0-450F-8BE5-088D761CC1D8";
paths = (
{
closed = 1;
nodes = (
"431 267 OFFCURVE",
"471 199 OFFCURVE",
"471 152 QCURVE",
"470 110 OFFCURVE",
"433 50 OFFCURVE",
"373 12 OFFCURVE",
"297 -6 OFFCURVE",
"257 -6 QCURVE",
"219 -6 OFFCURVE",
"142 8 OFFCURVE",
"80 42 OFFCURVE",
"39 98 OFFCURVE",
"37 141 QCURVE",
"120 141 LINE",
"124 120 OFFCURVE",
"154 93 OFFCURVE",
"195 76 OFFCURVE",
"240 69 OFFCURVE",
"258 69 QCURVE",
"279 69 OFFCURVE",
"324 75 OFFCURVE",
"362 93 OFFCURVE",
"386 126 OFFCURVE",
"386 152 QCURVE",
"386 173 OFFCURVE",
"368 208 OFFCURVE",
"349 217 QCURVE",
"332 225 OFFCURVE",
"288 228 OFFCURVE",
"269 228 QCURVE",
"175 228 LINE",
"175 303 LINE",
"252 303 LINE",
"271 303 OFFCURVE",
"311 310 OFFCURVE",
"344 328 OFFCURVE",
"365 357 OFFCURVE",
"366 384 QCURVE",
"366 405 OFFCURVE",
"347 433 OFFCURVE",
"316 450 OFFCURVE",
"277 457 OFFCURVE",
"258 457 QCURVE",
"240 457 OFFCURVE",
"200 452 OFFCURVE",
"166 437 OFFCURVE",
"142 411 OFFCURVE",
"139 390 QCURVE",
"55 390 LINE",
"56 430 OFFCURVE",
"93 485 OFFCURVE",
"151 518 OFFCURVE",
"222 533 OFFCURVE",
"257 533 QCURVE",
"292 533 OFFCURVE",
"361 519 OFFCURVE",
"415 486 OFFCURVE",
"449 432 OFFCURVE",
"449 392 QCURVE",
"449 356 OFFCURVE",
"415 300 OFFCURVE",
"380 283 QCURVE"
);
}
);
width = 514;
}
);
leftKerningGroup = _kern9;
rightKerningGroup = _kern10;
unicode = 0437;
},
{
color = (153, 255, 194, 255);
glyphname = uni044D;
layers = (
{
layerId = "DD39FC45-FCD0-450F-8BE5-088D761CC1D8";
paths = (
{
closed = 1;
nodes = (
"419 298 LINE",
"414 368 OFFCURVE",
"339 456 OFFCURVE",
"266 457 QCURVE",
"244 457 OFFCURVE",
"201 449 OFFCURVE",
"164 430 OFFCURVE",
"136 399 OFFCURVE",
"130 376 QCURVE",
"44 376 LINE",
"52 412 OFFCURVE",
"86 466 OFFCURVE",
"110 486 QCURVE",
"144 512 OFFCURVE",
"223 533 OFFCURVE",
"265 533 QCURVE",
"330 533 OFFCURVE",
"419 492 OFFCURVE",
"477 420 OFFCURVE",
"505 321 OFFCURVE",
"505 263 QCURVE",
"505 203 OFFCURVE",
"476 104 OFFCURVE",
"416 33 OFFCURVE",
"325 -6 OFFCURVE",
"262 -6 QCURVE",
"223 -6 OFFCURVE",
"149 12 OFFCURVE",
"89 51 OFFCURVE",
"47 110 OFFCURVE",
"39 151 QCURVE",
"127 151 LINE",
"133 128 OFFCURVE",
"162 96 OFFCURVE",
"201 77 OFFCURVE",
"245 69 OFFCURVE",
"266 69 QCURVE",
"303 69 OFFCURVE",
"360 94 OFFCURVE",
"397 136 OFFCURVE",
"417 192 OFFCURVE",
"418 224 QCURVE",
"187 224 LINE",
"187 298 LINE"
);
}
);
width = 548;
}
);
leftKerningGroup = _kern9;
rightKerningGroup = _kern10;
unicode = 044D;
},
{
color = (153, 255, 194, 255);
glyphname = C;
layers = (
{
layerId = "DD39FC45-FCD0-450F-8BE5-088D761CC1D8";
paths = (
{
closed = 1;
nodes = (
"309 636 OFFCURVE",
"220 590 OFFCURVE",
"163 512 OFFCURVE",
"137 411 OFFCURVE",
"137 356 QCURVE",
"137 297 OFFCURVE",
"165 193 OFFCURVE",
"223 116 OFFCURVE",
"313 71 OFFCURVE",
"375 71 QCURVE",
"450 71 OFFCURVE",
"552 133 OFFCURVE",
"567 185 QCURVE",
"662 185 LINE",
"639 97 OFFCURVE",
"491 -8 OFFCURVE",
"373 -8 QCURVE",
"291 -8 OFFCURVE",
"169 46 OFFCURVE",
"88 142 OFFCURVE",
"48 274 OFFCURVE",
"48 353 QCURVE",
"48 431 OFFCURVE",
"88 563 OFFCURVE",
"170 660 OFFCURVE",
"292 715 OFFCURVE",
"375 715 QCURVE",
"433 715 OFFCURVE",
"526 687 OFFCURVE",
"595 636 OFFCURVE",
"639 565 OFFCURVE",
"649 522 QCURVE",
"561 522 LINE",
"546 574 OFFCURVE",
"447 636 OFFCURVE",
"372 636 QCURVE"
);
}
);
width = 704;
}
);
leftKerningGroup = _kern3;
rightKerningGroup = _kern4;
unicode = 0043;
},
{
color = (153, 255, 194, 255);
glyphname = S;
layers = (
{
layerId = "DD39FC45-FCD0-450F-8BE5-088D761CC1D8";
paths = (
{
closed = 1;
nodes = (
"304 636 OFFCURVE",
"247 626 OFFCURVE",
"201 601 OFFCURVE",
"172 558 OFFCURVE",
"172 525 QCURVE",
"172 485 OFFCURVE",
"214 436 OFFCURVE",
"244 423 QCURVE",
"268 413 OFFCURVE",
"322 399 OFFCURVE",
"379 387 OFFCURVE",
"434 375 OFFCURVE",
"460 366 QCURVE",
"521 345 OFFCURVE",
"594 267 OFFCURVE",
"594 203 QCURVE",
"594 143 OFFCURVE",
"553 65 OFFCURVE",
"484 15 OFFCURVE",
"393 -8 OFFCURVE",
"342 -8 QCURVE",
"291 -8 OFFCURVE",
"198 12 OFFCURVE",
"122 58 OFFCURVE",
"68 132 OFFCURVE",
"57 185 QCURVE",
"148 185 LINE",
"158 151 OFFCURVE",
"200 107 OFFCURVE",
"254 81 OFFCURVE",
"317 71 OFFCURVE",
"348 71 QCURVE",
"378 71 OFFCURVE",
"435 84 OFFCURVE",
"479 112 OFFCURVE",
"505 156 OFFCURVE",
"505 187 QCURVE",
"505 234 OFFCURVE",
"455 280 OFFCURVE",
"413 292 QCURVE",
"385 301 OFFCURVE",
"323 313 OFFCURVE",
"261 327 OFFCURVE",
"201 346 OFFCURVE",
"176 359 QCURVE",
"136 378 OFFCURVE",
"82 457 OFFCURVE",
"82 517 QCURVE",
"82 573 OFFCURVE",
"126 649 OFFCURVE",
"196 695 OFFCURVE",
"283 715 OFFCURVE",
"332 715 QCURVE",
"372 714 OFFCURVE",
"437 703 OFFCURVE",
"466 689 QCURVE",
"511 669 OFFCURVE",
"571 589 OFFCURVE",
"574 526 QCURVE",
"489 526 LINE",
"485 557 OFFCURVE",
"456 599 OFFCURVE",
"414 625 OFFCURVE",
"361 636 OFFCURVE",
"332 636 QCURVE"
);
}
);
width = 652;
}
);
leftKerningGroup = _kern3;
rightKerningGroup = _kern4;
unicode = 0053;
},
{
color = (153, 255, 194, 255);
glyphname = uni0421;
layers = (
{
layerId = "DD39FC45-FCD0-450F-8BE5-088D761CC1D8";
paths = (
{
closed = 1;
nodes = (
"309 636 OFFCURVE",
"220 590 OFFCURVE",
"163 512 OFFCURVE",
"137 411 OFFCURVE",
"137 356 QCURVE",
"137 297 OFFCURVE",
"165 193 OFFCURVE",
"223 116 OFFCURVE",
"313 71 OFFCURVE",
"375 71 QCURVE",
"450 71 OFFCURVE",
"552 133 OFFCURVE",
"567 185 QCURVE",
"662 185 LINE",
"639 97 OFFCURVE",
"491 -8 OFFCURVE",
"373 -8 QCURVE",
"291 -8 OFFCURVE",
"169 46 OFFCURVE",
"88 142 OFFCURVE",
"48 274 OFFCURVE",
"48 353 QCURVE",
"48 431 OFFCURVE",
"88 563 OFFCURVE",
"170 660 OFFCURVE",
"292 715 OFFCURVE",
"375 715 QCURVE",
"433 715 OFFCURVE",
"526 687 OFFCURVE",
"595 636 OFFCURVE",
"639 565 OFFCURVE",
"649 522 QCURVE",
"561 522 LINE",
"546 574 OFFCURVE",
"447 636 OFFCURVE",
"372 636 QCURVE"
);
}
);
width = 710;
}
);
leftKerningGroup = _kern7;
rightKerningGroup = _kern8;
unicode = 0421;
},
{
color = (153, 255, 194, 255);
glyphname = G;
layers = (
{
layerId = "DD39FC45-FCD0-450F-8BE5-088D761CC1D8";
paths = (
{
closed = 1;
nodes = (
"307 636 OFFCURVE",
"219 592 OFFCURVE",
"163 515 OFFCURVE",
"137 412 OFFCURVE",
"137 353 QCURVE",
"137 294 OFFCURVE",
"165 192 OFFCURVE",
"222 115 OFFCURVE",
"311 71 OFFCURVE",
"373 71 QCURVE",
"479 71 OFFCURVE",
"532 127 QCURVE",
"563 159 OFFCURVE",
"589 233 OFFCURVE",
"589 278 QCURVE",
"357 278 LINE",
"357 357 LINE",
"672 357 LINE",
"672 298 LINE",
"672 269 OFFCURVE",
"662 207 OFFCURVE",
"642 148 OFFCURVE",
"611 95 OFFCURVE",
"590 74 QCURVE",
"550 36 OFFCURVE",
"441 -8 OFFCURVE",
"372 -8 QCURVE",
"289 -8 OFFCURVE",
"168 46 OFFCURVE",
"87 141 OFFCURVE",
"48 273 OFFCURVE",
"48 351 QCURVE",
"48 429 OFFCURVE",
"87 562 OFFCURVE",
"166 659 OFFCURVE",
"287 715 OFFCURVE",
"370 715 QCURVE",
"487 715 OFFCURVE",
"631 610 OFFCURVE",
"654 522 QCURVE",
"559 522 LINE",
"544 574 OFFCURVE",
"444 636 OFFCURVE",
"369 636 QCURVE"
);
}
);
width = 720;
}
);
leftKerningGroup = _kern3;
rightKerningGroup = _kern4;
unicode = 0047;
},
{
color = (153, 255, 194, 255);
glyphname = uni041E;
layers = (
{
layerId = "DD39FC45-FCD0-450F-8BE5-088D761CC1D8";
paths = (
{
closed = 1;
nodes = (
"298 -8 OFFCURVE",
"174 47 OFFCURVE",
"90 143 OFFCURVE",
"48 275 OFFCURVE",
"48 353 QCURVE",
"48 431 OFFCURVE",
"90 564 OFFCURVE",
"174 660 OFFCURVE",
"298 715 OFFCURVE",
"381 715 QCURVE",
"463 715 OFFCURVE",
"587 660 OFFCURVE",
"671 564 OFFCURVE",
"713 431 OFFCURVE",
"713 353 QCURVE",
"713 275 OFFCURVE",
"671 143 OFFCURVE",
"587 47 OFFCURVE",
"463 -8 OFFCURVE",
"381 -8 QCURVE"
);
},
{
closed = 1;
nodes = (
"318 636 OFFCURVE",
"226 591 OFFCURVE",
"166 513 OFFCURVE",
"136 410 OFFCURVE",
"136 353 QCURVE",
"136 296 OFFCURVE",
"165 194 OFFCURVE",
"225 116 OFFCURVE",
"318 71 OFFCURVE",
"381 71 QCURVE",
"444 71 OFFCURVE",
"536 116 OFFCURVE",
"595 193 OFFCURVE",
"624 295 OFFCURVE",
"624 353 QCURVE",
"624 411 OFFCURVE",
"595 514 OFFCURVE",
"535 591 OFFCURVE",
"443 636 OFFCURVE",
"381 636 QCURVE"
);
}
);
width = 761;
}
);
leftKerningGroup = _kern7;
rightKerningGroup = _kern8;
unicode = 041E;
},
{
color = (153, 255, 194, 255);
glyphname = Q;
layers = (
{
layerId = "DD39FC45-FCD0-450F-8BE5-088D761CC1D8";
paths = (
{
closed = 1;
nodes = (
"524 19 LINE",
"462 -8 OFFCURVE",
"381 -8 QCURVE",
"298 -8 OFFCURVE",
"174 47 OFFCURVE",
"90 143 OFFCURVE",
"48 275 OFFCURVE",
"48 353 QCURVE",
"48 431 OFFCURVE",
"90 564 OFFCURVE",
"174 660 OFFCURVE",
"298 715 OFFCURVE",
"381 715 QCURVE",
"463 715 OFFCURVE",
"587 660 OFFCURVE",
"671 564 OFFCURVE",
"713 431 OFFCURVE",
"713 353 QCURVE",
"713 262 OFFCURVE",
"654 115 OFFCURVE",
"597 66 QCURVE",
"698 -74 LINE",
"630 -126 LINE"
);
},
{
closed = 1;
nodes = (
"318 636 OFFCURVE",
"226 591 OFFCURVE",
"166 513 OFFCURVE",
"136 410 OFFCURVE",
"136 353 QCURVE",
"136 296 OFFCURVE",
"165 194 OFFCURVE",
"225 116 OFFCURVE",
"318 71 OFFCURVE",
"381 71 QCURVE",
"444 71 OFFCURVE",
"536 116 OFFCURVE",
"595 193 OFFCURVE",
"624 295 OFFCURVE",
"624 353 QCURVE",
"624 411 OFFCURVE",
"595 514 OFFCURVE",
"535 591 OFFCURVE",
"443 636 OFFCURVE",
"381 636 QCURVE"
);
}
);
width = 761;
}
);
leftKerningGroup = _kern3;
rightKerningGroup = _kern4;
unicode = 0051;
},
{
color = (153, 255, 194, 255);
glyphname = J;
layers = (
{
layerId = "DD39FC45-FCD0-450F-8BE5-088D761CC1D8";
paths = (
{
closed = 1;
nodes = (
"130 195 LINE",
"136 138 OFFCURVE",
"200 72 OFFCURVE",
"266 71 QCURVE",
"301 71 OFFCURVE",
"348 94 OFFCURVE",
"377 135 OFFCURVE",
"389 192 OFFCURVE",
"389 226 QCURVE",
"389 707 LINE",
"476 707 LINE",
"476 244 LINE",
"476 188 OFFCURVE",
"454 96 OFFCURVE",
"404 29 OFFCURVE",
"324 -8 OFFCURVE",
"266 -8 QCURVE",
"162 -8 OFFCURVE",
"48 90 OFFCURVE",
"42 195 QCURVE"
);
}
);
width = 558;
}
);
unicode = 004A;
},
{
color = (153, 255, 194, 255);
glyphname = K_alt;
layers = (
{
layerId = "DD39FC45-FCD0-450F-8BE5-088D761CC1D8";
paths = (
{
closed = 1;
nodes = (
"87 0 LINE",
"87 707 LINE",
"174 707 LINE",
"174 342 LINE",
"513 707 LINE",
"614 707 LINE",
"315 388 LINE",
"616 0 LINE",
"513 0 LINE",
"252 332 LINE",
"174 249 LINE",
"174 0 LINE"
);
}
);
width = 630;
}
);
leftKerningGroup = _kern16;
rightKerningGroup = _kern16;
},
{
color = (153, 255, 194, 255);
glyphname = K;
layers = (
{
layerId = "DD39FC45-FCD0-450F-8BE5-088D761CC1D8";
paths = (
{
closed = 1;
nodes = (
"87 0 LINE",
"87 707 LINE",
"174 707 LINE",
"174 381 LINE",
"278 381 LINE",
"509 707 LINE",
"609 707 LINE",
"355 356 LINE",
"611 0 LINE",
"508 0 LINE",
"286 302 LINE",
"174 302 LINE",
"174 0 LINE"
);
}
);
width = 625;
}
);
leftKerningGroup = _kern1;
rightKerningGroup = _kern16;
unicode = 004B;
},
{
color = (153, 255, 194, 255);
glyphname = k_alt;
layers = (
{
layerId = "DD39FC45-FCD0-450F-8BE5-088D761CC1D8";
paths = (
{
closed = 1;
nodes = (
"67 0 LINE",
"67 707 LINE",
"152 707 LINE",
"152 270 LINE",
"402 527 LINE",
"501 527 LINE",
"289 309 LINE",
"513 0 LINE",
"414 0 LINE",
"228 254 LINE",
"152 176 LINE",
"152 0 LINE"
);
}
);
width = 527;
}
);
leftKerningGroup = _kern17;
rightKerningGroup = _kern17;
},
{
color = (153, 255, 194, 255);
glyphname = k;
layers = (
{
layerId = "DD39FC45-FCD0-450F-8BE5-088D761CC1D8";
paths = (
{
closed = 1;
nodes = (
"67 0 LINE",
"67 707 LINE",
"152 707 LINE",
"152 300 LINE",
"244 300 LINE",
"402 527 LINE",
"498 527 LINE",
"322 276 LINE",
"513 0 LINE",
"413 0 LINE",
"254 226 LINE",
"152 226 LINE",
"152 0 LINE"
);
}
);
width = 520;
}
);
leftKerningGroup = _kern17;
rightKerningGroup = _kern17;
unicode = 006B;
},
{
color = (153, 255, 194, 255);
glyphname = i_alt;
layers = (
{
layerId = "DD39FC45-FCD0-450F-8BE5-088D761CC1D8";
paths = (
{
closed = 1;
nodes = (
"165 720 OFFCURVE",
"198 689 OFFCURVE",
"198 664 QCURVE",
"198 639 OFFCURVE",
"165 607 OFFCURVE",
"140 607 QCURVE",
"116 607 OFFCURVE",
"83 639 OFFCURVE",
"83 664 QCURVE",
"83 689 OFFCURVE",
"116 720 OFFCURVE",
"140 720 QCURVE"
);
},
{
closed = 1;
nodes = (
"98 0 LINE",
"98 452 LINE",
"12 452 LINE",
"12 527 LINE",
"183 527 LINE",
"183 0 LINE"
);
}
);
width = 257;
}
);
},
{
color = (153, 255, 194, 255);
glyphname = j_alt;
layers = (
{
layerId = "DD39FC45-FCD0-450F-8BE5-088D761CC1D8";
paths = (
{
closed = 1;
nodes = (
"174 720 OFFCURVE",
"208 689 OFFCURVE",
"208 664 QCURVE",
"208 639 OFFCURVE",
"174 607 OFFCURVE",
"150 607 QCURVE",
"125 607 OFFCURVE",
"93 639 OFFCURVE",
"93 664 QCURVE",
"93 689 OFFCURVE",
"125 720 OFFCURVE",
"150 720 QCURVE"
);
},
{
closed = 1;
nodes = (
"193 -10 LINE",
"193 -98 OFFCURVE",
"117 -180 OFFCURVE",
"28 -180 QCURVE",
"-18 -180 LINE",
"-18 -106 LINE",
"18 -106 LINE",
"72 -106 OFFCURVE",
"108 -52 OFFCURVE",
"108 -1 QCURVE",
"108 452 LINE",
"21 452 LINE",
"21 527 LINE",
"193 527 LINE"
);
}
);
width = 267;
}
);
},
{
color = (153, 255, 194, 255);
glyphname = s_alt;
layers = (
{
layerId = "DD39FC45-FCD0-450F-8BE5-088D761CC1D8";
paths = (
{
closed = 1;
nodes = (
"254 457 OFFCURVE",
"210 452 OFFCURVE",
"171 437 OFFCURVE",
"145 407 OFFCURVE",
"145 382 QCURVE",
"146 353 OFFCURVE",
"193 321 OFFCURVE",
"232 312 QCURVE",
"250 308 OFFCURVE",
"299 300 OFFCURVE",
"349 293 OFFCURVE",
"392 285 OFFCURVE",
"405 282 QCURVE",
"454 268 OFFCURVE",
"498 202 OFFCURVE",
"498 156 QCURVE",
"498 107 OFFCURVE",
"462 50 OFFCURVE",
"434 31 QCURVE",
"397 9 OFFCURVE",
"321 -6 OFFCURVE",
"280 -6 QCURVE",
"234 -6 OFFCURVE",
"158 10 OFFCURVE",
"94 44 OFFCURVE",
"49 100 OFFCURVE",
"43 143 QCURVE",
"129 143 LINE",
"137 120 OFFCURVE",
"174 91 OFFCURVE",
"218 75 OFFCURVE",
"261 70 OFFCURVE",
"275 70 QCURVE",
"298 70 OFFCURVE",
"341 74 OFFCURVE",
"383 89 OFFCURVE",
"413 119 OFFCURVE",
"413 144 QCURVE",
"413 177 OFFCURVE",
"376 207 OFFCURVE",
"342 214 QCURVE",
"318 219 OFFCURVE",
"258 228 OFFCURVE",
"197 239 OFFCURVE",
"140 255 OFFCURVE",
"119 268 QCURVE",
"92 284 OFFCURVE",
"61 338 OFFCURVE",
"61 382 QCURVE",
"62 427 OFFCURVE",
"103 487 OFFCURVE",
"166 520 OFFCURVE",
"240 533 OFFCURVE",
"280 533 QCURVE",
"329 532 OFFCURVE",
"398 512 OFFCURVE",
"450 471 OFFCURVE",
"476 418 OFFCURVE",
"479 391 QCURVE",
"401 391 LINE",
"399 407 OFFCURVE",
"373 434 OFFCURVE",
"340 449 OFFCURVE",
"294 457 OFFCURVE",
"271 457 QCURVE"
);
}
);
width = 542;
}
);
leftKerningGroup = _kern5;
rightKerningGroup = _kern6;
},
{
color = (153, 255, 194, 255);
glyphname = s;
layers = (
{
layerId = "DD39FC45-FCD0-450F-8BE5-088D761CC1D8";
paths = (
{
closed = 1;
nodes = (
"237 457 OFFCURVE",
"200 452 OFFCURVE",
"165 437 OFFCURVE",
"140 408 OFFCURVE",
"139 384 QCURVE",
"139 350 OFFCURVE",
"190 316 OFFCURVE",
"231 308 QCURVE",
"248 304 OFFCURVE",
"288 297 OFFCURVE",
"327 290 OFFCURVE",
"362 282 OFFCURVE",
"374 278 QCURVE",
"470 248 OFFCURVE",
"470 149 QCURVE",
"469 101 OFFCURVE",
"430 42 OFFCURVE",
"371 8 OFFCURVE",
"296 -6 OFFCURVE",
"259 -6 QCURVE",
"223 -6 OFFCURVE",
"149 8 OFFCURVE",
"88 43 OFFCURVE",
"45 100 OFFCURVE",
"39 143 QCURVE",
"125 143 LINE",
"133 119 OFFCURVE",
"167 91 OFFCURVE",
"206 75 OFFCURVE",
"241 69 OFFCURVE",
"263 69 QCURVE",
"279 69 OFFCURVE",
"321 73 OFFCURVE",
"359 88 OFFCURVE",
"385 118 OFFCURVE",
"385 145 QCURVE",
"385 175 OFFCURVE",
"346 205 OFFCURVE",
"312 212 QCURVE",
"288 217 OFFCURVE",
"237 226 OFFCURVE",
"186 237 OFFCURVE",
"138 252 OFFCURVE",
"117 265 QCURVE",
"89 282 OFFCURVE",
"55 340 OFFCURVE",
"55 382 QCURVE",
"57 426 OFFCURVE",
"93 483 OFFCURVE",
"121 501 QCURVE",
"151 519 OFFCURVE",
"219 533 OFFCURVE",
"257 533 QCURVE",
"338 533 OFFCURVE",
"386 498 QCURVE",
"415 478 OFFCURVE",
"447 422 OFFCURVE",
"451 391 QCURVE",
"372 391 LINE",
"365 420 OFFCURVE",
"303 456 OFFCURVE",
"255 457 QCURVE"
);
}
);
width = 509;
}
);
leftKerningGroup = _kern5;
rightKerningGroup = _kern6;
unicode = 0073;
},
{
color = (153, 255, 194, 255);
glyphname = c_alt;
layers = (
{
layerId = "DD39FC45-FCD0-450F-8BE5-088D761CC1D8";
paths = (
{
closed = 1;
nodes = (
"229 -6 OFFCURVE",
"136 34 OFFCURVE",
"73 106 OFFCURVE",
"43 204 OFFCURVE",
"43 263 QCURVE",
"43 321 OFFCURVE",
"75 420 OFFCURVE",
"138 492 OFFCURVE",
"232 533 OFFCURVE",
"297 533 QCURVE",
"375 533 OFFCURVE",
"480 465 OFFCURVE",
"501 394 QCURVE",
"413 394 LINE",
"396 429 OFFCURVE",
"326 459 OFFCURVE",
"292 457 QCURVE",
"252 457 OFFCURVE",
"187 424 OFFCURVE",
"147 372 OFFCURVE",
"128 302 OFFCURVE",
"128 263 QCURVE",
"128 224 OFFCURVE",
"147 154 OFFCURVE",
"188 101 OFFCURVE",
"250 69 OFFCURVE",
"293 69 QCURVE",
"328 69 OFFCURVE",
"396 94 OFFCURVE",
"413 126 QCURVE",
"504 126 LINE",
"493 91 OFFCURVE",
"451 42 OFFCURVE",
"395 9 OFFCURVE",
"328 -6 OFFCURVE",
"292 -6 QCURVE"
);
}
);
width = 547;
}
);
leftKerningGroup = _kern5;
rightKerningGroup = _kern6;
},
{
color = (153, 255, 194, 255);
glyphname = copyright;
layers = (
{
layerId = "DD39FC45-FCD0-450F-8BE5-088D761CC1D8";
paths = (
{
closed = 1;
nodes = (
"552 715 OFFCURVE",
"701 656 OFFCURVE",
"808 547 OFFCURVE",
"868 392 OFFCURVE",
"868 296 QCURVE",
"868 199 OFFCURVE",
"809 44 OFFCURVE",
"703 -64 OFFCURVE",
"553 -122 OFFCURVE",
"463 -122 QCURVE",
"373 -122 OFFCURVE",
"224 -64 OFFCURVE",
"117 44 OFFCURVE",
"59 199 OFFCURVE",
"59 296 QCURVE",
"59 392 OFFCURVE",
"119 547 OFFCURVE",
"226 656 OFFCURVE",
"374 715 OFFCURVE",
"463 715 QCURVE"
);
},
{
closed = 1;
nodes = (
"392 641 OFFCURVE",
"273 593 OFFCURVE",
"187 503 OFFCURVE",
"139 375 OFFCURVE",
"139 296 QCURVE",
"139 216 OFFCURVE",
"186 89 OFFCURVE",
"271 0 OFFCURVE",
"391 -48 OFFCURVE",
"463 -48 QCURVE",
"535 -48 OFFCURVE",
"655 0 OFFCURVE",
"740 89 OFFCURVE",
"787 216 OFFCURVE",
"787 296 QCURVE",
"787 375 OFFCURVE",
"739 503 OFFCURVE",
"653 593 OFFCURVE",
"534 641 OFFCURVE",
"463 641 QCURVE"
);
},
{
closed = 1;
nodes = (
"421 83 OFFCURVE",
"348 115 OFFCURVE",
"299 172 OFFCURVE",
"275 250 OFFCURVE",
"275 297 QCURVE",
"275 343 OFFCURVE",
"300 421 OFFCURVE",
"348 478 OFFCURVE",
"421 510 OFFCURVE",
"469 510 QCURVE",
"541 510 OFFCURVE",
"631 447 OFFCURVE",
"645 375 QCURVE",
"564 375 LINE",
"555 410 OFFCURVE",
"505 437 OFFCURVE",
"470 437 QCURVE",
"439 437 OFFCURVE",
"396 414 OFFCURVE",
"369 376 OFFCURVE",
"356 325 OFFCURVE",
"356 297 QCURVE",
"356 268 OFFCURVE",
"369 217 OFFCURVE",
"397 179 OFFCURVE",
"440 156 OFFCURVE",
"471 156 QCURVE",
"506 156 OFFCURVE",
"557 183 OFFCURVE",
"566 218 QCURVE",
"649 218 LINE",
"635 149 OFFCURVE",
"540 83 OFFCURVE",
"470 83 QCURVE"
);
}
);
width = 927;
}
);
unicode = 00A9;
},
{
color = (153, 255, 194, 255);
glyphname = ampersand;
layers = (
{
layerId = "DD39FC45-FCD0-450F-8BE5-088D761CC1D8";
paths = (
{
closed = 1;
nodes = (
"483 62 LINE",
"441 24 OFFCURVE",
"340 -8 OFFCURVE",
"283 -8 QCURVE",
"240 -8 OFFCURVE",
"162 16 OFFCURVE",
"102 63 OFFCURVE",
"67 135 OFFCURVE",
"67 183 QCURVE",
"67 250 OFFCURVE",
"145 346 OFFCURVE",
"214 381 QCURVE",
"136 454 OFFCURVE",
"136 541 QCURVE",
"136 585 OFFCURVE",
"166 649 OFFCURVE",
"214 693 OFFCURVE",
"279 715 OFFCURVE",
"322 715 QCURVE",
"394 713 OFFCURVE",
"486 634 OFFCURVE",
"486 559 QCURVE",
"486 527 OFFCURVE",
"462 471 OFFCURVE",
"421 422 OFFCURVE",
"366 381 OFFCURVE",
"335 365 QCURVE",
"485 187 LINE",
"502 210 OFFCURVE",
"524 276 OFFCURVE",
"529 312 QCURVE",
"613 312 LINE",
"608 255 OFFCURVE",
"568 164 OFFCURVE",
"541 126 QCURVE",
"653 0 LINE",
"539 0 LINE"
);
},
{
closed = 1;
nodes = (
"304 427 OFFCURVE",
"345 455 OFFCURVE",
"379 489 OFFCURVE",
"403 529 OFFCURVE",
"404 550 QCURVE",
"406 589 OFFCURVE",
"355 636 OFFCURVE",
"315 636 QCURVE",
"270 636 OFFCURVE",
"222 588 OFFCURVE",
"221 546 QCURVE",
"221 525 OFFCURVE",
"234 489 OFFCURVE",
"253 457 OFFCURVE",
"276 429 OFFCURVE",
"286 417 QCURVE"
);
},
{
closed = 1;
nodes = (
"259 324 LINE",
"217 302 OFFCURVE",
"158 234 OFFCURVE",
"158 185 QCURVE",
"158 156 OFFCURVE",
"182 113 OFFCURVE",
"221 85 OFFCURVE",
"271 71 OFFCURVE",
"297 71 QCURVE",
"331 71 OFFCURVE",
"402 93 OFFCURVE",
"433 124 QCURVE"
);
}
);
width = 677;
}
);
unicode = 0026;
},
{
color = (153, 255, 194, 255);
glyphname = dollar;
layers = (
{
layerId = "DD39FC45-FCD0-450F-8BE5-088D761CC1D8";
paths = (
{
closed = 1;
nodes = (
"296 844 LINE",
"384 844 LINE",
"384 712 LINE",
"424 708 OFFCURVE",
"492 681 OFFCURVE",
"543 635 OFFCURVE",
"574 569 OFFCURVE",
"576 526 QCURVE",
"491 526 LINE",
"487 557 OFFCURVE",
"458 599 OFFCURVE",
"416 625 OFFCURVE",
"363 636 OFFCURVE",
"334 636 QCURVE",
"306 636 OFFCURVE",
"249 626 OFFCURVE",
"203 601 OFFCURVE",
"174 558 OFFCURVE",
"174 525 QCURVE",
"174 485 OFFCURVE",
"215 437 OFFCURVE",
"245 424 QCURVE",
"269 414 OFFCURVE",
"324 400 OFFCURVE",
"380 387 OFFCURVE",
"436 374 OFFCURVE",
"462 366 QCURVE",
"524 346 OFFCURVE",
"596 267 OFFCURVE",
"596 199 QCURVE",
"596 148 OFFCURVE",
"562 73 OFFCURVE",
"503 23 OFFCURVE",
"423 -4 OFFCURVE",
"378 -7 QCURVE",
"378 -138 LINE",
"291 -138 LINE",
"291 -5 LINE",
"249 -1 OFFCURVE",
"173 25 OFFCURVE",
"111 71 OFFCURVE",
"68 139 OFFCURVE",
"59 185 QCURVE",
"150 185 LINE",
"160 151 OFFCURVE",
"202 107 OFFCURVE",
"256 81 OFFCURVE",
"319 71 OFFCURVE",
"350 71 QCURVE",
"380 71 OFFCURVE",
"437 84 OFFCURVE",
"481 112 OFFCURVE",
"507 156 OFFCURVE",
"507 187 QCURVE",
"507 234 OFFCURVE",
"457 280 OFFCURVE",
"415 292 QCURVE",
"387 301 OFFCURVE",
"325 313 OFFCURVE",
"264 326 OFFCURVE",
"204 344 OFFCURVE",
"178 358 QCURVE",
"136 380 OFFCURVE",
"84 457 OFFCURVE",
"84 517 QCURVE",
"84 566 OFFCURVE",
"119 637 OFFCURVE",
"177 685 OFFCURVE",
"254 711 OFFCURVE",
"296 714 QCURVE"
);
}
);
width = 656;
}
);
unicode = 0024;
},
{
color = (153, 255, 194, 255);
glyphname = parenleft;
layers = (
{
layerId = "DD39FC45-FCD0-450F-8BE5-088D761CC1D8";
paths = (
{
closed = 1;
nodes = (
"338 818 LINE",
"285 749 OFFCURVE",
"213 620 OFFCURVE",
"169 493 OFFCURVE",
"150 367 OFFCURVE",
"150 302 QCURVE",
"150 236 OFFCURVE",
"170 111 OFFCURVE",
"215 -15 OFFCURVE",
"286 -143 OFFCURVE",
"336 -212 QCURVE",
"244 -212 LINE",
"199 -159 OFFCURVE",
"132 -32 OFFCURVE",
"87 103 OFFCURVE",
"65 239 OFFCURVE",
"65 302 QCURVE",
"65 365 OFFCURVE",
"88 502 OFFCURVE",
"133 637 OFFCURVE",
"201 765 OFFCURVE",
"246 818 QCURVE"
);
}
);
width = 308;
}
);
unicode = 0028;
},
{
color = (153, 255, 194, 255);
glyphname = parenright;
layers = (
{
layerId = "DD39FC45-FCD0-450F-8BE5-088D761CC1D8";
paths = (
{
closed = 1;
nodes = (
"-30 -212 LINE",
"22 -143 OFFCURVE",
"94 -13 OFFCURVE",
"138 113 OFFCURVE",
"158 239 OFFCURVE",
"158 304 QCURVE",
"158 370 OFFCURVE",
"138 495 OFFCURVE",
"93 621 OFFCURVE",
"22 749 OFFCURVE",
"-28 818 QCURVE",
"64 818 LINE",
"109 765 OFFCURVE",
"176 638 OFFCURVE",
"221 503 OFFCURVE",
"243 367 OFFCURVE",
"243 304 QCURVE",
"243 241 OFFCURVE",
"220 104 OFFCURVE",
"175 -31 OFFCURVE",
"107 -159 OFFCURVE",
"62 -212 QCURVE"
);
}
);
width = 308;
}
);
unicode = 0029;
},
{
color = (153, 255, 194, 255);
glyphname = cent;
layers = (
{
layerId = "DD39FC45-FCD0-450F-8BE5-088D761CC1D8";
paths = (
{
closed = 1;
nodes = (
"257 -2 LINE",
"207 6 OFFCURVE",
"133 52 OFFCURVE",
"83 121 OFFCURVE",
"59 211 OFFCURVE",
"59 263 QCURVE",
"59 315 OFFCURVE",
"84 405 OFFCURVE",
"134 475 OFFCURVE",
"208 521 OFFCURVE",
"257 529 QCURVE",
"257 671 LINE",
"344 671 LINE",
"344 531 LINE",
"413 525 OFFCURVE",
"507 450 OFFCURVE",
"521 376 QCURVE",
"434 376 LINE",
"422 420 OFFCURVE",
"356 457 OFFCURVE",
"312 457 QCURVE",
"266 457 OFFCURVE",
"203 426 OFFCURVE",
"163 372 OFFCURVE",
"144 302 OFFCURVE",
"144 263 QCURVE",
"144 224 OFFCURVE",
"163 154 OFFCURVE",
"204 101 OFFCURVE",
"270 69 OFFCURVE",
"309 69 QCURVE",
"330 69 OFFCURVE",
"371 76 OFFCURVE",
"405 96 OFFCURVE",
"431 128 OFFCURVE",
"437 151 QCURVE",
"525 151 LINE",
"518 115 OFFCURVE",
"485 60 OFFCURVE",
"437 22 OFFCURVE",
"377 0 OFFCURVE",
"344 -4 QCURVE",
"344 -160 LINE",
"257 -160 LINE"
);
}
);
width = 584;
}
);
unicode = 00A2;
},
{
color = (153, 255, 194, 255);
glyphname = section;
layers = (
{
layerId = "DD39FC45-FCD0-450F-8BE5-088D761CC1D8";
paths = (
{
closed = 1;
nodes = (
"255 639 OFFCURVE",
"218 634 OFFCURVE",
"185 620 OFFCURVE",
"161 591 OFFCURVE",
"161 567 QCURVE",
"161 549 OFFCURVE",
"177 525 OFFCURVE",
"202 511 OFFCURVE",
"232 502 OFFCURVE",
"246 499 QCURVE",
"264 495 OFFCURVE",
"306 487 OFFCURVE",
"348 478 OFFCURVE",
"385 470 OFFCURVE",
"397 467 QCURVE",
"448 452 OFFCURVE",
"488 392 OFFCURVE",
"488 346 QCURVE",
"487 315 OFFCURVE",
"459 262 OFFCURVE",
"439 246 QCURVE",
"466 232 OFFCURVE",
"490 181 OFFCURVE",
"490 143 QCURVE",
"489 98 OFFCURVE",
"450 40 OFFCURVE",
"392 6 OFFCURVE",
"321 -8 OFFCURVE",
"288 -8 QCURVE",
"242 -7 OFFCURVE",
"169 8 OFFCURVE",
"108 42 OFFCURVE",
"65 98 OFFCURVE",
"59 141 QCURVE",
"145 141 LINE",
"153 117 OFFCURVE",
"187 89 OFFCURVE",
"227 74 OFFCURVE",
"266 67 OFFCURVE",
"280 67 QCURVE",
"298 67 OFFCURVE",
"342 70 OFFCURVE",
"379 84 OFFCURVE",
"405 112 OFFCURVE",
"405 137 QCURVE",
"405 156 OFFCURVE",
"391 179 OFFCURVE",
"368 193 OFFCURVE",
"338 199 OFFCURVE",
"323 202 QCURVE",
"302 206 OFFCURVE",
"251 214 OFFCURVE",
"203 225 OFFCURVE",
"153 241 OFFCURVE",
"135 252 QCURVE",
"108 266 OFFCURVE",
"72 326 OFFCURVE",
"72 364 QCURVE",
"72 397 OFFCURVE",
"97 453 OFFCURVE",
"124 472 QCURVE",
"80 508 OFFCURVE",
"80 565 QCURVE",
"81 608 OFFCURVE",
"119 667 OFFCURVE",
"176 700 OFFCURVE",
"242 713 OFFCURVE",
"279 713 QCURVE",
"316 713 OFFCURVE",
"380 697 OFFCURVE",
"433 662 OFFCURVE",
"469 608 OFFCURVE",
"473 571 QCURVE",
"394 571 LINE",
"390 589 OFFCURVE",
"366 615 OFFCURVE",
"334 631 OFFCURVE",
"299 639 OFFCURVE",
"277 639 QCURVE"
);
},
{
closed = 1;
nodes = (
"172 425 OFFCURVE",
"155 387 OFFCURVE",
"155 368 QCURVE",
"155 336 OFFCURVE",
"203 303 OFFCURVE",
"239 297 QCURVE",
"254 294 OFFCURVE",
"289 287 OFFCURVE",
"325 281 OFFCURVE",
"359 276 OFFCURVE",
"372 274 QCURVE",
"386 280 OFFCURVE",
"406 315 OFFCURVE",
"407 335 QCURVE",
"407 369 OFFCURVE",
"366 397 OFFCURVE",
"332 405 QCURVE",
"297 413 OFFCURVE",
"220 426 OFFCURVE",
"185 436 QCURVE"
);
}
);
width = 550;
}
);
unicode = 00A7;
},
{
color = (153, 255, 194, 255);
glyphname = uni04C1;
layers = (
{
layerId = "DD39FC45-FCD0-450F-8BE5-088D761CC1D8";
paths = (
{
closed = 1;
nodes = (
"472 853 OFFCURVE",
"521 885 OFFCURVE",
"523 920 QCURVE",
"601 920 LINE",
"599 854 OFFCURVE",
"508 787 OFFCURVE",
"429 787 QCURVE",
"350 787 OFFCURVE",
"261 854 OFFCURVE",
"259 920 QCURVE",
"337 920 LINE",
"339 885 OFFCURVE",
"388 853 OFFCURVE",
"430 853 QCURVE"
);
},
{
closed = 1;
nodes = (
"386 0 LINE",
"386 307 LINE",
"278 307 LINE",
"115 0 LINE",
"14 0 LINE",
"206 357 LINE",
"15 707 LINE",
"111 707 LINE",
"280 386 LINE",
"386 386 LINE",
"386 707 LINE",
"473 707 LINE",
"473 386 LINE",
"581 386 LINE",
"750 707 LINE",
"844 707 LINE",
"653 357 LINE",
"846 0 LINE",
"744 0 LINE",
"581 307 LINE",
"473 307 LINE",
"473 0 LINE"
);
}
);
width = 860;
}
);
unicode = 04C1;
},
{
color = (153, 255, 194, 255);
glyphname = uni04C2;
layers = (
{
layerId = "DD39FC45-FCD0-450F-8BE5-088D761CC1D8";
paths = (
{
closed = 1;
nodes = (
"423 672 OFFCURVE",
"472 704 OFFCURVE",
"474 739 QCURVE",
"552 739 LINE",
"550 673 OFFCURVE",
"459 606 OFFCURVE",
"380 606 QCURVE",
"301 606 OFFCURVE",
"212 673 OFFCURVE",
"210 739 QCURVE",
"288 739 LINE",
"290 704 OFFCURVE",
"339 672 OFFCURVE",
"381 672 QCURVE"
);
},
{
closed = 1;
nodes = (
"423 0 LINE",
"338 0 LINE",
"338 227 LINE",
"262 227 LINE",
"113 0 LINE",
"14 0 LINE",
"197 276 LINE",
"29 527 LINE",
"122 527 LINE",
"273 299 LINE",
"338 299 LINE",
"338 527 LINE",
"423 527 LINE",
"423 299 LINE",
"488 299 LINE",
"639 527 LINE",
"732 527 LINE",
"564 276 LINE",
"747 0 LINE",
"648 0 LINE",
"499 227 LINE",
"423 227 LINE"
);
}
);
width = 761;
}
);
unicode = 04C2;
},
{
color = (153, 255, 194, 255);
glyphname = w_alt;
layers = (
{
layerId = "DD39FC45-FCD0-450F-8BE5-088D761CC1D8";
paths = (
{
closed = 1;
nodes = (
"540 82 LINE",
"664 527 LINE",
"760 527 LINE",
"597 0 LINE",
"480 0 LINE",
"387 268 LINE",
"293 0 LINE",
"178 0 LINE",
"14 527 LINE",
"110 527 LINE",
"236 82 LINE",
"346 399 LINE",
"429 399 LINE"
);
}
);
width = 774;
}
);
leftKerningGroup = _kern20;
rightKerningGroup = _kern20;
},
{
color = (153, 255, 194, 255);
glyphname = W_alt;
layers = (
{
layerId = "DD39FC45-FCD0-450F-8BE5-088D761CC1D8";
paths = (
{
closed = 1;
nodes = (
"466 417 LINE",
"339 0 LINE",
"207 0 LINE",
"14 707 LINE",
"112 707 LINE",
"275 75 LINE",
"415 538 LINE",
"519 538 LINE",
"658 75 LINE",
"821 707 LINE",
"915 707 LINE",
"722 0 LINE",
"594 0 LINE"
);
}
);
width = 929;
}
);
leftKerningGroup = _kern19;
rightKerningGroup = _kern19;
},
{
color = (153, 255, 194, 255);
glyphname = zero;
layers = (
{
layerId = "DD39FC45-FCD0-450F-8BE5-088D761CC1D8";
paths = (
{
closed = 1;
nodes = (
"609 285 OFFCURVE",
"582 155 OFFCURVE",
"518 54 OFFCURVE",
"412 -8 OFFCURVE",
"333 -8 QCURVE",
"253 -8 OFFCURVE",
"147 54 OFFCURVE",
"83 155 OFFCURVE",
"57 281 OFFCURVE",
"57 353 QCURVE",
"57 425 OFFCURVE",
"83 552 OFFCURVE",
"147 652 OFFCURVE",
"253 715 OFFCURVE",
"333 715 QCURVE",
"412 715 OFFCURVE",
"518 653 OFFCURVE",
"582 551 OFFCURVE",
"609 421 OFFCURVE",
"609 353 QCURVE"
);
},
{
closed = 1;
nodes = (
"146 305 OFFCURVE",
"160 205 OFFCURVE",
"200 123 OFFCURVE",
"273 71 OFFCURVE",
"333 71 QCURVE",
"392 71 OFFCURVE",
"465 123 OFFCURVE",
"505 205 OFFCURVE",
"519 305 OFFCURVE",
"519 353 QCURVE",
"519 400 OFFCURVE",
"505 500 OFFCURVE",
"465 583 OFFCURVE",
"392 636 OFFCURVE",
"333 636 QCURVE",
"273 636 OFFCURVE",
"200 583 OFFCURVE",
"160 500 OFFCURVE",
"146 400 OFFCURVE",
"146 353 QCURVE"
);
}
);
width = 665;
}
);
unicode = 0030;
},
{
color = (153, 255, 194, 255);
glyphname = one;
layers = (
{
layerId = "DD39FC45-FCD0-450F-8BE5-088D761CC1D8";
paths = (
{
closed = 1;
nodes = (
"256 0 LINE",
"169 0 LINE",
"169 567 LINE",
"25 567 LINE",
"25 626 LINE",
"55 628 OFFCURVE",
"105 635 OFFCURVE",
"147 653 OFFCURVE",
"181 683 OFFCURVE",
"195 707 QCURVE",
"256 707 LINE"
);
}
);
width = 363;
}
);
unicode = 0031;
},
{
color = (153, 255, 194, 255);
glyphname = two;
layers = (
{
layerId = "DD39FC45-FCD0-450F-8BE5-088D761CC1D8";
paths = (
{
closed = 1;
nodes = (
"230 247 LINE",
"257 270 OFFCURVE",
"322 325 OFFCURVE",
"379 389 OFFCURVE",
"419 460 OFFCURVE",
"420 502 QCURVE",
"422 566 OFFCURVE",
"344 635 OFFCURVE",
"280 635 QCURVE",
"229 635 OFFCURVE",
"153 593 OFFCURVE",
"141 553 QCURVE",
"48 553 LINE",
"55 594 OFFCURVE",
"100 655 OFFCURVE",
"165 695 OFFCURVE",
"243 715 OFFCURVE",
"284 715 QCURVE",
"333 715 OFFCURVE",
"415 688 OFFCURVE",
"475 636 OFFCURVE",
"508 559 OFFCURVE",
"508 510 QCURVE",
"508 461 OFFCURVE",
"479 383 OFFCURVE",
"430 317 OFFCURVE",
"368 259 OFFCURVE",
"335 230 QCURVE",
"156 79 LINE",
"516 79 LINE",
"516 0 LINE",
"30 0 LINE",
"30 72 LINE"
);
}
);
width = 566;
}
);
unicode = 0032;
},
{
color = (153, 255, 194, 255);
glyphname = three;
layers = (
{
layerId = "DD39FC45-FCD0-450F-8BE5-088D761CC1D8";
paths = (
{
closed = 1;
nodes = (
"249 -8 OFFCURVE",
"164 8 OFFCURVE",
"91 47 OFFCURVE",
"40 111 OFFCURVE",
"33 158 QCURVE",
"123 158 LINE",
"132 132 OFFCURVE",
"169 99 OFFCURVE",
"216 79 OFFCURVE",
"268 71 OFFCURVE",
"292 71 QCURVE",
"314 71 OFFCURVE",
"370 79 OFFCURVE",
"419 105 OFFCURVE",
"452 156 OFFCURVE",
"452 198 QCURVE",
"452 238 OFFCURVE",
"421 286 OFFCURVE",
"372 312 OFFCURVE",
"311 320 OFFCURVE",
"280 320 QCURVE",
"212 320 LINE",
"212 398 LINE",
"253 398 LINE",
"280 398 OFFCURVE",
"326 401 OFFCURVE",
"354 413 QCURVE",
"386 428 OFFCURVE",
"424 483 OFFCURVE",
"425 519 QCURVE",
"425 555 OFFCURVE",
"401 601 OFFCURVE",
"361 627 OFFCURVE",
"311 636 OFFCURVE",
"285 636 QCURVE",
"264 636 OFFCURVE",
"219 627 OFFCURVE",
"180 607 OFFCURVE",
"150 574 OFFCURVE",
"144 551 QCURVE",
"57 551 LINE",
"63 595 OFFCURVE",
"107 657 OFFCURVE",
"172 697 OFFCURVE",
"251 715 OFFCURVE",
"292 715 QCURVE",
"337 715 OFFCURVE",
"416 696 OFFCURVE",
"476 653 OFFCURVE",
"511 583 OFFCURVE",
"511 533 QCURVE",
"511 514 OFFCURVE",
"503 471 OFFCURVE",
"481 429 OFFCURVE",
"439 387 OFFCURVE",
"405 373 QCURVE",
"472 360 OFFCURVE",
"542 269 OFFCURVE",
"542 205 QCURVE",
"542 201 LINE",
"542 146 OFFCURVE",
"503 67 OFFCURVE",
"435 16 OFFCURVE",
"343 -8 OFFCURVE",
"291 -8 QCURVE"
);
}
);
width = 599;
}
);
unicode = 0033;
},
{
color = (153, 255, 194, 255);
glyphname = four;
layers = (
{
layerId = "DD39FC45-FCD0-450F-8BE5-088D761CC1D8";
paths = (
{
closed = 1;
nodes = (
"513 707 LINE",
"513 220 LINE",
"596 220 LINE",
"596 141 LINE",
"513 141 LINE",
"513 0 LINE",
"426 0 LINE",
"426 141 LINE",
"42 141 LINE",
"42 206 LINE",
"388 707 LINE"
);
},
{
closed = 1;
nodes = (
"147 220 LINE",
"426 220 LINE",
"426 628 LINE"
);
}
);
width = 633;
}
);
unicode = 0034;
},
{
color = (153, 255, 194, 255);
glyphname = seven;
layers = (
{
layerId = "DD39FC45-FCD0-450F-8BE5-088D761CC1D8";
paths = (
{
closed = 1;
nodes = (
"100 0 LINE",
"386 627 LINE",
"12 627 LINE",
"12 707 LINE",
"482 707 LINE",
"482 635 LINE",
"196 0 LINE"
);
}
);
width = 505;
}
);
unicode = 0037;
},
{
color = (153, 255, 194, 255);
glyphname = eight;
layers = (
{
layerId = "DD39FC45-FCD0-450F-8BE5-088D761CC1D8";
paths = (
{
closed = 1;
nodes = (
"565 140 OFFCURVE",
"521 61 OFFCURVE",
"450 13 OFFCURVE",
"359 -8 OFFCURVE",
"311 -8 QCURVE",
"263 -8 OFFCURVE",
"172 13 OFFCURVE",
"100 61 OFFCURVE",
"57 140 OFFCURVE",
"57 197 QCURVE",
"57 257 OFFCURVE",
"119 344 OFFCURVE",
"174 365 QCURVE",
"144 379 OFFCURVE",
"106 419 OFFCURVE",
"85 464 OFFCURVE",
"78 509 OFFCURVE",
"78 528 QCURVE",
"78 577 OFFCURVE",
"118 648 OFFCURVE",
"183 694 OFFCURVE",
"267 715 OFFCURVE",
"311 715 QCURVE",
"355 715 OFFCURVE",
"439 694 OFFCURVE",
"504 648 OFFCURVE",
"544 577 OFFCURVE",
"544 528 QCURVE",
"544 509 OFFCURVE",
"536 464 OFFCURVE",
"515 421 OFFCURVE",
"477 382 OFFCURVE",
"447 368 QCURVE",
"504 347 OFFCURVE",
"565 257 OFFCURVE",
"565 197 QCURVE"
);
},
{
closed = 1;
nodes = (
"281 636 OFFCURVE",
"229 622 OFFCURVE",
"190 593 OFFCURVE",
"168 548 OFFCURVE",
"168 516 QCURVE",
"168 483 OFFCURVE",
"192 439 OFFCURVE",
"232 411 OFFCURVE",
"283 397 OFFCURVE",
"311 397 QCURVE",
"339 397 OFFCURVE",
"390 411 OFFCURVE",
"429 439 OFFCURVE",
"453 483 OFFCURVE",
"454 512 QCURVE",
"454 546 OFFCURVE",
"431 593 OFFCURVE",
"392 623 OFFCURVE",
"340 636 OFFCURVE",
"311 636 QCURVE"
);
},
{
closed = 1;
nodes = (
"280 320 OFFCURVE",
"221 307 OFFCURVE",
"174 277 OFFCURVE",
"146 230 OFFCURVE",
"146 196 QCURVE",
"146 157 OFFCURVE",
"180 109 OFFCURVE",
"230 81 OFFCURVE",
"287 71 OFFCURVE",
"311 71 QCURVE",
"335 71 OFFCURVE",
"392 81 OFFCURVE",
"441 109 OFFCURVE",
"475 157 OFFCURVE",
"475 196 QCURVE",
"475 230 OFFCURVE",
"447 277 OFFCURVE",
"401 307 OFFCURVE",
"342 320 OFFCURVE",
"311 320 QCURVE"
);
}
);
width = 622;
}
);
unicode = 0038;
},
{
color = (153, 255, 194, 255);
glyphname = nine;
layers = (
{
layerId = "DD39FC45-FCD0-450F-8BE5-088D761CC1D8";
paths = (
{
closed = 1;
nodes = (
"481 365 LINE",
"467 336 OFFCURVE",
"423 295 OFFCURVE",
"369 269 OFFCURVE",
"310 258 OFFCURVE",
"280 258 QCURVE",
"233 258 OFFCURVE",
"151 287 OFFCURVE",
"90 343 OFFCURVE",
"54 425 OFFCURVE",
"54 479 QCURVE",
"54 532 OFFCURVE",
"90 619 OFFCURVE",
"155 681 OFFCURVE",
"243 715 OFFCURVE",
"300 715 QCURVE",
"378 715 OFFCURVE",
"480 646 OFFCURVE",
"540 538 OFFCURVE",
"564 404 OFFCURVE",
"564 339 QCURVE",
"564 267 OFFCURVE",
"531 130 OFFCURVE",
"494 82 QCURVE",
"462 40 OFFCURVE",
"359 -8 OFFCURVE",
"287 -8 QCURVE",
"249 -8 OFFCURVE",
"176 11 OFFCURVE",
"116 50 OFFCURVE",
"72 107 OFFCURVE",
"62 146 QCURVE",
"158 146 LINE",
"175 108 OFFCURVE",
"256 71 OFFCURVE",
"297 71 QCURVE",
"346 72 OFFCURVE",
"414 110 OFFCURVE",
"435 142 QCURVE",
"450 165 OFFCURVE",
"468 222 OFFCURVE",
"478 277 OFFCURVE",
"481 327 OFFCURVE",
"481 343 QCURVE"
);
},
{
closed = 1;
nodes = (
"143 417 OFFCURVE",
"224 339 OFFCURVE",
"293 338 QCURVE",
"325 338 OFFCURVE",
"382 358 OFFCURVE",
"425 396 OFFCURVE",
"450 449 OFFCURVE",
"450 481 QCURVE",
"450 515 OFFCURVE",
"427 572 OFFCURVE",
"386 613 OFFCURVE",
"330 636 OFFCURVE",
"297 636 QCURVE",
"264 636 OFFCURVE",
"207 612 OFFCURVE",
"166 572 OFFCURVE",
"143 518 OFFCURVE",
"143 487 QCURVE"
);
}
);
width = 620;
}
);
unicode = 0039;
},
{
color = (153, 255, 194, 255);
glyphname = uni0430;
layers = (
{
layerId = "DD39FC45-FCD0-450F-8BE5-088D761CC1D8";
paths = (
{
closed = 1;
nodes = (
"414 67 LINE",
"397 44 OFFCURVE",
"353 16 OFFCURVE",
"306 0 OFFCURVE",
"259 -6 OFFCURVE",
"236 -6 QCURVE",
"199 -6 OFFCURVE",
"133 12 OFFCURVE",
"80 52 OFFCURVE",
"49 112 OFFCURVE",
"49 150 QCURVE",
"49 195 OFFCURVE",
"82 256 OFFCURVE",
"138 294 OFFCURVE",
"211 309 OFFCURVE",
"252 309 QCURVE",
"407 309 LINE",
"407 376 OFFCURVE",
"349 455 OFFCURVE",
"280 457 QCURVE",
"238 457 OFFCURVE",
"174 429 OFFCURVE",
"162 397 QCURVE",
"71 397 LINE",
"78 433 OFFCURVE",
"120 484 OFFCURVE",
"178 517 OFFCURVE",
"246 533 OFFCURVE",
"280 533 QCURVE",
"339 533 OFFCURVE",
"420 494 OFFCURVE",
"470 431 OFFCURVE",
"490 341 OFFCURVE",
"490 285 QCURVE",
"490 0 LINE",
"419 0 LINE"
);
},
{
closed = 1;
nodes = (
"314 238 LINE",
"290 238 OFFCURVE",
"227 238 OFFCURVE",
"169 225 OFFCURVE",
"134 187 OFFCURVE",
"134 156 QCURVE",
"134 133 OFFCURVE",
"152 101 OFFCURVE",
"183 79 OFFCURVE",
"223 69 OFFCURVE",
"244 69 QCURVE",
"319 69 OFFCURVE",
"406 142 OFFCURVE",
"407 212 QCURVE",
"407 238 LINE"
);
}
);
width = 555;
}
);
leftKerningGroup = _kern27;
rightKerningGroup = _kern27;
unicode = 0430;
},
{
color = (153, 255, 194, 255);
glyphname = uni0435;
layers = (
{
layerId = "DD39FC45-FCD0-450F-8BE5-088D761CC1D8";
paths = (
{
closed = 1;
nodes = (
"133 232 LINE",
"136 197 OFFCURVE",
"159 138 OFFCURVE",
"199 94 OFFCURVE",
"258 69 OFFCURVE",
"297 69 QCURVE",
"316 69 OFFCURVE",
"357 76 OFFCURVE",
"393 93 OFFCURVE",
"421 121 OFFCURVE",
"428 141 QCURVE",
"515 141 LINE",
"506 103 OFFCURVE",
"463 47 OFFCURVE",
"404 11 OFFCURVE",
"332 -6 OFFCURVE",
"295 -6 QCURVE",
"232 -6 OFFCURVE",
"139 34 OFFCURVE",
"77 105 OFFCURVE",
"47 204 OFFCURVE",
"47 263 QCURVE",
"47 322 OFFCURVE",
"80 421 OFFCURVE",
"142 493 OFFCURVE",
"232 533 OFFCURVE",
"294 533 QCURVE",
"357 533 OFFCURVE",
"449 483 OFFCURVE",
"505 402 OFFCURVE",
"528 308 OFFCURVE",
"526 268 QCURVE",
"526 259 OFFCURVE",
"525 241 OFFCURVE",
"524 232 QCURVE"
);
},
{
closed = 1;
nodes = (
"440 306 LINE",
"438 373 OFFCURVE",
"358 457 OFFCURVE",
"291 457 QCURVE",
"254 457 OFFCURVE",
"198 433 OFFCURVE",
"160 391 OFFCURVE",
"138 336 OFFCURVE",
"135 306 QCURVE"
);
}
);
width = 573;
}
);
leftKerningGroup = _kern9;
rightKerningGroup = _kern10;
unicode = 0435;
},
{
color = (153, 255, 194, 255);
glyphname = uni043E;
layers = (
{
layerId = "DD39FC45-FCD0-450F-8BE5-088D761CC1D8";
paths = (
{
closed = 1;
nodes = (
"362 533 OFFCURVE",
"454 493 OFFCURVE",
"517 421 OFFCURVE",
"548 322 OFFCURVE",
"548 263 QCURVE",
"548 204 OFFCURVE",
"517 105 OFFCURVE",
"454 34 OFFCURVE",
"360 -6 OFFCURVE",
"297 -6 QCURVE",
"234 -6 OFFCURVE",
"141 34 OFFCURVE",
"78 105 OFFCURVE",
"47 204 OFFCURVE",
"47 263 QCURVE",
"47 322 OFFCURVE",
"78 421 OFFCURVE",
"141 493 OFFCURVE",
"235 533 OFFCURVE",
"299 533 QCURVE"
);
},
{
closed = 1;
nodes = (
"340 69 OFFCURVE",
"403 99 OFFCURVE",
"444 152 OFFCURVE",
"463 222 OFFCURVE",
"463 263 QCURVE",
"463 303 OFFCURVE",
"444 374 OFFCURVE",
"403 427 OFFCURVE",
"340 457 OFFCURVE",
"297 457 QCURVE",
"254 457 OFFCURVE",
"192 427 OFFCURVE",
"151 374 OFFCURVE",
"132 303 OFFCURVE",
"132 263 QCURVE",
"132 222 OFFCURVE",
"151 152 OFFCURVE",
"192 99 OFFCURVE",
"254 69 OFFCURVE",
"297 69 QCURVE"
);
}
);
width = 595;
}
);
leftKerningGroup = _kern9;
rightKerningGroup = _kern10;
unicode = 043E;
},
{
color = (153, 255, 194, 255);
glyphname = uni0441;
layers = (
{
layerId = "DD39FC45-FCD0-450F-8BE5-088D761CC1D8";
paths = (
{
closed = 1;
nodes = (
"229 -6 OFFCURVE",
"137 34 OFFCURVE",
"77 106 OFFCURVE",
"47 204 OFFCURVE",
"47 262 QCURVE",
"47 318 OFFCURVE",
"79 417 OFFCURVE",
"141 490 OFFCURVE",
"235 533 OFFCURVE",
"302 533 QCURVE",
"342 533 OFFCURVE",
"404 516 OFFCURVE",
"459 479 OFFCURVE",
"499 419 OFFCURVE",
"508 376 QCURVE",
"421 376 LINE",
"406 420 OFFCURVE",
"341 458 OFFCURVE",
"297 457 QCURVE",
"254 457 OFFCURVE",
"189 424 OFFCURVE",
"150 370 OFFCURVE",
"132 299 OFFCURVE",
"132 262 QCURVE",
"132 223 OFFCURVE",
"151 153 OFFCURVE",
"190 100 OFFCURVE",
"252 69 OFFCURVE",
"295 69 QCURVE",
"316 69 OFFCURVE",
"357 77 OFFCURVE",
"392 96 OFFCURVE",
"418 128 OFFCURVE",
"424 151 QCURVE",
"512 151 LINE",
"504 110 OFFCURVE",
"463 51 OFFCURVE",
"403 12 OFFCURVE",
"331 -6 OFFCURVE",
"292 -6 QCURVE"
);
}
);
width = 553;
}
);
leftKerningGroup = _kern9;
rightKerningGroup = _kern10;
unicode = 0441;
},
{
color = (153, 255, 194, 255);
glyphname = uni0218;
layers = (
{
layerId = "DD39FC45-FCD0-450F-8BE5-088D761CC1D8";
paths = (
{
closed = 1;
nodes = (
"295 636 OFFCURVE",
"238 626 OFFCURVE",
"192 601 OFFCURVE",
"163 558 OFFCURVE",
"163 525 QCURVE",
"163 485 OFFCURVE",
"205 436 OFFCURVE",
"235 423 QCURVE",
"259 413 OFFCURVE",
"313 399 OFFCURVE",
"370 387 OFFCURVE",
"425 375 OFFCURVE",
"451 366 QCURVE",
"512 346 OFFCURVE",
"585 267 OFFCURVE",
"585 203 QCURVE",
"585 143 OFFCURVE",
"544 65 OFFCURVE",
"474 15 OFFCURVE",
"382 -8 OFFCURVE",
"332 -8 QCURVE",
"281 -8 OFFCURVE",
"188 12 OFFCURVE",
"112 58 OFFCURVE",
"59 132 OFFCURVE",
"48 185 QCURVE",
"139 185 LINE",
"149 151 OFFCURVE",
"191 107 OFFCURVE",
"245 81 OFFCURVE",
"308 71 OFFCURVE",
"339 71 QCURVE",
"369 71 OFFCURVE",
"426 84 OFFCURVE",
"470 112 OFFCURVE",
"496 156 OFFCURVE",
"496 187 QCURVE",
"496 234 OFFCURVE",
"446 280 OFFCURVE",
"404 292 QCURVE",
"376 301 OFFCURVE",
"314 313 OFFCURVE",
"252 327 OFFCURVE",
"192 344 OFFCURVE",
"167 359 QCURVE",
"125 382 OFFCURVE",
"73 457 OFFCURVE",
"73 517 QCURVE",
"73 573 OFFCURVE",
"117 649 OFFCURVE",
"187 695 OFFCURVE",
"274 715 OFFCURVE",
"318 715 QCURVE",
"362 714 OFFCURVE",
"428 703 OFFCURVE",
"457 689 QCURVE",
"502 669 OFFCURVE",
"562 589 OFFCURVE",
"565 526 QCURVE",
"480 526 LINE",
"476 557 OFFCURVE",
"447 599 OFFCURVE",
"405 625 OFFCURVE",
"352 636 OFFCURVE",
"323 636 QCURVE"
);
},
{
closed = 1;
nodes = (
"298 -184 OFFCURVE",
"266 -154 OFFCURVE",
"266 -129 QCURVE",
"266 -101 OFFCURVE",
"300 -71 OFFCURVE",
"323 -71 QCURVE",
"359 -71 OFFCURVE",
"391 -119 OFFCURVE",
"389 -150 QCURVE",
"389 -177 OFFCURVE",
"372 -224 OFFCURVE",
"344 -266 OFFCURVE",
"307 -298 OFFCURVE",
"287 -305 QCURVE",
"263 -272 LINE",
"283 -258 OFFCURVE",
"318 -210 OFFCURVE",
"324 -186 QCURVE"
);
}
);
width = 634;
}
);
unicode = 0218;
},
{
color = (153, 255, 194, 255);
glyphname = uni0219;
layers = (
{
layerId = "DD39FC45-FCD0-450F-8BE5-088D761CC1D8";
paths = (
{
closed = 1;
nodes = (
"245 457 OFFCURVE",
"204 452 OFFCURVE",
"169 437 OFFCURVE",
"144 408 OFFCURVE",
"143 384 QCURVE",
"143 350 OFFCURVE",
"194 316 OFFCURVE",
"235 308 QCURVE",
"252 304 OFFCURVE",
"292 297 OFFCURVE",
"331 290 OFFCURVE",
"366 282 OFFCURVE",
"378 278 QCURVE",
"474 248 OFFCURVE",
"474 151 QCURVE",
"473 101 OFFCURVE",
"435 42 OFFCURVE",
"375 8 OFFCURVE",
"300 -7 OFFCURVE",
"263 -6 QCURVE",
"227 -6 OFFCURVE",
"153 8 OFFCURVE",
"92 43 OFFCURVE",
"49 100 OFFCURVE",
"43 143 QCURVE",
"129 143 LINE",
"137 119 OFFCURVE",
"171 91 OFFCURVE",
"211 75 OFFCURVE",
"247 69 OFFCURVE",
"264 69 QCURVE",
"282 69 OFFCURVE",
"325 73 OFFCURVE",
"361 87 OFFCURVE",
"389 119 OFFCURVE",
"389 144 QCURVE",
"389 177 OFFCURVE",
"349 206 OFFCURVE",
"316 212 QCURVE",
"292 217 OFFCURVE",
"241 226 OFFCURVE",
"190 237 OFFCURVE",
"142 252 OFFCURVE",
"121 265 QCURVE",
"95 282 OFFCURVE",
"59 340 OFFCURVE",
"59 386 QCURVE",
"61 428 OFFCURVE",
"97 483 OFFCURVE",
"125 501 QCURVE",
"155 520 OFFCURVE",
"229 533 OFFCURVE",
"261 533 QCURVE",
"343 533 OFFCURVE",
"390 498 QCURVE",
"419 478 OFFCURVE",
"451 422 OFFCURVE",
"455 391 QCURVE",
"376 391 LINE",
"369 420 OFFCURVE",
"307 456 OFFCURVE",
"262 457 QCURVE"
);
},
{
closed = 1;
nodes = (
"235 -184 OFFCURVE",
"203 -154 OFFCURVE",
"203 -129 QCURVE",
"203 -101 OFFCURVE",
"239 -71 OFFCURVE",
"261 -71 QCURVE",
"298 -72 OFFCURVE",
"328 -119 OFFCURVE",
"326 -150 QCURVE",
"326 -177 OFFCURVE",
"309 -224 OFFCURVE",
"281 -266 OFFCURVE",
"244 -298 OFFCURVE",
"224 -305 QCURVE",
"200 -272 LINE",
"220 -258 OFFCURVE",
"255 -210 OFFCURVE",
"261 -186 QCURVE"
);
}
);
width = 518;
}
);
leftKerningGroup = _kern5;
rightKerningGroup = _kern6;
unicode = 0219;
},
{
color = (153, 255, 194, 255);
glyphname = uni021A;
layers = (
{
layerId = "DD39FC45-FCD0-450F-8BE5-088D761CC1D8";
paths = (
{
closed = 1;
nodes = (
"328 0 LINE",
"241 0 LINE",
"241 628 LINE",
"14 628 LINE",
"14 707 LINE",
"555 707 LINE",
"555 628 LINE",
"328 628 LINE"
);
},
{
closed = 1;
nodes = (
"259 -184 OFFCURVE",
"227 -154 OFFCURVE",
"227 -129 QCURVE",
"227 -101 OFFCURVE",
"263 -71 OFFCURVE",
"285 -71 QCURVE",
"322 -72 OFFCURVE",
"352 -119 OFFCURVE",
"350 -150 QCURVE",
"350 -177 OFFCURVE",
"333 -224 OFFCURVE",
"305 -266 OFFCURVE",
"268 -298 OFFCURVE",
"248 -305 QCURVE",
"224 -272 LINE",
"244 -258 OFFCURVE",
"279 -210 OFFCURVE",
"285 -186 QCURVE"
);
}
);
width = 569;
}
);
leftKerningGroup = _kern28;
rightKerningGroup = _kern28;
unicode = 021A;
},
{
color = (153, 255, 194, 255);
glyphname = uni021B;
layers = (
{
layerId = "DD39FC45-FCD0-450F-8BE5-088D761CC1D8";
paths = (
{
closed = 1;
nodes = (
"200 527 LINE",
"341 527 LINE",
"341 452 LINE",
"200 452 LINE",
"200 179 LINE",
"200 125 OFFCURVE",
"242 74 OFFCURVE",
"299 74 QCURVE",
"338 74 LINE",
"338 0 LINE",
"281 0 LINE",
"191 0 OFFCURVE",
"115 82 OFFCURVE",
"115 170 QCURVE",
"115 452 LINE",
"29 452 LINE",
"29 527 LINE",
"115 527 LINE",
"115 684 LINE",
"200 684 LINE"
);
},
{
closed = 1;
nodes = (
"186 -184 OFFCURVE",
"154 -154 OFFCURVE",
"154 -129 QCURVE",
"154 -101 OFFCURVE",
"190 -71 OFFCURVE",
"214 -71 QCURVE",
"246 -71 OFFCURVE",
"279 -119 OFFCURVE",
"277 -150 QCURVE",
"277 -177 OFFCURVE",
"260 -224 OFFCURVE",
"232 -266 OFFCURVE",
"195 -298 OFFCURVE",
"175 -305 QCURVE",
"151 -272 LINE",
"171 -258 OFFCURVE",
"206 -210 OFFCURVE",
"212 -186 QCURVE"
);
}
);
width = 380;
}
);
leftKerningGroup = _kern21;
rightKerningGroup = _kern21;
unicode = 021B;
},
{
color = (153, 255, 194, 255);
glyphname = icircumflex;
layers = (
{
layerId = "DD39FC45-FCD0-450F-8BE5-088D761CC1D8";
paths = (
{
closed = 1;
nodes = (
"159 769 LINE",
"293 606 LINE",
"207 606 LINE",
"129 702 LINE",
"51 606 LINE",
"-34 606 LINE",
"99 769 LINE"
);
},
{
closed = 1;
nodes = (
"173 0 LINE",
"88 0 LINE",
"88 527 LINE",
"173 527 LINE"
);
}
);
width = 269;
}
);
unicode = 00EE;
},
{
color = (153, 255, 194, 255);
glyphname = question;
layers = (
{
layerId = "DD39FC45-FCD0-450F-8BE5-088D761CC1D8";
paths = (
{
closed = 1;
nodes = (
"191 213 LINE",
"190 218 OFFCURVE",
"190 229 OFFCURVE",
"190 234 QCURVE",
"190 258 OFFCURVE",
"202 306 OFFCURVE",
"226 333 QCURVE",
"236 345 OFFCURVE",
"262 370 OFFCURVE",
"289 396 OFFCURVE",
"316 422 OFFCURVE",
"327 434 QCURVE",
"346 456 OFFCURVE",
"371 508 OFFCURVE",
"371 533 QCURVE",
"371 584 OFFCURVE",
"306 634 OFFCURVE",
"254 636 QCURVE",
"233 636 OFFCURVE",
"192 628 OFFCURVE",
"156 609 OFFCURVE",
"130 578 OFFCURVE",
"125 556 QCURVE",
"37 556 LINE",
"42 596 OFFCURVE",
"82 656 OFFCURVE",
"141 695 OFFCURVE",
"214 715 OFFCURVE",
"253 715 QCURVE",
"295 715 OFFCURVE",
"369 693 OFFCURVE",
"425 649 OFFCURVE",
"458 585 OFFCURVE",
"458 537 QCURVE",
"457 491 OFFCURVE",
"421 417 OFFCURVE",
"390 384 QCURVE",
"379 373 OFFCURVE",
"351 347 OFFCURVE",
"323 319 OFFCURVE",
"298 291 OFFCURVE",
"291 279 QCURVE",
"283 266 OFFCURVE",
"278 234 OFFCURVE",
"278 221 QCURVE",
"278 213 LINE"
);
},
{
closed = 1;
nodes = (
"259 112 OFFCURVE",
"293 78 OFFCURVE",
"293 52 QCURVE",
"293 26 OFFCURVE",
"259 -8 OFFCURVE",
"233 -8 QCURVE",
"207 -8 OFFCURVE",
"174 26 OFFCURVE",
"174 52 QCURVE",
"174 78 OFFCURVE",
"207 112 OFFCURVE",
"233 112 QCURVE"
);
}
);
width = 513;
}
);
unicode = 003F;
},
{
color = (153, 255, 194, 255);
glyphname = uni2116;
layers = (
{
layerId = "DD39FC45-FCD0-450F-8BE5-088D761CC1D8";
paths = (
{
closed = 1;
nodes = (
"822 402 OFFCURVE",
"767 426 OFFCURVE",
"730 469 OFFCURVE",
"711 526 OFFCURVE",
"711 559 QCURVE",
"711 593 OFFCURVE",
"730 650 OFFCURVE",
"768 692 OFFCURVE",
"822 715 OFFCURVE",
"858 715 QCURVE",
"892 715 OFFCURVE",
"946 692 OFFCURVE",
"983 650 OFFCURVE",
"1002 593 OFFCURVE",
"1002 559 QCURVE",
"1002 526 OFFCURVE",
"983 469 OFFCURVE",
"946 426 OFFCURVE",
"892 402 OFFCURVE",
"858 402 QCURVE"
);
},
{
closed = 1;
nodes = (
"59 0 LINE",
"59 707 LINE",
"170 707 LINE",
"526 118 LINE",
"526 707 LINE",
"613 707 LINE",
"613 0 LINE",
"504 0 LINE",
"146 587 LINE",
"146 0 LINE"
);
},
{
closed = 1;
nodes = (
"817 644 OFFCURVE",
"784 592 OFFCURVE",
"784 559 QCURVE",
"784 524 OFFCURVE",
"818 473 OFFCURVE",
"857 473 QCURVE",
"896 473 OFFCURVE",
"927 525 OFFCURVE",
"927 559 QCURVE",
"927 592 OFFCURVE",
"896 644 OFFCURVE",
"857 644 QCURVE"
);
},
{
closed = 1;
nodes = (
"716 350 LINE",
"997 350 LINE",
"997 273 LINE",
"716 273 LINE"
);
}
);
width = 1061;
}
);
unicode = 2116;
},
{
color = (153, 255, 194, 255);
glyphname = uni0401;
layers = (
{
layerId = "DD39FC45-FCD0-450F-8BE5-088D761CC1D8";
paths = (
{
closed = 1;
nodes = (
"238 900 OFFCURVE",
"272 872 OFFCURVE",
"272 845 QCURVE",
"272 817 OFFCURVE",
"241 787 OFFCURVE",
"215 787 QCURVE",
"190 787 OFFCURVE",
"158 817 OFFCURVE",
"158 845 QCURVE",
"158 872 OFFCURVE",
"192 900 OFFCURVE",
"215 900 QCURVE"
);
},
{
closed = 1;
nodes = (
"470 900 OFFCURVE",
"504 872 OFFCURVE",
"504 845 QCURVE",
"504 817 OFFCURVE",
"472 787 OFFCURVE",
"447 787 QCURVE",
"421 787 OFFCURVE",
"390 817 OFFCURVE",
"390 845 QCURVE",
"390 872 OFFCURVE",
"424 900 OFFCURVE",
"447 900 QCURVE"
);
},
{
closed = 1;
nodes = (
"87 707 LINE",
"562 707 LINE",
"562 628 LINE",
"174 628 LINE",
"174 387 LINE",
"523 387 LINE",
"523 307 LINE",
"174 307 LINE",
"174 79 LINE",
"562 79 LINE",
"562 0 LINE",
"87 0 LINE"
);
}
);
width = 610;
}
);
unicode = 0401;
},
{
color = (153, 255, 194, 255);
glyphname = asciitilde;
layers = (
{
layerId = "DD39FC45-FCD0-450F-8BE5-088D761CC1D8";
paths = (
{
closed = 1;
nodes = (
"87 271 LINE",
"87 304 OFFCURVE",
"99 367 OFFCURVE",
"130 416 OFFCURVE",
"182 447 OFFCURVE",
"222 447 QCURVE",
"258 447 OFFCURVE",
"312 411 OFFCURVE",
"357 368 OFFCURVE",
"397 332 OFFCURVE",
"420 332 QCURVE",
"440 332 OFFCURVE",
"464 354 OFFCURVE",
"476 387 OFFCURVE",
"479 424 OFFCURVE",
"479 439 QCURVE",
"554 439 LINE",
"553 406 OFFCURVE",
"540 343 OFFCURVE",
"510 294 OFFCURVE",
"458 263 OFFCURVE",
"418 263 QCURVE",
"382 263 OFFCURVE",
"328 299 OFFCURVE",
"283 341 OFFCURVE",
"243 377 OFFCURVE",
"220 377 QCURVE",
"200 377 OFFCURVE",
"177 355 OFFCURVE",
"165 322 OFFCURVE",
"162 286 OFFCURVE",
"162 271 QCURVE"
);
}
);
width = 641;
}
);
unicode = 007E;
},
{
color = (153, 255, 194, 255);
glyphname = trademark;
layers = (
{
layerId = "DD39FC45-FCD0-450F-8BE5-088D761CC1D8";
paths = (
{
closed = 1;
nodes = (
"518 707 LINE",
"613 707 LINE",
"613 445 LINE",
"550 445 LINE",
"550 643 LINE",
"484 499 LINE",
"447 499 LINE",
"381 643 LINE",
"381 445 LINE",
"318 445 LINE",
"318 707 LINE",
"414 707 LINE",
"466 592 LINE"
);
},
{
closed = 1;
nodes = (
"144 648 LINE",
"59 648 LINE",
"59 707 LINE",
"294 707 LINE",
"294 648 LINE",
"208 648 LINE",
"208 445 LINE",
"144 445 LINE"
);
}
);
width = 672;
}
);
unicode = 2122;
},
{
color = (153, 255, 194, 255);
glyphname = registered;
layers = (
{
layerId = "DD39FC45-FCD0-450F-8BE5-088D761CC1D8";
paths = (
{
closed = 1;
nodes = (
"286 744 OFFCURVE",
"356 717 OFFCURVE",
"405 666 OFFCURVE",
"431 595 OFFCURVE",
"431 552 QCURVE",
"431 464 OFFCURVE",
"330 365 OFFCURVE",
"242 365 QCURVE",
"154 365 OFFCURVE",
"52 464 OFFCURVE",
"52 552 QCURVE",
"52 595 OFFCURVE",
"78 666 OFFCURVE",
"128 717 OFFCURVE",
"198 744 OFFCURVE",
"242 744 QCURVE"
);
},
{
closed = 1;
nodes = (
"175 699 OFFCURVE",
"100 618 OFFCURVE",
"100 552 QCURVE",
"100 486 OFFCURVE",
"176 412 OFFCURVE",
"242 412 QCURVE",
"308 412 OFFCURVE",
"382 486 OFFCURVE",
"382 552 QCURVE",
"382 618 OFFCURVE",
"309 699 OFFCURVE",
"242 699 QCURVE"
);
},
{
closed = 1;
nodes = (
"338 459 LINE",
"285 459 LINE",
"238 528 LINE",
"214 528 LINE",
"214 459 LINE",
"170 459 LINE",
"170 656 LINE",
"253 656 LINE",
"285 656 OFFCURVE",
"325 628 OFFCURVE",
"325 593 QCURVE",
"325 547 OFFCURVE",
"288 534 QCURVE"
);
},
{
closed = 1;
nodes = (
"253 568 LINE",
"265 568 OFFCURVE",
"281 580 OFFCURVE",
"281 592 QCURVE",
"281 603 OFFCURVE",
"266 614 OFFCURVE",
"256 614 QCURVE",
"214 614 LINE",
"214 568 LINE"
);
}
);
width = 483;
}
);
unicode = 00AE;
},
{
color = (153, 255, 194, 255);
glyphname = degree;
layers = (
{
layerId = "DD39FC45-FCD0-450F-8BE5-088D761CC1D8";
paths = (
{
closed = 1;
nodes = (
"211 818 OFFCURVE",
"257 800 OFFCURVE",
"291 766 OFFCURVE",
"311 718 OFFCURVE",
"311 688 QCURVE",
"311 658 OFFCURVE",
"291 612 OFFCURVE",
"256 581 OFFCURVE",
"209 564 OFFCURVE",
"183 564 QCURVE",
"129 564 OFFCURVE",
"59 628 OFFCURVE",
"59 688 QCURVE",
"59 718 OFFCURVE",
"79 766 OFFCURVE",
"114 800 OFFCURVE",
"160 818 OFFCURVE",
"186 818 QCURVE"
);
},
{
closed = 1;
nodes = (
"214 618 OFFCURVE",
"252 655 OFFCURVE",
"252 690 QCURVE",
"252 725 OFFCURVE",
"213 762 OFFCURVE",
"185 762 QCURVE",
"157 762 OFFCURVE",
"117 725 OFFCURVE",
"117 690 QCURVE",
"117 655 OFFCURVE",
"156 618 OFFCURVE",
"185 618 QCURVE"
);
}
);
width = 370;
}
);
unicode = 00B0;
},
{
color = (153, 255, 194, 255);
glyphname = bullet;
layers = (
{
layerId = "DD39FC45-FCD0-450F-8BE5-088D761CC1D8";
paths = (
{
closed = 1;
nodes = (
"217 475 OFFCURVE",
"281 416 OFFCURVE",
"281 364 QCURVE",
"281 315 OFFCURVE",
"216 256 OFFCURVE",
"171 256 QCURVE",
"148 256 OFFCURVE",
"110 269 OFFCURVE",
"79 296 OFFCURVE",
"59 337 OFFCURVE",
"59 364 QCURVE",
"59 416 OFFCURVE",
"124 475 OFFCURVE",
"172 475 QCURVE"
);
}
);
width = 340;
}
);
unicode = 2022;
},
{
color = (153, 255, 194, 255);
glyphname = uni27F5;
layers = (
{
layerId = "DD39FC45-FCD0-450F-8BE5-088D761CC1D8";
paths = (
{
closed = 1;
nodes = (
"1297 307 LINE",
"1297 230 LINE",
"197 230 LINE",
"427 13 LINE",
"377 -48 LINE",
"59 269 LINE",
"376 585 LINE",
"427 524 LINE",
"196 307 LINE"
);
}
);
width = 1356;
}
);
unicode = 27F5;
},
{
color = (153, 255, 194, 255);
glyphname = uni27F6;
layers = (
{
layerId = "DD39FC45-FCD0-450F-8BE5-088D761CC1D8";
paths = (
{
closed = 1;
nodes = (
"1160 230 LINE",
"59 230 LINE",
"59 307 LINE",
"1159 307 LINE",
"929 524 LINE",
"979 585 LINE",
"1297 268 LINE",
"980 -48 LINE",
"929 13 LINE"
);
}
);
width = 1356;
}
);
unicode = 27F6;
},
{
color = (153, 255, 194, 255);
glyphname = arrowup;
layers = (
{
layerId = "DD39FC45-FCD0-450F-8BE5-088D761CC1D8";
paths = (
{
closed = 1;
nodes = (
"387 0 LINE",
"313 0 LINE",
"313 522 LINE",
"115 276 LINE",
"59 324 LINE",
"350 674 LINE",
"642 324 LINE",
"585 276 LINE",
"387 522 LINE"
);
}
);
width = 701;
}
);
unicode = 2191;
},
{
color = (153, 255, 194, 255);
glyphname = arrowdown;
layers = (
{
layerId = "DD39FC45-FCD0-450F-8BE5-088D761CC1D8";
paths = (
{
closed = 1;
nodes = (
"314 152 LINE",
"314 674 LINE",
"388 674 LINE",
"388 152 LINE",
"586 398 LINE",
"642 350 LINE",
"351 0 LINE",
"59 350 LINE",
"116 398 LINE"
);
}
);
width = 701;
}
);
unicode = 2193;
},
{
color = (153, 255, 194, 255);
glyphname = uni21BA;
layers = (
{
layerId = "DD39FC45-FCD0-450F-8BE5-088D761CC1D8";
paths = (
{
closed = 1;
nodes = (
"631 689 LINE",
"679 656 OFFCURVE",
"747 572 OFFCURVE",
"792 480 OFFCURVE",
"813 384 OFFCURVE",
"813 329 QCURVE",
"812 254 OFFCURVE",
"761 117 OFFCURVE",
"665 12 OFFCURVE",
"528 -50 OFFCURVE",
"440 -50 QCURVE",
"352 -49 OFFCURVE",
"212 8 OFFCURVE",
"114 110 OFFCURVE",
"61 251 OFFCURVE",
"60 336 QCURVE",
"60 433 OFFCURVE",
"129 599 OFFCURVE",
"195 662 QCURVE",
"253 599 LINE",
"202 545 OFFCURVE",
"147 408 OFFCURVE",
"147 336 QCURVE",
"148 270 OFFCURVE",
"189 162 OFFCURVE",
"264 81 OFFCURVE",
"369 34 OFFCURVE",
"434 34 QCURVE",
"507 34 OFFCURVE",
"614 84 OFFCURVE",
"684 167 OFFCURVE",
"719 275 OFFCURVE",
"721 332 QCURVE",
"721 382 OFFCURVE",
"699 469 OFFCURVE",
"661 547 OFFCURVE",
"611 612 OFFCURVE",
"583 633 QCURVE",
"574 402 LINE",
"504 402 LINE",
"518 768 LINE",
"878 723 LINE",
"868 651 LINE"
);
}
);
width = 937;
}
);
unicode = 21BA;
},
{
color = (153, 255, 194, 255);
glyphname = uni21BB;
layers = (
{
layerId = "DD39FC45-FCD0-450F-8BE5-088D761CC1D8";
paths = (
{
closed = 1;
nodes = (
"69 651 LINE",
"59 723 LINE",
"419 768 LINE",
"433 402 LINE",
"363 402 LINE",
"354 633 LINE",
"326 612 OFFCURVE",
"276 547 OFFCURVE",
"238 469 OFFCURVE",
"216 382 OFFCURVE",
"216 332 QCURVE",
"218 275 OFFCURVE",
"253 167 OFFCURVE",
"323 84 OFFCURVE",
"430 34 OFFCURVE",
"503 34 QCURVE",
"568 34 OFFCURVE",
"673 81 OFFCURVE",
"748 162 OFFCURVE",
"789 270 OFFCURVE",
"790 336 QCURVE",
"790 408 OFFCURVE",
"735 545 OFFCURVE",
"684 599 QCURVE",
"742 662 LINE",
"808 599 OFFCURVE",
"877 433 OFFCURVE",
"877 346 QCURVE",
"875 251 OFFCURVE",
"822 110 OFFCURVE",
"725 8 OFFCURVE",
"585 -49 OFFCURVE",
"497 -50 QCURVE",
"409 -50 OFFCURVE",
"272 12 OFFCURVE",
"176 117 OFFCURVE",
"125 254 OFFCURVE",
"124 329 QCURVE",
"124 384 OFFCURVE",
"145 480 OFFCURVE",
"190 572 OFFCURVE",
"258 656 OFFCURVE",
"306 689 QCURVE"
);
}
);
width = 937;
}
);
unicode = 21BB;
},
{
color = (153, 255, 194, 255);
glyphname = uni21B7;
layers = (
{
layerId = "DD39FC45-FCD0-450F-8BE5-088D761CC1D8";
paths = (
{
closed = 1;
nodes = (
"926 166 LINE",
"953 99 LINE",
"614 -27 LINE",
"512 329 LINE",
"582 345 LINE",
"646 117 LINE",
"664 139 OFFCURVE",
"691 195 OFFCURVE",
"710 256 OFFCURVE",
"720 318 OFFCURVE",
"720 347 QCURVE",
"720 410 OFFCURVE",
"681 522 OFFCURVE",
"607 604 OFFCURVE",
"501 652 OFFCURVE",
"434 652 QCURVE",
"373 652 OFFCURVE",
"273 609 OFFCURVE",
"199 535 OFFCURVE",
"154 434 OFFCURVE",
"148 376 QCURVE",
"59 376 LINE",
"66 453 OFFCURVE",
"125 586 OFFCURVE",
"221 683 OFFCURVE",
"353 738 OFFCURVE",
"434 738 QCURVE",
"520 738 OFFCURVE",
"658 679 OFFCURVE",
"754 574 OFFCURVE",
"806 431 OFFCURVE",
"806 347 QCURVE",
"806 278 OFFCURVE",
"762 137 OFFCURVE",
"717 82 QCURVE"
);
}
);
width = 1012;
}
);
unicode = 21B7;
},
{
color = (153, 255, 194, 255);
glyphname = uni21B6;
layers = (
{
layerId = "DD39FC45-FCD0-450F-8BE5-088D761CC1D8";
paths = (
{
closed = 1;
nodes = (
"295 82 LINE",
"250 137 OFFCURVE",
"206 278 OFFCURVE",
"206 347 QCURVE",
"206 431 OFFCURVE",
"258 574 OFFCURVE",
"354 679 OFFCURVE",
"492 738 OFFCURVE",
"578 738 QCURVE",
"659 738 OFFCURVE",
"791 683 OFFCURVE",
"887 586 OFFCURVE",
"946 453 OFFCURVE",
"953 376 QCURVE",
"864 376 LINE",
"858 434 OFFCURVE",
"813 535 OFFCURVE",
"739 609 OFFCURVE",
"639 652 OFFCURVE",
"578 652 QCURVE",
"511 652 OFFCURVE",
"405 604 OFFCURVE",
"331 522 OFFCURVE",
"292 410 OFFCURVE",
"292 347 QCURVE",
"292 318 OFFCURVE",
"302 256 OFFCURVE",
"321 195 OFFCURVE",
"348 139 OFFCURVE",
"366 117 QCURVE",
"430 345 LINE",
"500 329 LINE",
"398 -27 LINE",
"59 99 LINE",
"86 166 LINE"
);
}
);
width = 1012;
}
);
unicode = 21B6;
},
{
color = (153, 255, 194, 255);
glyphname = five;
layers = (
{
layerId = "DD39FC45-FCD0-450F-8BE5-088D761CC1D8";
paths = (
{
closed = 1;
nodes = (
"82 318 LINE",
"114 707 LINE",
"537 707 LINE",
"537 627 LINE",
"192 627 LINE",
"172 405 LINE",
"199 427 OFFCURVE",
"277 454 OFFCURVE",
"334 454 QCURVE",
"385 454 OFFCURVE",
"469 422 OFFCURVE",
"529 363 OFFCURVE",
"562 279 OFFCURVE",
"562 228 QCURVE",
"562 172 OFFCURVE",
"523 85 OFFCURVE",
"455 23 OFFCURVE",
"362 -9 OFFCURVE",
"308 -9 QCURVE",
"264 -9 OFFCURVE",
"183 11 OFFCURVE",
"117 52 OFFCURVE",
"71 116 OFFCURVE",
"62 160 QCURVE",
"150 160 LINE",
"158 139 OFFCURVE",
"190 106 OFFCURVE",
"231 83 OFFCURVE",
"277 71 OFFCURVE",
"300 71 QCURVE",
"336 71 OFFCURVE",
"399 89 OFFCURVE",
"446 126 OFFCURVE",
"472 183 OFFCURVE",
"472 223 QCURVE",
"472 296 OFFCURVE",
"384 374 OFFCURVE",
"314 374 QCURVE",
"272 374 OFFCURVE",
"201 344 OFFCURVE",
"172 318 QCURVE"
);
}
);
width = 616;
}
);
unicode = 0035;
},
{
color = (153, 255, 194, 255);
glyphname = six;
layers = (
{
layerId = "DD39FC45-FCD0-450F-8BE5-088D761CC1D8";
paths = (
{
closed = 1;
nodes = (
"176 403 OFFCURVE",
"280 451 OFFCURVE",
"338 451 QCURVE",
"392 451 OFFCURVE",
"475 417 OFFCURVE",
"535 359 OFFCURVE",
"569 277 OFFCURVE",
"569 227 QCURVE",
"569 174 OFFCURVE",
"533 88 OFFCURVE",
"469 26 OFFCURVE",
"380 -8 OFFCURVE",
"328 -8 QCURVE",
"254 -8 OFFCURVE",
"152 45 OFFCURVE",
"88 134 OFFCURVE",
"59 252 OFFCURVE",
"58 317 QCURVE",
"58 398 OFFCURVE",
"82 531 OFFCURVE",
"145 642 OFFCURVE",
"255 715 OFFCURVE",
"340 715 QCURVE",
"378 715 OFFCURVE",
"448 695 OFFCURVE",
"506 656 OFFCURVE",
"550 598 OFFCURVE",
"562 561 QCURVE",
"471 561 LINE",
"453 598 OFFCURVE",
"379 636 OFFCURVE",
"339 636 QCURVE",
"282 636 OFFCURVE",
"206 582 OFFCURVE",
"161 498 OFFCURVE",
"142 397 OFFCURVE",
"142 351 QCURVE"
);
},
{
closed = 1;
nodes = (
"480 251 OFFCURVE",
"458 306 OFFCURVE",
"419 347 OFFCURVE",
"363 370 OFFCURVE",
"330 370 QCURVE",
"298 370 OFFCURVE",
"241 349 OFFCURVE",
"197 310 OFFCURVE",
"170 254 OFFCURVE",
"170 220 QCURVE",
"170 188 OFFCURVE",
"194 134 OFFCURVE",
"236 94 OFFCURVE",
"293 71 OFFCURVE",
"326 71 QCURVE",
"359 71 OFFCURVE",
"416 94 OFFCURVE",
"457 133 OFFCURVE",
"480 187 OFFCURVE",
"480 218 QCURVE"
);
}
);
width = 623;
}
);
unicode = 0036;
},
{
color = (153, 255, 194, 255);
glyphname = dieresis;
layers = (
{
layerId = "DD39FC45-FCD0-450F-8BE5-088D761CC1D8";
paths = (
{
closed = 1;
nodes = (
"199 718 OFFCURVE",
"232 687 OFFCURVE",
"232 662 QCURVE",
"232 637 OFFCURVE",
"199 606 OFFCURVE",
"174 606 QCURVE",
"150 606 OFFCURVE",
"117 637 OFFCURVE",
"117 662 QCURVE",
"117 687 OFFCURVE",
"150 718 OFFCURVE",
"174 718 QCURVE"
);
},
{
closed = 1;
nodes = (
"424 718 OFFCURVE",
"457 687 OFFCURVE",
"457 662 QCURVE",
"457 637 OFFCURVE",
"424 606 OFFCURVE",
"399 606 QCURVE",
"375 606 OFFCURVE",
"343 637 OFFCURVE",
"343 662 QCURVE",
"343 687 OFFCURVE",
"375 718 OFFCURVE",
"399 718 QCURVE"
);
}
);
width = 574;
}
);
unicode = 00A8;
},
{
color = (153, 255, 194, 255);
glyphname = adieresis;
layers = (
{
layerId = "DD39FC45-FCD0-450F-8BE5-088D761CC1D8";
paths = (
{
closed = 1;
nodes = (
"192 707 OFFCURVE",
"225 676 OFFCURVE",
"225 651 QCURVE",
"225 626 OFFCURVE",
"192 595 OFFCURVE",
"167 595 QCURVE",
"143 595 OFFCURVE",
"110 626 OFFCURVE",
"110 651 QCURVE",
"110 676 OFFCURVE",
"143 707 OFFCURVE",
"167 707 QCURVE"
);
},
{
closed = 1;
nodes = (
"417 707 OFFCURVE",
"450 676 OFFCURVE",
"450 651 QCURVE",
"450 626 OFFCURVE",
"417 595 OFFCURVE",
"392 595 QCURVE",
"368 595 OFFCURVE",
"336 626 OFFCURVE",
"336 651 QCURVE",
"336 676 OFFCURVE",
"368 707 OFFCURVE",
"392 707 QCURVE"
);
},
{
closed = 1;
nodes = (
"414 67 LINE",
"397 44 OFFCURVE",
"355 16 OFFCURVE",
"308 0 OFFCURVE",
"259 -6 OFFCURVE",
"236 -6 QCURVE",
"199 -6 OFFCURVE",
"132 13 OFFCURVE",
"80 52 OFFCURVE",
"49 112 OFFCURVE",
"49 150 QCURVE",
"49 195 OFFCURVE",
"82 256 OFFCURVE",
"138 294 OFFCURVE",
"211 309 OFFCURVE",
"252 309 QCURVE",
"407 309 LINE",
"407 376 OFFCURVE",
"349 455 OFFCURVE",
"280 457 QCURVE",
"238 457 OFFCURVE",
"174 429 OFFCURVE",
"162 397 QCURVE",
"71 397 LINE",
"78 433 OFFCURVE",
"120 484 OFFCURVE",
"178 517 OFFCURVE",
"246 533 OFFCURVE",
"280 533 QCURVE",
"339 533 OFFCURVE",
"420 494 OFFCURVE",
"470 431 OFFCURVE",
"490 341 OFFCURVE",
"490 285 QCURVE",
"490 0 LINE",
"419 0 LINE"
);
},
{
closed = 1;
nodes = (
"314 238 LINE",
"290 238 OFFCURVE",
"227 237 OFFCURVE",
"169 225 OFFCURVE",
"134 187 OFFCURVE",
"134 156 QCURVE",
"134 133 OFFCURVE",
"152 101 OFFCURVE",
"183 79 OFFCURVE",
"223 69 OFFCURVE",
"244 69 QCURVE",
"319 69 OFFCURVE",
"406 142 OFFCURVE",
"407 212 QCURVE",
"407 238 LINE"
);
}
);
width = 555;
}
);
leftKerningGroup = _kern27;
rightKerningGroup = _kern27;
unicode = 00E4;
},
{
color = (153, 255, 194, 255);
glyphname = Adieresis;
layers = (
{
layerId = "DD39FC45-FCD0-450F-8BE5-088D761CC1D8";
paths = (
{
closed = 1;
nodes = (
"251 900 OFFCURVE",
"284 869 OFFCURVE",
"284 844 QCURVE",
"284 819 OFFCURVE",
"251 788 OFFCURVE",
"226 788 QCURVE",
"202 788 OFFCURVE",
"169 819 OFFCURVE",
"169 844 QCURVE",
"169 869 OFFCURVE",
"202 900 OFFCURVE",
"226 900 QCURVE"
);
},
{
closed = 1;
nodes = (
"476 900 OFFCURVE",
"509 869 OFFCURVE",
"509 844 QCURVE",
"509 819 OFFCURVE",
"476 788 OFFCURVE",
"451 788 QCURVE",
"427 788 OFFCURVE",
"395 819 OFFCURVE",
"395 844 QCURVE",
"395 869 OFFCURVE",
"427 900 OFFCURVE",
"451 900 QCURVE"
);
},
{
closed = 1;
nodes = (
"660 0 LINE",
"566 0 LINE",
"510 152 LINE",
"160 152 LINE",
"104 0 LINE",
"10 0 LINE",
"273 707 LINE",
"398 707 LINE"
);
},
{
closed = 1;
nodes = (
"481 231 LINE",
"335 631 LINE",
"189 231 LINE"
);
}
);
width = 670;
}
);
leftKerningGroup = _kern30;
rightKerningGroup = _kern30;
unicode = 00C4;
},
{
color = (153, 255, 194, 255);
glyphname = cedilla;
layers = (
{
layerId = "DD39FC45-FCD0-450F-8BE5-088D761CC1D8";
paths = (
{
closed = 1;
nodes = (
"295 -59 LINE",
"301 -58 OFFCURVE",
"313 -57 OFFCURVE",
"318 -57 QCURVE",
"357 -57 OFFCURVE",
"397 -100 OFFCURVE",
"397 -138 QCURVE",
"397 -171 OFFCURVE",
"367 -218 OFFCURVE",
"344 -231 QCURVE",
"313 -247 OFFCURVE",
"246 -253 OFFCURVE",
"217 -253 QCURVE",
"217 -198 LINE",
"234 -198 OFFCURVE",
"273 -196 OFFCURVE",
"306 -186 OFFCURVE",
"328 -165 OFFCURVE",
"328 -145 QCURVE",
"328 -133 OFFCURVE",
"314 -117 OFFCURVE",
"295 -111 OFFCURVE",
"276 -110 OFFCURVE",
"271 -110 QCURVE",
"261 -110 OFFCURVE",
"232 -114 OFFCURVE",
"219 -119 QCURVE",
"248 8 LINE",
"310 8 LINE"
);
}
);
width = 598;
}
);
unicode = 00B8;
},
{
color = (248, 153, 255, 255);
glyphname = Ecircumflex;
layers = (
{
layerId = "DD39FC45-FCD0-450F-8BE5-088D761CC1D8";
paths = (
{
closed = 1;
nodes = (
"87 0 LINE",
"87 707 LINE",
"562 707 LINE",
"562 628 LINE",
"174 628 LINE",
"174 390 LINE",
"523 390 LINE",
"523 310 LINE",
"174 310 LINE",
"174 79 LINE",
"562 79 LINE",
"562 0 LINE"
);
},
{
closed = 1;
nodes = (
"360 949 LINE",
"494 786 LINE",
"408 786 LINE",
"330 883 LINE",
"252 786 LINE",
"167 786 LINE",
"300 949 LINE"
);
}
);
width = 610;
}
);
unicode = 00CA;
},
{
color = (153, 255, 194, 255);
glyphname = ecircumflex;
layers = (
{
layerId = "DD39FC45-FCD0-450F-8BE5-088D761CC1D8";
paths = (
{
closed = 1;
nodes = (
"129 232 LINE",
"132 197 OFFCURVE",
"155 138 OFFCURVE",
"195 94 OFFCURVE",
"254 69 OFFCURVE",
"293 69 QCURVE",
"312 69 OFFCURVE",
"353 76 OFFCURVE",
"389 93 OFFCURVE",
"417 121 OFFCURVE",
"424 141 QCURVE",
"511 141 LINE",
"502 103 OFFCURVE",
"459 47 OFFCURVE",
"400 11 OFFCURVE",
"328 -6 OFFCURVE",
"291 -6 QCURVE",
"228 -6 OFFCURVE",
"135 34 OFFCURVE",
"73 105 OFFCURVE",
"43 204 OFFCURVE",
"43 263 QCURVE",
"43 322 OFFCURVE",
"76 421 OFFCURVE",
"138 493 OFFCURVE",
"228 533 OFFCURVE",
"290 533 QCURVE",
"353 533 OFFCURVE",
"445 483 OFFCURVE",
"501 402 OFFCURVE",
"524 308 OFFCURVE",
"522 268 QCURVE",
"522 259 OFFCURVE",
"521 241 OFFCURVE",
"520 232 QCURVE"
);
},
{
closed = 1;
nodes = (
"436 306 LINE",
"434 373 OFFCURVE",
"354 457 OFFCURVE",
"287 457 QCURVE",
"250 457 OFFCURVE",
"194 433 OFFCURVE",
"156 391 OFFCURVE",
"134 336 OFFCURVE",
"131 306 QCURVE"
);
},
{
closed = 1;
nodes = (
"321 769 LINE",
"455 606 LINE",
"369 606 LINE",
"291 702 LINE",
"213 606 LINE",
"128 606 LINE",
"261 769 LINE"
);
}
);
width = 567;
}
);
leftKerningGroup = _kern5;
rightKerningGroup = _kern6;
unicode = 00EA;
},
{
color = (153, 255, 194, 255);
glyphname = Odieresis;
layers = (
{
layerId = "DD39FC45-FCD0-450F-8BE5-088D761CC1D8";
paths = (
{
closed = 1;
nodes = (
"296 900 OFFCURVE",
"329 869 OFFCURVE",
"329 844 QCURVE",
"329 819 OFFCURVE",
"296 788 OFFCURVE",
"271 788 QCURVE",
"247 788 OFFCURVE",
"214 819 OFFCURVE",
"214 844 QCURVE",
"214 869 OFFCURVE",
"247 900 OFFCURVE",
"271 900 QCURVE"
);
},
{
closed = 1;
nodes = (
"521 900 OFFCURVE",
"554 869 OFFCURVE",
"554 844 QCURVE",
"554 819 OFFCURVE",
"521 788 OFFCURVE",
"496 788 QCURVE",
"472 788 OFFCURVE",
"440 819 OFFCURVE",
"440 844 QCURVE",
"440 869 OFFCURVE",
"472 900 OFFCURVE",
"496 900 QCURVE"
);
},
{
closed = 1;
nodes = (
"298 -8 OFFCURVE",
"174 47 OFFCURVE",
"90 143 OFFCURVE",
"48 275 OFFCURVE",
"48 353 QCURVE",
"48 431 OFFCURVE",
"90 564 OFFCURVE",
"174 660 OFFCURVE",
"298 715 OFFCURVE",
"381 715 QCURVE",
"463 715 OFFCURVE",
"587 660 OFFCURVE",
"671 564 OFFCURVE",
"713 431 OFFCURVE",
"713 353 QCURVE",
"713 275 OFFCURVE",
"671 143 OFFCURVE",
"587 47 OFFCURVE",
"463 -8 OFFCURVE",
"381 -8 QCURVE"
);
},
{
closed = 1;
nodes = (
"318 636 OFFCURVE",
"226 591 OFFCURVE",
"166 513 OFFCURVE",
"136 410 OFFCURVE",
"136 353 QCURVE",
"136 296 OFFCURVE",
"165 194 OFFCURVE",
"225 116 OFFCURVE",
"318 71 OFFCURVE",
"381 71 QCURVE",
"444 71 OFFCURVE",
"536 116 OFFCURVE",
"595 193 OFFCURVE",
"624 295 OFFCURVE",
"624 353 QCURVE",
"624 411 OFFCURVE",
"595 514 OFFCURVE",
"535 591 OFFCURVE",
"443 636 OFFCURVE",
"381 636 QCURVE"
);
}
);
width = 761;
}
);
leftKerningGroup = _kern3;
rightKerningGroup = _kern4;
unicode = 00D6;
},
{
color = (153, 255, 194, 255);
glyphname = odieresis;
layers = (
{
layerId = "DD39FC45-FCD0-450F-8BE5-088D761CC1D8";
paths = (
{
closed = 1;
nodes = (
"209 707 OFFCURVE",
"242 676 OFFCURVE",
"242 651 QCURVE",
"242 626 OFFCURVE",
"209 595 OFFCURVE",
"184 595 QCURVE",
"160 595 OFFCURVE",
"127 626 OFFCURVE",
"127 651 QCURVE",
"127 676 OFFCURVE",
"160 707 OFFCURVE",
"184 707 QCURVE"
);
},
{
closed = 1;
nodes = (
"434 707 OFFCURVE",
"467 676 OFFCURVE",
"467 651 QCURVE",
"467 626 OFFCURVE",
"434 595 OFFCURVE",
"409 595 QCURVE",
"385 595 OFFCURVE",
"353 626 OFFCURVE",
"353 651 QCURVE",
"353 676 OFFCURVE",
"385 707 OFFCURVE",
"409 707 QCURVE"
);
},
{
closed = 1;
nodes = (
"356 533 OFFCURVE",
"450 493 OFFCURVE",
"513 421 OFFCURVE",
"544 322 OFFCURVE",
"544 263 QCURVE",
"544 204 OFFCURVE",
"513 105 OFFCURVE",
"450 34 OFFCURVE",
"356 -6 OFFCURVE",
"293 -6 QCURVE",
"230 -6 OFFCURVE",
"137 34 OFFCURVE",
"74 105 OFFCURVE",
"43 204 OFFCURVE",
"43 263 QCURVE",
"43 322 OFFCURVE",
"74 421 OFFCURVE",
"137 493 OFFCURVE",
"230 533 OFFCURVE",
"293 533 QCURVE"
);
},
{
closed = 1;
nodes = (
"336 69 OFFCURVE",
"399 99 OFFCURVE",
"440 152 OFFCURVE",
"459 222 OFFCURVE",
"459 263 QCURVE",
"459 303 OFFCURVE",
"440 374 OFFCURVE",
"399 427 OFFCURVE",
"336 457 OFFCURVE",
"293 457 QCURVE",
"250 457 OFFCURVE",
"188 427 OFFCURVE",
"147 374 OFFCURVE",
"128 303 OFFCURVE",
"128 263 QCURVE",
"128 222 OFFCURVE",
"147 152 OFFCURVE",
"188 99 OFFCURVE",
"250 69 OFFCURVE",
"293 69 QCURVE"
);
}
);
width = 587;
}
);
leftKerningGroup = _kern5;
rightKerningGroup = _kern6;
unicode = 00F6;
},
{
color = (248, 153, 255, 255);
glyphname = dotlessi;
layers = (
{
layerId = "DD39FC45-FCD0-450F-8BE5-088D761CC1D8";
paths = (
{
closed = 1;
nodes = (
"152 0 LINE",
"67 0 LINE",
"67 527 LINE",
"152 527 LINE"
);
}
);
width = 219;
}
);
unicode = 0131;
},
{
color = (248, 153, 255, 255);
glyphname = Idotaccent;
layers = (
{
layerId = "DD39FC45-FCD0-450F-8BE5-088D761CC1D8";
paths = (
{
closed = 1;
nodes = (
"154 897 OFFCURVE",
"188 866 OFFCURVE",
"188 841 QCURVE",
"188 816 OFFCURVE",
"154 784 OFFCURVE",
"130 784 QCURVE",
"105 784 OFFCURVE",
"73 816 OFFCURVE",
"73 841 QCURVE",
"73 866 OFFCURVE",
"105 897 OFFCURVE",
"130 897 QCURVE"
);
},
{
closed = 1;
nodes = (
"174 0 LINE",
"87 0 LINE",
"87 707 LINE",
"174 707 LINE"
);
}
);
width = 261;
}
);
leftKerningGroup = _kern1;
rightKerningGroup = _kern2;
unicode = 0130;
},
{
color = (153, 255, 194, 255);
glyphname = udieresis;
layers = (
{
layerId = "DD39FC45-FCD0-450F-8BE5-088D761CC1D8";
paths = (
{
closed = 1;
nodes = (
"199 707 OFFCURVE",
"232 676 OFFCURVE",
"232 651 QCURVE",
"232 626 OFFCURVE",
"199 595 OFFCURVE",
"174 595 QCURVE",
"150 595 OFFCURVE",
"117 626 OFFCURVE",
"117 651 QCURVE",
"117 676 OFFCURVE",
"150 707 OFFCURVE",
"174 707 QCURVE"
);
},
{
closed = 1;
nodes = (
"424 707 OFFCURVE",
"457 676 OFFCURVE",
"457 651 QCURVE",
"457 626 OFFCURVE",
"424 595 OFFCURVE",
"399 595 QCURVE",
"375 595 OFFCURVE",
"343 626 OFFCURVE",
"343 651 QCURVE",
"343 676 OFFCURVE",
"375 707 OFFCURVE",
"399 707 QCURVE"
);
},
{
closed = 1;
nodes = (
"359 69 OFFCURVE",
"426 156 OFFCURVE",
"426 234 QCURVE",
"426 527 LINE",
"511 527 LINE",
"511 230 LINE",
"511 110 OFFCURVE",
"396 -6 OFFCURVE",
"287 -6 QCURVE",
"178 -6 OFFCURVE",
"65 110 OFFCURVE",
"65 230 QCURVE",
"65 527 LINE",
"150 527 LINE",
"150 234 LINE",
"150 156 OFFCURVE",
"218 69 OFFCURVE",
"287 69 QCURVE"
);
}
);
width = 576;
}
);
unicode = 00FC;
},
{
color = (153, 255, 194, 255);
glyphname = Udieresis;
layers = (
{
layerId = "DD39FC45-FCD0-450F-8BE5-088D761CC1D8";
paths = (
{
closed = 1;
nodes = (
"275 899 OFFCURVE",
"308 868 OFFCURVE",
"308 843 QCURVE",
"308 818 OFFCURVE",
"275 787 OFFCURVE",
"250 787 QCURVE",
"226 787 OFFCURVE",
"193 818 OFFCURVE",
"193 843 QCURVE",
"193 868 OFFCURVE",
"226 899 OFFCURVE",
"250 899 QCURVE"
);
},
{
closed = 1;
nodes = (
"500 899 OFFCURVE",
"533 868 OFFCURVE",
"533 843 QCURVE",
"533 818 OFFCURVE",
"500 787 OFFCURVE",
"475 787 QCURVE",
"451 787 OFFCURVE",
"419 818 OFFCURVE",
"419 843 QCURVE",
"419 868 OFFCURVE",
"451 899 OFFCURVE",
"475 899 QCURVE"
);
},
{
closed = 1;
nodes = (
"644 707 LINE",
"644 305 LINE",
"644 238 OFFCURVE",
"612 124 OFFCURVE",
"543 40 OFFCURVE",
"437 -8 OFFCURVE",
"363 -8 QCURVE",
"289 -8 OFFCURVE",
"182 39 OFFCURVE",
"114 123 OFFCURVE",
"82 237 OFFCURVE",
"82 305 QCURVE",
"82 707 LINE",
"169 707 LINE",
"169 306 LINE",
"169 258 OFFCURVE",
"189 172 OFFCURVE",
"235 108 OFFCURVE",
"310 71 OFFCURVE",
"364 71 QCURVE",
"418 71 OFFCURVE",
"492 108 OFFCURVE",
"537 173 OFFCURVE",
"556 258 OFFCURVE",
"556 306 QCURVE",
"556 707 LINE"
);
}
);
width = 726;
}
);
leftKerningGroup = _kern1;
rightKerningGroup = _kern2;
unicode = 00DC;
},
{
color = (153, 255, 194, 255);
glyphname = ccedilla;
layers = (
{
layerId = "DD39FC45-FCD0-450F-8BE5-088D761CC1D8";
paths = (
{
closed = 1;
nodes = (
"337 -132 OFFCURVE",
"324 -117 OFFCURVE",
"305 -111 OFFCURVE",
"286 -110 OFFCURVE",
"281 -110 QCURVE",
"271 -110 OFFCURVE",
"242 -114 OFFCURVE",
"229 -119 QCURVE",
"255 -4 LINE",
"201 1 OFFCURVE",
"122 45 OFFCURVE",
"69 115 OFFCURVE",
"44 208 OFFCURVE",
"44 262 QCURVE",
"44 319 OFFCURVE",
"76 418 OFFCURVE",
"138 491 OFFCURVE",
"230 533 OFFCURVE",
"291 533 QCURVE",
"379 533 OFFCURVE",
"488 458 OFFCURVE",
"505 376 QCURVE",
"418 376 LINE",
"405 422 OFFCURVE",
"336 458 OFFCURVE",
"291 457 QCURVE",
"247 457 OFFCURVE",
"186 424 OFFCURVE",
"147 370 OFFCURVE",
"129 299 OFFCURVE",
"129 262 QCURVE",
"129 223 OFFCURVE",
"148 153 OFFCURVE",
"187 100 OFFCURVE",
"249 69 OFFCURVE",
"292 69 QCURVE",
"313 69 OFFCURVE",
"354 77 OFFCURVE",
"389 96 OFFCURVE",
"415 128 OFFCURVE",
"421 151 QCURVE",
"509 151 LINE",
"502 113 OFFCURVE",
"466 58 OFFCURVE",
"415 20 OFFCURVE",
"351 -1 OFFCURVE",
"317 -4 QCURVE",
"305 -59 LINE",
"311 -58 OFFCURVE",
"323 -57 OFFCURVE",
"328 -57 QCURVE",
"358 -58 OFFCURVE",
"377 -71 QCURVE",
"406 -89 OFFCURVE",
"407 -138 QCURVE",
"407 -174 OFFCURVE",
"373 -221 OFFCURVE",
"324 -246 OFFCURVE",
"274 -253 OFFCURVE",
"260 -253 QCURVE",
"252 -253 OFFCURVE",
"235 -252 OFFCURVE",
"227 -250 QCURVE",
"227 -198 LINE",
"244 -199 OFFCURVE",
"283 -197 OFFCURVE",
"316 -187 OFFCURVE",
"338 -165 OFFCURVE",
"338 -145 QCURVE"
);
}
);
width = 550;
}
);
leftKerningGroup = _kern5;
rightKerningGroup = _kern6;
unicode = 00E7;
},
{
color = (153, 255, 194, 255);
glyphname = uni0162;
layers = (
{
layerId = "DD39FC45-FCD0-450F-8BE5-088D761CC1D8";
paths = (
{
closed = 1;
nodes = (
"313 0 LINE",
"300 -59 LINE",
"305 -58 OFFCURVE",
"316 -57 OFFCURVE",
"321 -57 QCURVE",
"349 -57 OFFCURVE",
"369 -70 QCURVE",
"402 -91 OFFCURVE",
"402 -138 QCURVE",
"403 -175 OFFCURVE",
"368 -221 OFFCURVE",
"319 -246 OFFCURVE",
"269 -254 OFFCURVE",
"255 -253 QCURVE",
"247 -253 OFFCURVE",
"230 -252 OFFCURVE",
"222 -250 QCURVE",
"222 -198 LINE",
"239 -199 OFFCURVE",
"278 -197 OFFCURVE",
"311 -187 OFFCURVE",
"333 -165 OFFCURVE",
"333 -145 QCURVE",
"333 -132 OFFCURVE",
"320 -117 OFFCURVE",
"300 -111 OFFCURVE",
"281 -110 OFFCURVE",
"276 -110 QCURVE",
"266 -110 OFFCURVE",
"237 -114 OFFCURVE",
"224 -119 QCURVE",
"252 0 LINE",
"241 0 LINE",
"241 628 LINE",
"14 628 LINE",
"14 707 LINE",
"555 707 LINE",
"555 628 LINE",
"328 628 LINE",
"328 0 LINE"
);
}
);
width = 569;
}
);
leftKerningGroup = _kern28;
rightKerningGroup = _kern28;
unicode = 0162;
},
{
color = (153, 255, 194, 255);
glyphname = uni0163;
layers = (
{
layerId = "DD39FC45-FCD0-450F-8BE5-088D761CC1D8";
paths = (
{
closed = 1;
nodes = (
"200 527 LINE",
"341 527 LINE",
"341 452 LINE",
"200 452 LINE",
"200 179 LINE",
"200 125 OFFCURVE",
"242 74 OFFCURVE",
"299 74 QCURVE",
"338 74 LINE",
"338 0 LINE",
"267 0 LINE",
"264 0 OFFCURVE",
"258 0 OFFCURVE",
"250 1 QCURVE",
"231 -59 LINE",
"237 -58 OFFCURVE",
"249 -57 OFFCURVE",
"254 -57 QCURVE",
"281 -57 OFFCURVE",
"302 -70 QCURVE",
"333 -89 OFFCURVE",
"333 -135 QCURVE",
"333 -138 LINE",
"334 -175 OFFCURVE",
"299 -221 OFFCURVE",
"250 -246 OFFCURVE",
"200 -254 OFFCURVE",
"186 -253 QCURVE",
"178 -253 OFFCURVE",
"161 -252 OFFCURVE",
"153 -251 QCURVE",
"153 -198 LINE",
"170 -199 OFFCURVE",
"209 -197 OFFCURVE",
"242 -187 OFFCURVE",
"264 -165 OFFCURVE",
"264 -145 QCURVE",
"264 -132 OFFCURVE",
"252 -117 OFFCURVE",
"231 -111 OFFCURVE",
"212 -110 OFFCURVE",
"207 -110 QCURVE",
"197 -110 OFFCURVE",
"168 -114 OFFCURVE",
"155 -119 QCURVE",
"192 14 LINE",
"150 31 OFFCURVE",
"115 107 OFFCURVE",
"115 170 QCURVE",
"115 452 LINE",
"29 452 LINE",
"29 527 LINE",
"115 527 LINE",
"115 684 LINE",
"200 684 LINE"
);
}
);
width = 380;
}
);
leftKerningGroup = _kern21;
rightKerningGroup = _kern21;
unicode = 0163;
},
{
color = (153, 255, 194, 255);
glyphname = Ccedilla;
layers = (
{
layerId = "DD39FC45-FCD0-450F-8BE5-088D761CC1D8";
paths = (
{
closed = 1;
nodes = (
"309 636 OFFCURVE",
"220 590 OFFCURVE",
"163 512 OFFCURVE",
"137 411 OFFCURVE",
"137 356 QCURVE",
"137 297 OFFCURVE",
"165 193 OFFCURVE",
"223 116 OFFCURVE",
"313 71 OFFCURVE",
"375 71 QCURVE",
"450 71 OFFCURVE",
"552 131 OFFCURVE",
"567 185 QCURVE",
"662 185 LINE",
"640 100 OFFCURVE",
"504 -2 OFFCURVE",
"398 -7 QCURVE",
"386 -61 LINE",
"392 -60 OFFCURVE",
"404 -59 OFFCURVE",
"409 -59 QCURVE",
"436 -59 OFFCURVE",
"456 -72 QCURVE",
"488 -91 OFFCURVE",
"488 -140 QCURVE",
"489 -171 OFFCURVE",
"454 -223 OFFCURVE",
"405 -248 OFFCURVE",
"363 -255 OFFCURVE",
"341 -255 QCURVE",
"333 -255 OFFCURVE",
"317 -254 OFFCURVE",
"308 -253 QCURVE",
"308 -200 LINE",
"325 -201 OFFCURVE",
"364 -199 OFFCURVE",
"397 -189 OFFCURVE",
"419 -167 OFFCURVE",
"419 -147 QCURVE",
"419 -134 OFFCURVE",
"405 -119 OFFCURVE",
"386 -113 OFFCURVE",
"367 -112 OFFCURVE",
"362 -112 QCURVE",
"352 -112 OFFCURVE",
"323 -116 OFFCURVE",
"310 -121 QCURVE",
"336 -6 LINE",
"263 0 OFFCURVE",
"155 58 OFFCURVE",
"83 152 OFFCURVE",
"48 279 OFFCURVE",
"48 353 QCURVE",
"48 431 OFFCURVE",
"88 563 OFFCURVE",
"170 660 OFFCURVE",
"292 715 OFFCURVE",
"375 715 QCURVE",
"433 715 OFFCURVE",
"526 687 OFFCURVE",
"595 636 OFFCURVE",
"639 565 OFFCURVE",
"649 522 QCURVE",
"561 522 LINE",
"546 574 OFFCURVE",
"447 636 OFFCURVE",
"372 636 QCURVE"
);
}
);
width = 710;
}
);
leftKerningGroup = _kern3;
rightKerningGroup = _kern4;
unicode = 00C7;
},
{
color = (153, 255, 194, 255);
glyphname = scedilla;
layers = (
{
layerId = "DD39FC45-FCD0-450F-8BE5-088D761CC1D8";
paths = (
{
closed = 1;
nodes = (
"245 457 OFFCURVE",
"204 452 OFFCURVE",
"169 437 OFFCURVE",
"144 408 OFFCURVE",
"143 384 QCURVE",
"143 350 OFFCURVE",
"194 316 OFFCURVE",
"235 308 QCURVE",
"252 304 OFFCURVE",
"292 297 OFFCURVE",
"331 290 OFFCURVE",
"366 282 OFFCURVE",
"378 278 QCURVE",
"474 248 OFFCURVE",
"474 151 QCURVE",
"473 104 OFFCURVE",
"441 49 OFFCURVE",
"389 14 OFFCURVE",
"323 -3 OFFCURVE",
"288 -5 QCURVE",
"276 -59 LINE",
"282 -58 OFFCURVE",
"294 -57 OFFCURVE",
"299 -57 QCURVE",
"326 -57 OFFCURVE",
"348 -70 QCURVE",
"378 -89 OFFCURVE",
"378 -135 QCURVE",
"379 -171 OFFCURVE",
"344 -221 OFFCURVE",
"295 -246 OFFCURVE",
"245 -254 OFFCURVE",
"231 -253 QCURVE",
"223 -253 OFFCURVE",
"206 -251 OFFCURVE",
"198 -250 QCURVE",
"198 -198 LINE",
"215 -199 OFFCURVE",
"254 -197 OFFCURVE",
"287 -187 OFFCURVE",
"309 -165 OFFCURVE",
"309 -145 QCURVE",
"309 -132 OFFCURVE",
"295 -117 OFFCURVE",
"276 -111 OFFCURVE",
"257 -110 OFFCURVE",
"252 -110 QCURVE",
"242 -110 OFFCURVE",
"213 -114 OFFCURVE",
"200 -119 QCURVE",
"226 -4 LINE",
"194 -1 OFFCURVE",
"132 17 OFFCURVE",
"82 52 OFFCURVE",
"48 105 OFFCURVE",
"43 143 QCURVE",
"129 143 LINE",
"137 119 OFFCURVE",
"171 91 OFFCURVE",
"211 76 OFFCURVE",
"242 70 OFFCURVE",
"264 69 QCURVE",
"281 68 OFFCURVE",
"325 73 OFFCURVE",
"363 88 OFFCURVE",
"389 117 OFFCURVE",
"389 144 QCURVE",
"389 177 OFFCURVE",
"352 206 OFFCURVE",
"316 212 QCURVE",
"292 217 OFFCURVE",
"241 226 OFFCURVE",
"190 237 OFFCURVE",
"142 252 OFFCURVE",
"121 265 QCURVE",
"95 282 OFFCURVE",
"59 340 OFFCURVE",
"59 386 QCURVE",
"61 428 OFFCURVE",
"97 483 OFFCURVE",
"125 501 QCURVE",
"156 519 OFFCURVE",
"226 533 OFFCURVE",
"261 533 QCURVE",
"343 533 OFFCURVE",
"390 498 QCURVE",
"419 478 OFFCURVE",
"451 422 OFFCURVE",
"455 391 QCURVE",
"376 391 LINE",
"369 420 OFFCURVE",
"307 455 OFFCURVE",
"262 457 QCURVE"
);
}
);
width = 518;
}
);
leftKerningGroup = _kern5;
rightKerningGroup = _kern6;
unicode = 015F;
},
{
color = (153, 255, 194, 255);
glyphname = uni21A9;
layers = (
{
layerId = "DD39FC45-FCD0-450F-8BE5-088D761CC1D8";
paths = (
{
closed = 1;
nodes = (
"424 -221 LINE",
"377 -275 LINE",
"59 39 LINE",
"377 354 LINE",
"422 296 LINE",
"194 76 LINE",
"757 76 LINE",
"815 76 OFFCURVE",
"905 117 OFFCURVE",
"967 188 OFFCURVE",
"999 284 OFFCURVE",
"999 340 QCURVE",
"999 395 OFFCURVE",
"967 491 OFFCURVE",
"905 562 OFFCURVE",
"815 603 OFFCURVE",
"757 603 QCURVE",
"195 603 LINE",
"195 679 LINE",
"758 679 LINE",
"834 679 OFFCURVE",
"953 629 OFFCURVE",
"1035 539 OFFCURVE",
"1079 414 OFFCURVE",
"1079 340 QCURVE",
"1079 265 OFFCURVE",
"1035 140 OFFCURVE",
"953 50 OFFCURVE",
"834 0 OFFCURVE",
"758 0 QCURVE",
"194 0 LINE"
);
}
);
width = 1138;
}
);
unicode = 21A9;
},
{
color = (153, 255, 194, 255);
glyphname = uni2713;
layers = (
{
layerId = "DD39FC45-FCD0-450F-8BE5-088D761CC1D8";
paths = (
{
closed = 1;
nodes = (
"913 827 LINE",
"980 766 LINE",
"373 -1 LINE",
"59 372 LINE",
"124 433 LINE",
"374 141 LINE"
);
}
);
width = 1039;
}
);
unicode = 2713;
},
{
color = (153, 255, 194, 255);
glyphname = divide;
layers = (
{
layerId = "DD39FC45-FCD0-450F-8BE5-088D761CC1D8";
paths = (
{
closed = 1;
nodes = (
"262 594 OFFCURVE",
"296 560 OFFCURVE",
"296 534 QCURVE",
"296 508 OFFCURVE",
"262 474 OFFCURVE",
"236 474 QCURVE",
"210 474 OFFCURVE",
"177 508 OFFCURVE",
"177 534 QCURVE",
"177 560 OFFCURVE",
"210 594 OFFCURVE",
"236 594 QCURVE"
);
},
{
closed = 1;
nodes = (
"59 399 LINE",
"415 399 LINE",
"415 322 LINE",
"59 322 LINE"
);
},
{
closed = 1;
nodes = (
"262 239 OFFCURVE",
"296 205 OFFCURVE",
"296 179 QCURVE",
"296 152 OFFCURVE",
"262 118 OFFCURVE",
"236 118 QCURVE",
"210 118 OFFCURVE",
"177 152 OFFCURVE",
"177 179 QCURVE",
"177 205 OFFCURVE",
"210 239 OFFCURVE",
"236 239 QCURVE"
);
}
);
width = 474;
}
);
unicode = 00F7;
},
{
color = (153, 255, 194, 255);
glyphname = multiply;
layers = (
{
layerId = "DD39FC45-FCD0-450F-8BE5-088D761CC1D8";
paths = (
{
closed = 1;
nodes = (
"239 303 LINE",
"100 165 LINE",
"50 215 LINE",
"189 353 LINE",
"50 492 LINE",
"100 542 LINE",
"239 403 LINE",
"377 542 LINE",
"427 492 LINE",
"289 353 LINE",
"427 215 LINE",
"377 165 LINE"
);
}
);
width = 477;
}
);
unicode = 00D7;
},
{
color = (153, 255, 194, 255);
glyphname = yen;
layers = (
{
layerId = "DD39FC45-FCD0-450F-8BE5-088D761CC1D8";
paths = (
{
closed = 1;
nodes = (
"526 707 LINE",
"625 707 LINE",
"409 324 LINE",
"519 324 LINE",
"519 247 LINE",
"376 247 LINE",
"376 166 LINE",
"519 166 LINE",
"519 89 LINE",
"376 89 LINE",
"376 0 LINE",
"289 0 LINE",
"289 89 LINE",
"144 89 LINE",
"144 166 LINE",
"289 166 LINE",
"289 247 LINE",
"144 247 LINE",
"144 324 LINE",
"256 324 LINE",
"39 707 LINE",
"139 707 LINE",
"334 353 LINE"
);
}
);
width = 664;
}
);
unicode = 00A5;
},
{
color = (153, 255, 194, 255);
glyphname = uni20BD;
layers = (
{
layerId = "DD39FC45-FCD0-450F-8BE5-088D761CC1D8";
paths = (
{
closed = 1;
nodes = (
"59 171 LINE",
"156 171 LINE",
"156 252 LINE",
"59 252 LINE",
"59 332 LINE",
"156 332 LINE",
"156 707 LINE",
"401 707 LINE",
"519 707 OFFCURVE",
"650 602 OFFCURVE",
"650 482 QCURVE",
"650 423 OFFCURVE",
"611 336 OFFCURVE",
"542 279 OFFCURVE",
"447 252 OFFCURVE",
"391 252 QCURVE",
"243 252 LINE",
"243 171 LINE",
"484 171 LINE",
"484 92 LINE",
"243 92 LINE",
"243 0 LINE",
"156 0 LINE",
"156 92 LINE",
"59 92 LINE"
);
},
{
closed = 1;
nodes = (
"392 332 LINE",
"427 332 OFFCURVE",
"488 349 OFFCURVE",
"534 384 OFFCURVE",
"561 440 OFFCURVE",
"562 483 QCURVE",
"562 562 OFFCURVE",
"481 628 OFFCURVE",
"399 628 QCURVE",
"243 628 LINE",
"243 332 LINE"
);
}
);
width = 699;
}
);
unicode = 20BD;
},
{
color = (153, 255, 194, 255);
glyphname = uni20B4;
layers = (
{
layerId = "DD39FC45-FCD0-450F-8BE5-088D761CC1D8";
paths = (
{
closed = 1;
nodes = (
"355 715 OFFCURVE",
"425 697 OFFCURVE",
"479 660 OFFCURVE",
"512 601 OFFCURVE",
"512 559 QCURVE",
"512 518 OFFCURVE",
"488 471 OFFCURVE",
"474 454 QCURVE",
"542 454 LINE",
"542 375 LINE",
"404 375 LINE",
"287 292 LINE",
"542 292 LINE",
"542 213 LINE",
"199 213 LINE",
"191 205 OFFCURVE",
"181 178 OFFCURVE",
"181 160 QCURVE",
"181 134 OFFCURVE",
"203 99 OFFCURVE",
"239 78 OFFCURVE",
"283 68 OFFCURVE",
"305 69 QCURVE",
"326 70 OFFCURVE",
"364 76 OFFCURVE",
"395 90 OFFCURVE",
"419 116 OFFCURVE",
"426 137 QCURVE",
"515 137 LINE",
"509 98 OFFCURVE",
"469 42 OFFCURVE",
"409 8 OFFCURVE",
"335 -8 OFFCURVE",
"295 -8 QCURVE",
"256 -8 OFFCURVE",
"183 10 OFFCURVE",
"128 47 OFFCURVE",
"95 107 OFFCURVE",
"95 149 QCURVE",
"95 161 OFFCURVE",
"103 196 OFFCURVE",
"111 213 QCURVE",
"47 213 LINE",
"47 292 LINE",
"170 292 LINE",
"287 375 LINE",
"47 375 LINE",
"47 454 LINE",
"382 454 LINE",
"398 463 OFFCURVE",
"429 514 OFFCURVE",
"430 542 QCURVE",
"430 590 OFFCURVE",
"366 636 OFFCURVE",
"315 636 QCURVE",
"297 636 OFFCURVE",
"256 630 OFFCURVE",
"222 615 OFFCURVE",
"197 586 OFFCURVE",
"191 562 QCURVE",
"99 562 LINE",
"105 602 OFFCURVE",
"146 660 OFFCURVE",
"205 697 OFFCURVE",
"279 715 OFFCURVE",
"318 715 QCURVE"
);
}
);
width = 589;
}
);
unicode = 20B4;
},
{
color = (153, 255, 194, 255);
glyphname = sterling;
layers = (
{
layerId = "DD39FC45-FCD0-450F-8BE5-088D761CC1D8";
paths = (
{
closed = 1;
nodes = (
"434 376 LINE",
"434 297 LINE",
"226 297 LINE",
"226 79 LINE",
"525 79 LINE",
"525 0 LINE",
"59 0 LINE",
"59 79 LINE",
"141 79 LINE",
"141 297 LINE",
"59 297 LINE",
"59 376 LINE",
"141 376 LINE",
"141 521 LINE",
"141 615 OFFCURVE",
"246 715 OFFCURVE",
"340 715 QCURVE",
"376 715 OFFCURVE",
"439 697 OFFCURVE",
"487 660 OFFCURVE",
"518 604 OFFCURVE",
"521 567 QCURVE",
"438 567 LINE",
"433 600 OFFCURVE",
"378 636 OFFCURVE",
"343 636 QCURVE",
"318 636 OFFCURVE",
"278 627 OFFCURVE",
"246 601 OFFCURVE",
"226 555 OFFCURVE",
"226 518 QCURVE",
"226 376 LINE"
);
}
);
width = 584;
}
);
unicode = 00A3;
},
{
color = (153, 255, 194, 255);
glyphname = Scedilla;
layers = (
{
layerId = "DD39FC45-FCD0-450F-8BE5-088D761CC1D8";
paths = (
{
closed = 1;
nodes = (
"295 636 OFFCURVE",
"238 626 OFFCURVE",
"192 601 OFFCURVE",
"163 558 OFFCURVE",
"163 525 QCURVE",
"163 485 OFFCURVE",
"205 436 OFFCURVE",
"235 423 QCURVE",
"259 413 OFFCURVE",
"313 399 OFFCURVE",
"370 387 OFFCURVE",
"425 375 OFFCURVE",
"451 366 QCURVE",
"512 345 OFFCURVE",
"585 267 OFFCURVE",
"585 203 QCURVE",
"585 145 OFFCURVE",
"547 68 OFFCURVE",
"481 18 OFFCURVE",
"394 -7 OFFCURVE",
"345 -8 QCURVE",
"334 -59 LINE",
"340 -58 OFFCURVE",
"352 -57 OFFCURVE",
"357 -57 QCURVE",
"389 -57 OFFCURVE",
"408 -71 QCURVE",
"434 -91 OFFCURVE",
"436 -135 QCURVE",
"438 -172 OFFCURVE",
"402 -221 OFFCURVE",
"353 -246 OFFCURVE",
"303 -254 OFFCURVE",
"289 -253 QCURVE",
"281 -253 OFFCURVE",
"264 -252 OFFCURVE",
"256 -250 QCURVE",
"256 -198 LINE",
"273 -199 OFFCURVE",
"312 -197 OFFCURVE",
"345 -187 OFFCURVE",
"367 -164 OFFCURVE",
"367 -145 QCURVE",
"367 -132 OFFCURVE",
"354 -117 OFFCURVE",
"334 -111 OFFCURVE",
"315 -110 OFFCURVE",
"310 -110 QCURVE",
"300 -110 OFFCURVE",
"271 -114 OFFCURVE",
"258 -119 QCURVE",
"284 -5 LINE",
"241 -1 OFFCURVE",
"163 24 OFFCURVE",
"101 70 OFFCURVE",
"57 138 OFFCURVE",
"48 185 QCURVE",
"139 185 LINE",
"149 151 OFFCURVE",
"191 107 OFFCURVE",
"245 81 OFFCURVE",
"308 71 OFFCURVE",
"339 71 QCURVE",
"369 71 OFFCURVE",
"426 84 OFFCURVE",
"470 112 OFFCURVE",
"496 156 OFFCURVE",
"496 187 QCURVE",
"496 234 OFFCURVE",
"446 280 OFFCURVE",
"404 292 QCURVE",
"376 301 OFFCURVE",
"314 313 OFFCURVE",
"252 327 OFFCURVE",
"192 345 OFFCURVE",
"167 359 QCURVE",
"125 382 OFFCURVE",
"73 457 OFFCURVE",
"73 517 QCURVE",
"73 573 OFFCURVE",
"117 649 OFFCURVE",
"187 695 OFFCURVE",
"274 715 OFFCURVE",
"320 715 QCURVE",
"362 714 OFFCURVE",
"428 703 OFFCURVE",
"457 689 QCURVE",
"502 669 OFFCURVE",
"562 589 OFFCURVE",
"565 526 QCURVE",
"480 526 LINE",
"476 557 OFFCURVE",
"447 599 OFFCURVE",
"405 625 OFFCURVE",
"352 636 OFFCURVE",
"323 636 QCURVE"
);
}
);
width = 634;
}
);
leftKerningGroup = _kern3;
rightKerningGroup = _kern4;
unicode = 015E;
},
{
color = (153, 255, 194, 255);
glyphname = t_alt;
layers = (
{
layerId = "DD39FC45-FCD0-450F-8BE5-088D761CC1D8";
paths = (
{
closed = 1;
nodes = (
"200 527 LINE",
"341 527 LINE",
"341 452 LINE",
"200 452 LINE",
"200 179 LINE",
"200 125 OFFCURVE",
"242 74 OFFCURVE",
"299 74 QCURVE",
"338 74 LINE",
"338 0 LINE",
"281 0 LINE",
"191 0 OFFCURVE",
"115 82 OFFCURVE",
"115 170 QCURVE",
"115 452 LINE",
"29 452 LINE",
"29 527 LINE",
"115 527 LINE",
"131 684 LINE",
"200 684 LINE"
);
}
);
width = 380;
}
);
leftKerningGroup = _kern21;
rightKerningGroup = _kern21;
},
{
color = (153, 255, 194, 255);
glyphname = alt_1;
layers = (
{
layerId = "DD39FC45-FCD0-450F-8BE5-088D761CC1D8";
paths = (
{
closed = 1;
nodes = (
"318 79 LINE",
"470 79 LINE",
"470 0 LINE",
"47 0 LINE",
"47 79 LINE",
"231 79 LINE",
"231 567 LINE",
"73 567 LINE",
"73 621 LINE",
"102 623 OFFCURVE",
"156 631 OFFCURVE",
"203 650 OFFCURVE",
"242 681 OFFCURVE",
"257 707 QCURVE",
"318 707 LINE"
);
}
);
width = 489;
}
);
},
{
color = (153, 255, 194, 255);
glyphname = uni2117;
layers = (
{
layerId = "DD39FC45-FCD0-450F-8BE5-088D761CC1D8";
paths = (
{
closed = 1;
nodes = (
"552 715 OFFCURVE",
"701 656 OFFCURVE",
"808 547 OFFCURVE",
"868 392 OFFCURVE",
"868 296 QCURVE",
"868 199 OFFCURVE",
"809 44 OFFCURVE",
"703 -64 OFFCURVE",
"553 -122 OFFCURVE",
"463 -122 QCURVE",
"373 -122 OFFCURVE",
"224 -64 OFFCURVE",
"117 44 OFFCURVE",
"59 199 OFFCURVE",
"59 296 QCURVE",
"59 392 OFFCURVE",
"119 547 OFFCURVE",
"226 656 OFFCURVE",
"374 715 OFFCURVE",
"463 715 QCURVE"
);
},
{
closed = 1;
nodes = (
"392 641 OFFCURVE",
"273 593 OFFCURVE",
"187 503 OFFCURVE",
"139 375 OFFCURVE",
"139 296 QCURVE",
"139 216 OFFCURVE",
"186 89 OFFCURVE",
"271 0 OFFCURVE",
"391 -48 OFFCURVE",
"463 -48 QCURVE",
"535 -48 OFFCURVE",
"655 0 OFFCURVE",
"740 89 OFFCURVE",
"787 216 OFFCURVE",
"787 296 QCURVE",
"787 375 OFFCURVE",
"739 503 OFFCURVE",
"653 593 OFFCURVE",
"534 641 OFFCURVE",
"463 641 QCURVE"
);
},
{
closed = 1;
nodes = (
"407 72 LINE",
"330 72 LINE",
"330 507 LINE",
"491 507 LINE",
"566 507 OFFCURVE",
"648 438 OFFCURVE",
"648 365 QCURVE",
"648 320 OFFCURVE",
"622 263 OFFCURVE",
"577 225 OFFCURVE",
"516 206 OFFCURVE",
"480 206 QCURVE",
"407 206 LINE"
);
},
{
closed = 1;
nodes = (
"477 279 LINE",
"516 279 OFFCURVE",
"569 314 OFFCURVE",
"570 360 QCURVE",
"570 434 OFFCURVE",
"486 434 QCURVE",
"407 434 LINE",
"407 279 LINE"
);
}
);
width = 927;
}
);
unicode = 2117;
},
{
color = (153, 255, 194, 255);
glyphname = colon.uc;
layers = (
{
layerId = "DD39FC45-FCD0-450F-8BE5-088D761CC1D8";
paths = (
{
closed = 1;
nodes = (
"151 581 OFFCURVE",
"186 547 OFFCURVE",
"186 521 QCURVE",
"186 494 OFFCURVE",
"151 461 OFFCURVE",
"126 461 QCURVE",
"100 461 OFFCURVE",
"67 495 OFFCURVE",
"67 521 QCURVE",
"67 547 OFFCURVE",
"100 581 OFFCURVE",
"126 581 QCURVE"
);
},
{
closed = 1;
nodes = (
"151 225 OFFCURVE",
"186 191 OFFCURVE",
"186 165 QCURVE",
"186 139 OFFCURVE",
"151 105 OFFCURVE",
"126 105 QCURVE",
"100 105 OFFCURVE",
"67 139 OFFCURVE",
"67 165 QCURVE",
"67 191 OFFCURVE",
"100 225 OFFCURVE",
"126 225 QCURVE"
);
}
);
width = 253;
}
);
},
{
color = (153, 255, 194, 255);
glyphname = y_alt;
layers = (
{
layerId = "DD39FC45-FCD0-450F-8BE5-088D761CC1D8";
paths = (
{
closed = 1;
nodes = (
"530 527 LINE",
"530 1 LINE",
"530 -114 OFFCURVE",
"404 -236 OFFCURVE",
"289 -236 QCURVE",
"249 -236 OFFCURVE",
"176 -218 OFFCURVE",
"117 -179 OFFCURVE",
"76 -120 OFFCURVE",
"68 -79 QCURVE",
"156 -79 LINE",
"162 -102 OFFCURVE",
"191 -133 OFFCURVE",
"229 -152 OFFCURVE",
"273 -160 OFFCURVE",
"294 -160 QCURVE",
"335 -160 OFFCURVE",
"393 -135 OFFCURVE",
"429 -91 OFFCURVE",
"446 -30 OFFCURVE",
"446 6 QCURVE",
"446 73 LINE",
"433 49 OFFCURVE",
"392 18 OFFCURVE",
"351 0 OFFCURVE",
"302 -9 OFFCURVE",
"278 -9 QCURVE",
"273 -9 LINE",
"213 -8 OFFCURVE",
"134 28 OFFCURVE",
"87 92 OFFCURVE",
"67 181 OFFCURVE",
"67 235 QCURVE",
"67 527 LINE",
"152 527 LINE",
"152 259 LINE",
"152 223 OFFCURVE",
"161 154 OFFCURVE",
"190 100 OFFCURVE",
"243 67 OFFCURVE",
"288 66 QCURVE",
"333 66 OFFCURVE",
"396 104 OFFCURVE",
"413 133 QCURVE",
"432 163 OFFCURVE",
"445 235 OFFCURVE",
"445 273 QCURVE",
"445 527 LINE"
);
}
);
width = 597;
}
);
},
{
color = (153, 255, 194, 255);
glyphname = u_alt;
layers = (
{
layerId = "DD39FC45-FCD0-450F-8BE5-088D761CC1D8";
paths = (
{
closed = 1;
nodes = (
"519 527 LINE",
"519 0 LINE",
"448 0 LINE",
"442 76 LINE",
"428 53 OFFCURVE",
"387 21 OFFCURVE",
"340 0 OFFCURVE",
"289 -9 OFFCURVE",
"265 -9 QCURVE",
"208 -9 OFFCURVE",
"130 27 OFFCURVE",
"82 92 OFFCURVE",
"62 180 OFFCURVE",
"62 233 QCURVE",
"62 527 LINE",
"147 527 LINE",
"147 255 LINE",
"147 219 OFFCURVE",
"154 151 OFFCURVE",
"181 99 OFFCURVE",
"233 67 OFFCURVE",
"278 66 QCURVE",
"323 66 OFFCURVE",
"385 104 OFFCURVE",
"403 133 QCURVE",
"422 163 OFFCURVE",
"434 235 OFFCURVE",
"434 273 QCURVE",
"434 527 LINE"
);
}
);
width = 586;
}
);
},
{
color = (153, 255, 194, 255);
glyphname = be_alt;
layers = (
{
layerId = "DD39FC45-FCD0-450F-8BE5-088D761CC1D8";
paths = (
{
closed = 1;
nodes = (
"44 322 OFFCURVE",
"46 384 OFFCURVE",
"52 448 OFFCURVE",
"66 514 OFFCURVE",
"78 541 QCURVE",
"99 586 OFFCURVE",
"155 641 OFFCURVE",
"198 661 QCURVE",
"249 685 OFFCURVE",
"361 723 OFFCURVE",
"414 742 QCURVE",
"429 748 OFFCURVE",
"461 766 OFFCURVE",
"477 782 QCURVE",
"524 715 LINE",
"514 695 OFFCURVE",
"480 674 OFFCURVE",
"460 666 QCURVE",
"405 646 OFFCURVE",
"288 610 OFFCURVE",
"234 587 QCURVE",
"189 568 OFFCURVE",
"166 533 QCURVE",
"148 508 OFFCURVE",
"132 446 OFFCURVE",
"131 413 QCURVE",
"163 451 OFFCURVE",
"253 487 OFFCURVE",
"299 487 QCURVE",
"353 488 OFFCURVE",
"436 452 OFFCURVE",
"493 389 OFFCURVE",
"523 301 OFFCURVE",
"523 248 QCURVE",
"523 194 OFFCURVE",
"492 101 OFFCURVE",
"431 33 OFFCURVE",
"342 -6 OFFCURVE",
"284 -6 QCURVE",
"218 -6 OFFCURVE",
"127 41 OFFCURVE",
"71 120 OFFCURVE",
"44 226 OFFCURVE",
"44 307 QCURVE"
);
},
{
closed = 1;
nodes = (
"322 69 OFFCURVE",
"379 97 OFFCURVE",
"418 145 OFFCURVE",
"438 209 OFFCURVE",
"438 245 QCURVE",
"438 280 OFFCURVE",
"417 341 OFFCURVE",
"379 386 OFFCURVE",
"325 411 OFFCURVE",
"291 411 QCURVE",
"252 410 OFFCURVE",
"194 384 OFFCURVE",
"155 337 OFFCURVE",
"134 276 OFFCURVE",
"134 236 QCURVE",
"134 205 OFFCURVE",
"153 145 OFFCURVE",
"191 98 OFFCURVE",
"247 69 OFFCURVE",
"285 69 QCURVE"
);
}
);
width = 567;
}
);
},
{
color = (153, 255, 194, 255);
glyphname = g_alt;
layers = (
{
layerId = "DD39FC45-FCD0-450F-8BE5-088D761CC1D8";
paths = (
{
closed = 1;
nodes = (
"533 0 LINE",
"533 -115 OFFCURVE",
"412 -236 OFFCURVE",
"301 -236 QCURVE",
"294 -236 LINE",
"234 -235 OFFCURVE",
"128 -202 OFFCURVE",
"83 -160 QCURVE",
"120 -93 LINE",
"159 -124 OFFCURVE",
"246 -160 OFFCURVE",
"297 -160 QCURVE",
"337 -160 OFFCURVE",
"395 -135 OFFCURVE",
"431 -90 OFFCURVE",
"448 -28 OFFCURVE",
"448 8 QCURVE",
"448 79 LINE",
"422 33 OFFCURVE",
"326 -6 OFFCURVE",
"274 -6 QCURVE",
"214 -5 OFFCURVE",
"126 36 OFFCURVE",
"70 108 OFFCURVE",
"43 205 OFFCURVE",
"43 262 QCURVE",
"43 319 OFFCURVE",
"71 418 OFFCURVE",
"129 491 OFFCURVE",
"217 533 OFFCURVE",
"278 533 QCURVE",
"324 533 OFFCURVE",
"418 499 OFFCURVE",
"448 461 QCURVE",
"452 527 LINE",
"533 527 LINE"
);
},
{
closed = 1;
nodes = (
"242 457 OFFCURVE",
"182 426 OFFCURVE",
"145 374 OFFCURVE",
"128 303 OFFCURVE",
"128 263 QCURVE",
"128 219 OFFCURVE",
"144 152 OFFCURVE",
"182 100 OFFCURVE",
"242 69 OFFCURVE",
"286 69 QCURVE",
"337 69 OFFCURVE",
"403 117 OFFCURVE",
"423 153 QCURVE",
"437 178 OFFCURVE",
"449 237 OFFCURVE",
"449 266 QCURVE",
"449 302 OFFCURVE",
"436 362 OFFCURVE",
"419 388 QCURVE",
"399 417 OFFCURVE",
"333 457 OFFCURVE",
"285 457 QCURVE"
);
}
);
width = 600;
}
);
},
{
color = (153, 255, 194, 255);
glyphname = y;
layers = (
{
layerId = "DD39FC45-FCD0-450F-8BE5-088D761CC1D8";
paths = (
{
closed = 1;
nodes = (
"530 527 LINE",
"530 0 LINE",
"530 -115 OFFCURVE",
"410 -236 OFFCURVE",
"299 -236 QCURVE",
"232 -235 OFFCURVE",
"125 -202 OFFCURVE",
"80 -160 QCURVE",
"117 -93 LINE",
"156 -124 OFFCURVE",
"245 -160 OFFCURVE",
"294 -160 QCURVE",
"335 -160 OFFCURVE",
"393 -135 OFFCURVE",
"430 -90 OFFCURVE",
"447 -28 OFFCURVE",
"447 8 QCURVE",
"447 71 LINE",
"434 51 OFFCURVE",
"395 20 OFFCURVE",
"350 1 OFFCURVE",
"299 -8 OFFCURVE",
"273 -8 QCURVE",
"213 -7 OFFCURVE",
"134 29 OFFCURVE",
"87 93 OFFCURVE",
"67 182 OFFCURVE",
"67 236 QCURVE",
"67 527 LINE",
"152 527 LINE",
"152 260 LINE",
"152 224 OFFCURVE",
"161 154 OFFCURVE",
"189 100 OFFCURVE",
"243 67 OFFCURVE",
"288 67 QCURVE",
"333 67 OFFCURVE",
"396 105 OFFCURVE",
"413 134 QCURVE",
"432 164 OFFCURVE",
"445 236 OFFCURVE",
"445 274 QCURVE",
"445 527 LINE"
);
}
);
width = 597;
}
);
unicode = 0079;
},
{
color = (153, 255, 194, 255);
glyphname = t2.alt;
layers = (
{
layerId = "DD39FC45-FCD0-450F-8BE5-088D761CC1D8";
paths = (
{
closed = 1;
nodes = (
"200 527 LINE",
"362 527 LINE",
"362 452 LINE",
"200 452 LINE",
"200 178 LINE",
"200 155 OFFCURVE",
"205 116 OFFCURVE",
"220 87 OFFCURVE",
"249 70 OFFCURVE",
"274 69 QCURVE",
"297 69 OFFCURVE",
"332 85 OFFCURVE",
"344 96 QCURVE",
"381 34 LINE",
"355 12 OFFCURVE",
"299 -6 OFFCURVE",
"265 -6 QCURVE",
"222 -6 OFFCURVE",
"164 19 OFFCURVE",
"144 43 QCURVE",
"127 66 OFFCURVE",
"115 128 OFFCURVE",
"115 167 QCURVE",
"115 452 LINE",
"29 452 LINE",
"29 527 LINE",
"115 527 LINE",
"115 685 LINE",
"200 685 LINE"
);
}
);
width = 396;
}
);
},
{
color = (153, 255, 194, 255);
glyphname = f_alt;
layers = (
{
layerId = "DD39FC45-FCD0-450F-8BE5-088D761CC1D8";
paths = (
{
closed = 1;
nodes = (
"115 0 LINE",
"115 452 LINE",
"29 452 LINE",
"29 527 LINE",
"115 527 LINE",
"115 581 LINE",
"115 620 OFFCURVE",
"126 683 OFFCURVE",
"144 705 QCURVE",
"164 728 OFFCURVE",
"222 754 OFFCURVE",
"265 754 QCURVE",
"298 754 OFFCURVE",
"353 738 OFFCURVE",
"379 716 QCURVE",
"341 652 LINE",
"329 663 OFFCURVE",
"293 679 OFFCURVE",
"270 679 QCURVE",
"246 678 OFFCURVE",
"218 660 OFFCURVE",
"204 630 OFFCURVE",
"200 590 OFFCURVE",
"200 567 QCURVE",
"200 527 LINE",
"359 527 LINE",
"359 452 LINE",
"200 452 LINE",
"200 0 LINE"
);
}
);
width = 366;
}
);
},
{
color = (153, 255, 194, 255);
glyphname = hyphen.uc;
layers = (
{
layerId = "DD39FC45-FCD0-450F-8BE5-088D761CC1D8";
paths = (
{
closed = 1;
nodes = (
"74 377 LINE",
"384 377 LINE",
"384 299 LINE",
"74 299 LINE"
);
}
);
width = 458;
}
);
},
{
color = (153, 255, 194, 255);
glyphname = uni00AD.uc;
layers = (
{
layerId = "DD39FC45-FCD0-450F-8BE5-088D761CC1D8";
paths = (
{
closed = 1;
nodes = (
"74 378 LINE",
"379 378 LINE",
"379 300 LINE",
"74 300 LINE"
);
}
);
width = 453;
}
);
},
{
color = (153, 255, 194, 255);
glyphname = endash.uc;
layers = (
{
layerId = "DD39FC45-FCD0-450F-8BE5-088D761CC1D8";
paths = (
{
closed = 1;
nodes = (
"74 378 LINE",
"504 378 LINE",
"504 300 LINE",
"74 300 LINE"
);
}
);
width = 578;
}
);
},
{
color = (153, 255, 194, 255);
glyphname = emdash.uc;
layers = (
{
layerId = "DD39FC45-FCD0-450F-8BE5-088D761CC1D8";
paths = (
{
closed = 1;
nodes = (
"74 378 LINE",
"685 378 LINE",
"685 300 LINE",
"74 300 LINE"
);
}
);
width = 759;
}
);
},
{
color = (153, 255, 194, 255);
glyphname = a_alt;
layers = (
{
layerId = "DD39FC45-FCD0-450F-8BE5-088D761CC1D8";
paths = (
{
closed = 1;
nodes = (
"407 64 LINE",
"369 26 OFFCURVE",
"319 10 QCURVE",
"277 -5 OFFCURVE",
"224 -5 QCURVE",
"188 -5 OFFCURVE",
"128 11 OFFCURVE",
"78 47 OFFCURVE",
"49 103 OFFCURVE",
"49 143 QCURVE",
"49 176 OFFCURVE",
"72 226 OFFCURVE",
"112 261 OFFCURVE",
"160 284 OFFCURVE",
"193 292 QCURVE",
"236 301 OFFCURVE",
"344 313 OFFCURVE",
"407 319 QCURVE",
"407 383 OFFCURVE",
"344 457 OFFCURVE",
"281 458 QCURVE",
"241 458 OFFCURVE",
"178 432 OFFCURVE",
"161 397 QCURVE",
"71 397 LINE",
"78 433 OFFCURVE",
"120 485 OFFCURVE",
"178 518 OFFCURVE",
"247 533 OFFCURVE",
"280 533 QCURVE",
"341 533 OFFCURVE",
"422 496 OFFCURVE",
"470 431 OFFCURVE",
"490 341 OFFCURVE",
"490 288 QCURVE",
"490 0 LINE",
"414 0 LINE"
);
},
{
closed = 1;
nodes = (
"134 122 OFFCURVE",
"156 90 OFFCURVE",
"188 74 OFFCURVE",
"221 69 OFFCURVE",
"236 69 QCURVE",
"272 69 OFFCURVE",
"329 88 OFFCURVE",
"354 105 QCURVE",
"378 121 OFFCURVE",
"407 169 OFFCURVE",
"407 214 QCURVE",
"407 249 LINE",
"394 247 OFFCURVE",
"263 232 OFFCURVE",
"240 228 QCURVE",
"190 221 OFFCURVE",
"134 179 OFFCURVE",
"134 146 QCURVE"
);
}
);
width = 555;
}
);
leftKerningGroup = _kern27;
rightKerningGroup = _kern27;
},
{
color = (153, 255, 194, 255);
glyphname = uni0490;
layers = (
{
layerId = "78171572-60C9-4C71-A014-9985FA9A600F";
name = img;
width = 571;
},
{
layerId = "DD39FC45-FCD0-450F-8BE5-088D761CC1D8";
paths = (
{
closed = 1;
nodes = (
"87 0 LINE",
"87 707 LINE",
"455 707 LINE",
"455 842 LINE",
"542 842 LINE",
"542 628 LINE",
"174 628 LINE",
"174 0 LINE"
);
}
);
width = 571;
}
);
leftKerningGroup = _kern23;
rightKerningGroup = _kern23;
unicode = 0490;
},
{
color = (153, 255, 194, 255);
glyphname = uni0491;
layers = (
{
layerId = "78171572-60C9-4C71-A014-9985FA9A600F";
name = img;
width = 454;
},
{
layerId = "DD39FC45-FCD0-450F-8BE5-088D761CC1D8";
paths = (
{
closed = 1;
nodes = (
"67 0 LINE",
"67 527 LINE",
"347 527 LINE",
"347 667 LINE",
"431 667 LINE",
"431 452 LINE",
"152 452 LINE",
"152 0 LINE"
);
}
);
width = 454;
}
);
leftKerningGroup = _kern24;
rightKerningGroup = _kern24;
unicode = 0491;
},
{
color = (153, 255, 194, 255);
glyphname = uni0406;
layers = (
{
layerId = "DD39FC45-FCD0-450F-8BE5-088D761CC1D8";
paths = (
{
closed = 1;
nodes = (
"174 0 LINE",
"87 0 LINE",
"87 707 LINE",
"174 707 LINE"
);
}
);
width = 261;
}
);
unicode = 0406;
},
